<svg width="11" height="10" viewBox="0 0 11 10" fill="none" xmlns="http://www.w3.org/2000/svg">
<g id="Group 1404">
<path id="Vector (Stroke)" fill-rule="evenodd" clip-rule="evenodd" d="M5.33464 1.99927C5.70283 1.99927 6.0013 2.22313 6.0013 2.49927V9.49927C6.0013 9.77541 5.70283 9.99927 5.33464 9.99927C4.96645 9.99927 4.66797 9.77541 4.66797 9.49927V2.49927C4.66797 2.22313 4.96645 1.99927 5.33464 1.99927Z" fill="#1EA8DE"/>
<path id="Vector (Stroke)_2" fill-rule="evenodd" clip-rule="evenodd" d="M6.66797 4.99959C6.66797 4.8155 6.89183 4.66626 7.16797 4.66626H8.16797C8.44411 4.66626 8.66797 4.8155 8.66797 4.99959C8.66797 5.18369 8.44411 5.33293 8.16797 5.33293H7.16797C6.89183 5.33293 6.66797 5.18369 6.66797 4.99959Z" fill="#1EA8DE"/>
<path id="Vector (Stroke)_3" fill-rule="evenodd" clip-rule="evenodd" d="M6.66797 3.00033C6.66797 2.81623 6.89183 2.66699 7.16797 2.66699H8.16797C8.44411 2.66699 8.66797 2.81623 8.66797 3.00033C8.66797 3.18442 8.44411 3.33366 8.16797 3.33366H7.16797C6.89183 3.33366 6.66797 3.18442 6.66797 3.00033Z" fill="#1EA8DE"/>
<path id="Vector (Stroke)_4" fill-rule="evenodd" clip-rule="evenodd" d="M0.284018 0.292893C0.465871 0.105357 0.712517 0 0.969697 0H3.39394C4.03689 0 4.6535 0.263392 5.10814 0.732233C5.18973 0.816373 5.2649 0.905892 5.33333 0.999983C5.40177 0.905892 5.47694 0.816373 5.55853 0.732233C6.01316 0.263392 6.62978 0 7.27273 0H9.69697C9.95415 0 10.2008 0.105356 10.3827 0.292893C10.5645 0.48043 10.6667 0.734784 10.6667 1V7.5C10.6667 7.76521 10.5645 8.01957 10.3827 8.20711C10.2008 8.39465 9.95415 8.5 9.69697 8.5H6.78788C6.5307 8.5 6.28405 8.60536 6.1022 8.79289C5.92035 8.98043 5.81818 9.23478 5.81818 9.5C5.81818 9.77614 5.60111 10 5.33333 10C5.06556 10 4.84848 9.77614 4.84848 9.5C4.84848 9.23478 4.74632 8.98043 4.56447 8.79289C4.38261 8.60536 4.13597 8.5 3.87879 8.5H0.969697C0.712518 8.5 0.465872 8.39464 0.284018 8.20711C0.102164 8.01957 0 7.76522 0 7.5V1C0 0.734784 0.102164 0.48043 0.284018 0.292893ZM5.33333 8.17712C5.36005 8.14588 5.38779 8.11542 5.41652 8.08579C5.78023 7.71071 6.27352 7.5 6.78788 7.5H9.69697V1H7.27273C6.88696 1 6.51699 1.15804 6.24421 1.43934C5.97143 1.72064 5.81818 2.10218 5.81818 2.5C5.81818 2.77614 5.60111 3 5.33333 3C5.06556 3 4.84848 2.77614 4.84848 2.5C4.84848 2.10218 4.69524 1.72064 4.42246 1.43934C4.14968 1.15804 3.77971 1 3.39394 1H0.969697V7.5H3.87879C4.39315 7.5 4.88644 7.71071 5.25015 8.08579C5.27888 8.11542 5.30661 8.14588 5.33333 8.17712Z" fill="#1EA8DE"/>
<path id="Vector (Stroke)_5" fill-rule="evenodd" clip-rule="evenodd" d="M2 4.99959C2 4.8155 2.22386 4.66626 2.5 4.66626H3.5C3.77614 4.66626 4 4.8155 4 4.99959C4 5.18369 3.77614 5.33293 3.5 5.33293H2.5C2.22386 5.33293 2 5.18369 2 4.99959Z" fill="#1EA8DE"/>
<path id="Vector (Stroke)_6" fill-rule="evenodd" clip-rule="evenodd" d="M2 3.00033C2 2.81623 2.22386 2.66699 2.5 2.66699H3.5C3.77614 2.66699 4 2.81623 4 3.00033C4 3.18442 3.77614 3.33366 3.5 3.33366H2.5C2.22386 3.33366 2 3.18442 2 3.00033Z" fill="#1EA8DE"/>
</g>
</svg>
