<svg width="27" height="30" viewBox="0 0 27 30" fill="none" xmlns="http://www.w3.org/2000/svg">
<path fill-rule="evenodd" clip-rule="evenodd" d="M10.8047 17.5611C10.8047 16.8154 11.4091 16.2109 12.1547 16.2109H13.5047C14.2503 16.2109 14.8547 16.8154 14.8547 17.5611V22.9618C14.8547 23.7074 14.2503 24.3119 13.5047 24.3119C12.7591 24.3119 12.1547 23.7074 12.1547 22.9618V18.9113C11.4091 18.9113 10.8047 18.3068 10.8047 17.5611Z" fill="white"/>
<path fill-rule="evenodd" clip-rule="evenodd" d="M18.8969 0C19.6425 0 20.2469 0.60449 20.2469 1.35017V6.75083C20.2469 7.4965 19.6425 8.10099 18.8969 8.10099C18.1513 8.10099 17.5469 7.4965 17.5469 6.75083V1.35017C17.5469 0.60449 18.1513 0 18.8969 0Z" fill="white"/>
<path fill-rule="evenodd" clip-rule="evenodd" d="M0 12.1549C0 11.4092 0.604416 10.8047 1.35 10.8047H25.65C26.3956 10.8047 27 11.4092 27 12.1549C27 12.9005 26.3956 13.505 25.65 13.505H1.35C0.604416 13.505 0 12.9005 0 12.1549Z" fill="white"/>
<path fill-rule="evenodd" clip-rule="evenodd" d="M8.1 0C8.84558 0 9.45 0.60449 9.45 1.35017V6.75083C9.45 7.4965 8.84558 8.10099 8.1 8.10099C7.35442 8.10099 6.75 7.4965 6.75 6.75083V1.35017C6.75 0.60449 7.35442 0 8.1 0Z" fill="white"/>
<path fill-rule="evenodd" clip-rule="evenodd" d="M4.05 5.39564C3.30442 5.39564 2.7 6.00013 2.7 6.74581V25.6481C2.7 26.3938 3.30442 26.9983 4.05 26.9983H22.95C23.6956 26.9983 24.3 26.3938 24.3 25.6481V6.74581C24.3 6.00013 23.6956 5.39564 22.95 5.39564H4.05ZM0 6.74581C0 4.50878 1.81325 2.69531 4.05 2.69531H22.95C25.1868 2.69531 27 4.50878 27 6.74581V25.6481C27 27.8852 25.1868 29.6986 22.95 29.6986H4.05C1.81325 29.6986 0 27.8852 0 25.6481V6.74581Z" fill="white"/>
</svg>
