<svg width="12" height="8" viewBox="0 0 12 8" fill="none" xmlns="http://www.w3.org/2000/svg">
<g id="Group 1735">
<path id="Vector (Stroke)" fill-rule="evenodd" clip-rule="evenodd" d="M11.1756 0.750005C11.3195 0.749516 11.4611 0.78702 11.5859 0.858731C11.7107 0.930441 11.8144 1.03382 11.8865 1.15843C11.9586 1.28299 11.9965 1.42435 11.9965 1.56826C11.9965 1.5682 11.9965 1.56831 11.9965 1.56826V6.03877C11.9964 6.18676 11.9562 6.33225 11.8801 6.4592C11.8041 6.58615 11.695 6.69008 11.5645 6.75993C11.434 6.82978 11.2871 6.86294 11.1392 6.85587C10.9914 6.8488 10.8483 6.80176 10.7251 6.71977L7.87579 4.82026C7.62514 4.65316 7.55741 4.31451 7.72451 4.06386C7.89161 3.81321 8.23026 3.74547 8.48091 3.91258L10.9056 5.52904V2.04305L8.45323 3.47391C8.19304 3.62573 7.85904 3.53787 7.70723 3.27767C7.55542 3.01748 7.64328 2.68348 7.90347 2.53167L10.766 0.861514C10.766 0.861519 10.766 0.861509 10.766 0.861514C10.8903 0.788967 11.0316 0.750493 11.1756 0.750005Z" fill="#178AB7"/>
<path id="Vector (Stroke)_2" fill-rule="evenodd" clip-rule="evenodd" d="M1.63635 1.0909C1.33511 1.0909 1.0909 1.33511 1.0909 1.63635V5.99996C1.0909 6.3012 1.33511 6.54541 1.63635 6.54541H7.09086C7.3921 6.54541 7.63631 6.3012 7.63631 5.99996V1.63635C7.63631 1.33511 7.3921 1.0909 7.09086 1.0909H1.63635ZM0 1.63635C0 0.732619 0.73262 0 1.63635 0H7.09086C7.99459 0 8.72721 0.732619 8.72721 1.63635V5.99996C8.72721 6.90369 7.99459 7.63631 7.09086 7.63631H1.63635C0.73262 7.63631 0 6.90369 0 5.99996V1.63635Z" fill="#178AB7"/>
</g>
</svg>
