<svg width="8" height="8" viewBox="0 0 8 8" fill="none" xmlns="http://www.w3.org/2000/svg">
<g id="Group 1800">
<path id="Vector (Stroke)" fill-rule="evenodd" clip-rule="evenodd" d="M4 1.12855C2.41846 1.12855 1.13636 2.41064 1.13636 3.99219C1.13636 5.57373 2.41846 6.85582 4 6.85582C5.58154 6.85582 6.86364 5.57373 6.86364 3.99219C6.86364 2.41064 5.58154 1.12855 4 1.12855ZM0.5 3.99219C0.5 2.05919 2.067 0.492188 4 0.492188C5.933 0.492188 7.5 2.05919 7.5 3.99219C7.5 5.92518 5.933 7.49219 4 7.49219C2.067 7.49219 0.5 5.92518 0.5 3.99219Z" fill="white"/>
<path id="Vector (Stroke)_2" fill-rule="evenodd" clip-rule="evenodd" d="M3.99787 1.76562C4.1736 1.76562 4.31605 1.90808 4.31605 2.08381V3.79625L5.41289 4.34467C5.57007 4.42326 5.63377 4.61438 5.55519 4.77156C5.4766 4.92873 5.28548 4.99244 5.1283 4.91385L3.85557 4.27749C3.74778 4.22359 3.67969 4.11342 3.67969 3.9929V2.08381C3.67969 1.90808 3.82214 1.76562 3.99787 1.76562Z" fill="white"/>
</g>
</svg>
