<svg width="27" height="27" viewBox="0 0 27 27" fill="none" xmlns="http://www.w3.org/2000/svg">
<path fill-rule="evenodd" clip-rule="evenodd" d="M19.5727 7.42981C19.9014 7.75853 20.0162 8.24476 19.8692 8.68578L17.6552 15.3264C17.6552 15.3265 17.6552 15.3264 17.6552 15.3264C17.4744 15.8687 17.1699 16.3615 16.7657 16.7657C16.3615 17.1699 15.8688 17.4744 15.3265 17.6552C15.3265 17.6552 15.3265 17.6552 15.3265 17.6552L8.68578 19.8692C8.24476 20.0162 7.75853 19.9014 7.42981 19.5727C7.10109 19.244 6.98631 18.7577 7.13335 18.3167L9.34731 11.6761C9.3473 11.6761 9.34732 11.676 9.34731 11.6761C9.52806 11.1338 9.83262 10.641 10.2368 10.2368C10.641 9.83262 11.1337 9.5281 11.676 9.34735C11.6759 9.34736 11.676 9.34734 11.676 9.34735L18.3167 7.13335C18.7577 6.98631 19.244 7.10109 19.5727 7.42981ZM16.7642 10.2383L12.4523 11.6759C12.2715 11.7361 12.1072 11.8377 11.9724 11.9724C11.8377 12.1072 11.7362 12.2714 11.6759 12.4522L10.2383 16.7642L14.5502 15.3266C14.731 15.2664 14.8954 15.1648 15.0301 15.0301C15.1648 14.8954 15.2663 14.7311 15.3266 14.5503L16.7642 10.2383Z" fill="white"/>
<path fill-rule="evenodd" clip-rule="evenodd" d="M13.5 2.45455C7.39976 2.45455 2.45455 7.39976 2.45455 13.5C2.45455 19.6002 7.39976 24.5455 13.5 24.5455C19.6002 24.5455 24.5455 19.6002 24.5455 13.5C24.5455 7.39976 19.6002 2.45455 13.5 2.45455ZM0 13.5C0 6.04416 6.04416 0 13.5 0C20.9558 0 27 6.04416 27 13.5C27 20.9558 20.9558 27 13.5 27C6.04416 27 0 20.9558 0 13.5Z" fill="white"/>
</svg>
