<svg width="40" height="40" viewBox="0 0 40 40" fill="none" xmlns="http://www.w3.org/2000/svg">
<g id="Group">
<path id="Vector" d="M20 0C8.9543 0 0 8.9543 0 20C0 31.0457 8.9543 40 20 40C31.0457 40 40 31.0457 40 20C40 8.9543 31.0457 0 20 0ZM32.1875 27.6172C32.1875 29.1948 30.9086 30.4736 29.3311 30.4736H10.6689C9.09133 30.4736 7.8125 29.1947 7.8125 27.6172V12.3828C7.8125 10.8052 9.09141 9.52641 10.6689 9.52641H29.331C30.9086 9.52641 32.1874 10.8053 32.1874 12.3828V27.6172H32.1875Z" fill="white"/>
<path id="Vector_2" d="M26.129 13.0236L19.9991 16.5627L13.8691 13.0236C13.186 12.6292 12.3126 12.8633 11.9181 13.5463C11.5238 14.2295 11.7578 15.1029 12.4409 15.4974L19.2849 19.4488L19.285 19.4486C19.502 19.5736 19.7488 19.6395 19.999 19.6399C20.2493 19.6395 20.4961 19.5736 20.713 19.4486L20.7131 19.4488L27.5571 15.4974C28.2402 15.103 28.4743 14.2295 28.0798 13.5463C27.6856 12.8633 26.8121 12.6292 26.129 13.0236Z" fill="white"/>
</g>
</svg>
