<svg width="40" height="41" viewBox="0 0 40 41" fill="none" xmlns="http://www.w3.org/2000/svg">
<g id="SaveKey icon">
<path id="SaveKey icon_2" d="M0 6.60401C0 3.22805 2.7529 0.5 6.10282 0.5H28.2587C30.1824 0.5 32.0066 1.25021 33.3665 2.61424L37.8773 7.14962C39.2371 8.51364 40 10.321 40 12.2647V34.396C40 37.7719 37.2471 40.5 33.8972 40.5H6.10282C2.71973 40.5 0 37.7719 0 34.396V6.60401ZM6.10282 3.84186C4.57711 3.84186 3.31675 5.06948 3.31675 6.60401V34.3619C3.31675 35.8964 4.57711 37.124 6.10282 37.124H6.66667V25.4616C6.66667 22.6995 8.92206 20.483 11.675 20.483H28.3582C31.1111 20.483 33.3665 22.7336 33.3665 25.4616V37.124H33.9303C35.4561 37.124 36.7164 35.8964 36.7164 34.3619V12.2306C36.7164 11.2076 36.3184 10.2187 35.5887 9.46846L31.0779 4.93308C30.5141 4.35337 29.7512 3.97826 28.9552 3.84186V9.87766C28.9552 12.6398 26.6998 14.8564 23.9469 14.8564H13.9303C11.1774 14.8564 8.92206 12.6057 8.92206 9.87766V3.84186H6.13599H6.10282ZM30.0166 37.124V25.4616C30.0166 24.5409 29.2537 23.7907 28.3582 23.7907H11.675C10.7463 23.7907 10.0166 24.5409 10.0166 25.4616V37.124H30.0166ZM12.2388 3.84186V9.94587C12.2388 10.8666 13.0017 11.6168 13.8972 11.6168H23.9138C24.8425 11.6168 25.5721 10.8666 25.5721 9.94587V3.84186H12.2388Z" fill="white"/>
</g>
</svg>
