<svg width="30" height="29" viewBox="0 0 30 29" fill="none" xmlns="http://www.w3.org/2000/svg">
<path fill-rule="evenodd" clip-rule="evenodd" d="M9.03947 13.0909C9.75691 12.2065 10.8322 11.8672 11.8658 11.8672H15.8203C16.8691 11.8672 17.875 12.2838 18.6166 13.0254C19.3582 13.7671 19.7749 14.7729 19.7749 15.8217C19.7749 16.8705 19.3582 17.8764 18.6166 18.618C17.875 19.3596 16.8691 19.7763 15.8203 19.7763H13.1839C12.4559 19.7763 11.8658 19.1861 11.8658 18.4581C11.8658 17.7301 12.4559 17.1399 13.1839 17.1399H15.8203C16.1699 17.1399 16.5052 17.001 16.7524 16.7538C16.9996 16.5066 17.1385 16.1713 17.1385 15.8217C17.1385 15.4721 16.9996 15.1368 16.7524 14.8896C16.5052 14.6424 16.1699 14.5036 15.8203 14.5036H11.8658C11.3536 14.5036 11.1496 14.6675 11.0749 14.7672C11.0326 14.8235 10.986 14.8763 10.9353 14.9252L3.55349 22.0433C3.02944 22.5487 2.19495 22.5335 1.68961 22.0095C1.18427 21.4854 1.19944 20.6509 1.7235 20.1456L9.03947 13.0909Z" fill="white"/>
<path fill-rule="evenodd" clip-rule="evenodd" d="M22.368 11.5533C23.1302 10.8352 24.1461 10.4485 25.1931 10.4781C26.2421 10.5078 27.2365 10.953 27.9573 11.7157C28.6781 12.4785 29.0664 13.4964 29.0368 14.5454C29.0071 15.5931 28.5631 16.5862 27.8022 17.3068L21.7809 23.0662C20.5767 24.4136 18.8946 25.0516 17.1392 25.0516H11.8665C11.3543 25.0516 11.1504 25.2155 11.0756 25.3152C11.0206 25.3886 10.9581 25.456 10.8891 25.5163L8.77998 27.3618C8.23209 27.8412 7.39932 27.7857 6.91992 27.2378C6.44052 26.6899 6.49604 25.8571 7.04392 25.3777L9.0633 23.6108C9.7806 22.7473 10.844 22.4152 11.8665 22.4152H17.1392C18.2637 22.4152 19.1995 22.0134 19.8381 21.2836C19.8638 21.2542 19.8908 21.226 19.919 21.199L25.9884 15.3935C26.2429 15.1529 26.3915 14.8211 26.4014 14.4709C26.4113 14.1208 26.2817 13.7811 26.0412 13.5265C25.8006 13.2719 25.4687 13.1234 25.1186 13.1135C24.7685 13.1036 24.4287 13.2332 24.1742 13.4737L24.1658 13.4817L18.6294 18.6225C18.0959 19.1179 17.2618 19.087 16.7664 18.5535C16.2711 18.0201 16.302 17.186 16.8354 16.6906L22.368 11.5533Z" fill="white"/>
<path fill-rule="evenodd" clip-rule="evenodd" d="M0.386087 18.8392C0.900869 18.3244 1.7355 18.3244 2.25028 18.8392L10.1594 26.7483C10.6742 27.2631 10.6742 28.0977 10.1594 28.6125C9.64459 29.1273 8.80996 29.1273 8.29518 28.6125L0.386087 20.7034C-0.128696 20.1886 -0.128696 19.354 0.386087 18.8392Z" fill="white"/>
<path fill-rule="evenodd" clip-rule="evenodd" d="M19.7737 8.04261C18.3905 8.04261 17.2692 9.16394 17.2692 10.5472C17.2692 11.9304 18.3905 13.0517 19.7737 13.0517C21.1569 13.0517 22.2783 11.9304 22.2783 10.5472C22.2783 9.16394 21.1569 8.04261 19.7737 8.04261ZM14.6328 10.5472C14.6328 7.70791 16.9345 5.40625 19.7737 5.40625C22.613 5.40625 24.9146 7.70791 24.9146 10.5472C24.9146 13.3864 22.613 15.6881 19.7737 15.6881C16.9345 15.6881 14.6328 13.3864 14.6328 10.5472Z" fill="white"/>
<path fill-rule="evenodd" clip-rule="evenodd" d="M6.59304 2.63636C5.13702 2.63636 3.95668 3.8167 3.95668 5.27273C3.95668 6.72875 5.13702 7.90909 6.59304 7.90909C8.04906 7.90909 9.2294 6.72875 9.2294 5.27273C9.2294 3.8167 8.04906 2.63636 6.59304 2.63636ZM1.32031 5.27273C1.32031 2.36068 3.68099 0 6.59304 0C9.50509 0 11.8658 2.36068 11.8658 5.27273C11.8658 8.18477 9.50509 10.5455 6.59304 10.5455C3.68099 10.5455 1.32031 8.18477 1.32031 5.27273Z" fill="white"/>
</svg>
