<svg width="27" height="25" viewBox="0 0 27 25" fill="none" xmlns="http://www.w3.org/2000/svg">
<path fill-rule="evenodd" clip-rule="evenodd" d="M2.33649 2.33649C3.83252 0.84046 5.86157 0 7.97727 0C9.18022 0 10.2762 0.172044 11.3484 0.639021C12.1005 0.966623 12.803 1.42287 13.5 2.01192C14.197 1.42287 14.8995 0.966623 15.6516 0.639021C16.7238 0.172044 17.8198 0 19.0227 0C21.1384 0 23.1675 0.84046 24.6635 2.33649C26.1595 3.83252 27 5.86157 27 7.97727C27 11.3422 24.7794 13.8107 22.9543 15.5995L14.3678 24.186C13.8885 24.6653 13.1115 24.6653 12.6322 24.186L4.04858 15.6024C2.20224 13.8167 0 11.3515 0 7.97727C0 5.86157 0.84046 3.83252 2.33649 2.33649ZM7.97727 2.45455C6.51255 2.45455 5.10783 3.0364 4.07211 4.07211C3.0364 5.10783 2.45455 6.51255 2.45455 7.97727C2.45455 10.2439 3.92813 12.0721 5.76207 13.8449L5.7769 13.8595L13.5 21.5826L21.2319 13.8506C23.0633 12.0562 24.5455 10.2305 24.5455 7.97727C24.5455 6.51255 23.9636 5.10783 22.9279 4.07211C21.8922 3.0364 20.4874 2.45455 19.0227 2.45455C18.0657 2.45455 17.3207 2.58932 16.6318 2.88939C15.9349 3.19291 15.2183 3.69913 14.3678 4.54963C13.8885 5.02891 13.1115 5.02891 12.6322 4.54963C11.7817 3.69913 11.0651 3.19291 10.3682 2.88939C9.67928 2.58932 8.93432 2.45455 7.97727 2.45455Z" fill="white"/>
</svg>
