<svg width="40" height="40" viewBox="0 0 40 40" fill="none" xmlns="http://www.w3.org/2000/svg">
<g id="Group 1417">
<path id="Vector" d="M20 40C30.9216 40 40.0001 30.9216 40.0001 20C40.0001 9.05882 30.902 0 19.9804 0C9.03915 0 0 9.05882 0 20C0 30.9216 9.05882 40 20 40ZM28.7059 10.8824C31.1373 13.2941 30.9216 16.2745 28.1176 19.0588L24.7451 22.451C25.0196 21.5098 25 20.4118 24.6862 19.6667L26.6667 17.6863C28.5882 15.8039 28.804 13.8235 27.2745 12.3137C25.7647 10.8235 23.7844 11.0588 21.9019 12.9412L19.098 15.7059C17.1568 17.6666 16.902 19.6667 18.4314 21.1568C18.8824 21.6274 19.5491 21.9216 20.4118 22.0784C20.1176 22.7059 19.5098 23.4314 18.9412 23.8235C18.353 23.7255 17.6078 23.2549 16.9804 22.6078C14.549 20.1961 14.8039 17.1765 17.647 14.3137L20.5098 11.4706C23.3138 8.66662 26.2942 8.47052 28.7059 10.8824ZM10.5882 29C8.15679 26.5882 8.37247 23.6078 11.1961 20.8235L14.5686 17.4314C14.2745 18.3725 14.2941 19.4706 14.6078 20.2157L12.6274 22.1961C10.7058 24.0588 10.4902 26.0588 12.0196 27.5686C13.5294 29.0588 15.5294 28.8236 17.3921 26.9412L20.1961 24.1765C22.1373 22.2156 22.3922 20.2157 20.8628 18.7255C20.4118 18.2548 19.7451 17.9608 18.8824 17.8039C19.1764 17.1765 19.7843 16.451 20.3529 16.0588C20.9412 16.1568 21.6862 16.6274 22.3334 17.2745C24.7451 19.6863 24.4902 22.6862 21.6471 25.549L18.7843 28.4118C15.9804 31.2157 13 31.4117 10.5882 29Z" fill="white"/>
</g>
</svg>
