<svg width="50" height="50" viewBox="0 0 50 50" fill="none" xmlns="http://www.w3.org/2000/svg">
<g id="Group 1487">
<path id="Vector (Stroke)" fill-rule="evenodd" clip-rule="evenodd" d="M25 4.54545C13.7033 4.54545 4.54545 13.7033 4.54545 25C4.54545 36.2967 13.7033 45.4545 25 45.4545C36.2967 45.4545 45.4545 36.2967 45.4545 25C45.4545 13.7033 36.2967 4.54545 25 4.54545ZM0 25C0 11.1929 11.1929 0 25 0C38.8071 0 50 11.1929 50 25C50 38.8071 38.8071 50 25 50C11.1929 50 0 38.8071 0 25Z" fill="white"/>
<path id="Vector (Stroke)_2" fill-rule="evenodd" clip-rule="evenodd" d="M19.6247 14.3881C20.3316 14.0098 21.1893 14.0513 21.8563 14.496L34.8998 23.1916C35.5046 23.5948 35.8679 24.2736 35.8679 25.0004C35.8679 25.7273 35.5046 26.406 34.8998 26.8092L21.8563 35.5049C21.1893 35.9496 20.3316 35.9911 19.6247 35.6128C18.9178 35.2345 18.4766 34.4978 18.4766 33.6961V16.3048C18.4766 15.503 18.9178 14.7664 19.6247 14.3881ZM22.8244 20.3668V29.6341L29.7749 25.0004L22.8244 20.3668Z" fill="white"/>
</g>
</svg>
