<svg width="100" height="100" viewBox="0 0 100 100" fill="none" xmlns="http://www.w3.org/2000/svg">
<g id="Group 1385">
<path id="Vector" d="M50.0005 58.6963C38.0551 58.6963 28.3281 48.9693 28.3281 37.0239C28.3281 25.0785 38.0551 15.3516 50.0005 15.3516C61.9459 15.3516 71.6728 25.0785 71.6728 37.0239C71.6728 48.9693 61.9459 58.6963 50.0005 58.6963ZM50.0005 23.2014C42.4066 23.2014 36.178 29.4301 36.178 37.0239C36.178 44.6178 42.4066 50.8464 50.0005 50.8464C57.5943 50.8464 63.823 44.6178 63.823 37.0239C63.823 29.4301 57.5943 23.2014 50.0005 23.2014Z" fill="#F2F2F2"/>
<path id="Vector_2" d="M50 0C22.4403 0 0 22.4403 0 50C0 64.3345 6.14334 77.9864 16.8942 87.5427C17.9181 88.3959 18.8567 89.1638 19.9659 89.9317C20.0512 90.1024 20.2218 90.1877 20.3072 90.273C20.4778 90.4437 20.7338 90.529 20.9044 90.6143C29.3515 96.7577 39.4198 100 50 100C60.5802 100 70.5631 96.7577 79.0956 90.6143C79.2662 90.529 79.4369 90.3584 79.6075 90.273C79.7782 90.1877 79.8635 90.0171 80.0341 89.9317C81.058 89.1638 82.0819 88.3959 83.0205 87.5427C93.7713 77.9864 100 64.3345 100 50C100 22.4403 77.5597 0 50 0ZM27.901 85.8362C32.8498 78.4983 41.041 74.0614 50 74.0614C58.959 74.0614 67.1502 78.4983 72.099 85.8362C58.7031 94.0273 41.2116 94.0273 27.901 85.8362ZM78.3276 81.1433C72.0137 71.843 61.5188 66.2116 50 66.2116C38.4812 66.2116 27.9863 71.843 21.587 81.1433C12.884 73.2082 7.84983 61.8601 7.84983 50C7.84983 26.7918 26.7065 7.84983 50 7.84983C73.2935 7.84983 92.0648 26.7918 92.0648 50C92.0648 61.8601 87.0307 73.2082 78.3276 81.1433Z" fill="#F2F2F2"/>
</g>
</svg>
