<svg xmlns="http://www.w3.org/2000/svg" width="17" height="21" viewBox="0 0 17 21" fill="none">
    <path fill-rule="evenodd" clip-rule="evenodd" d="M1.5154 14.2981C2.4857 13.3278 3.80171 12.7827 5.17391 12.7827H11.5652C12.9374 12.7827 14.2534 13.3278 15.2237 14.2981C16.194 15.2684 16.7391 16.5844 16.7391 17.9566V20.0871C16.7391 20.5913 16.3303 21.0001 15.8261 21.0001C15.3218 21.0001 14.913 20.5913 14.913 20.0871V17.9566C14.913 17.0687 14.5603 16.2172 13.9325 15.5894C13.3046 14.9615 12.4531 14.6088 11.5652 14.6088H5.17391C4.28601 14.6088 3.43448 14.9615 2.80664 15.5894C2.1788 16.2172 1.82609 17.0687 1.82609 17.9566V20.0871C1.82609 20.5913 1.4173 21.0001 0.913043 21.0001C0.408783 21.0001 0 20.5913 0 20.0871V17.9566C0 16.5844 0.545107 15.2684 1.5154 14.2981Z" fill="white"/>
    <path fill-rule="evenodd" clip-rule="evenodd" d="M8.36923 1.82609C6.52027 1.82609 5.0214 3.32496 5.0214 5.17391C5.0214 7.02287 6.52027 8.52174 8.36923 8.52174C10.2182 8.52174 11.7171 7.02287 11.7171 5.17391C11.7171 3.32496 10.2182 1.82609 8.36923 1.82609ZM3.19531 5.17391C3.19531 2.31644 5.51175 0 8.36923 0C11.2267 0 13.5431 2.31644 13.5431 5.17391C13.5431 8.03139 11.2267 10.3478 8.36923 10.3478C5.51175 10.3478 3.19531 8.03139 3.19531 5.17391Z" fill="white"/>
</svg>