<svg xmlns="http://www.w3.org/2000/svg" width="100" height="100" viewBox="0 0 100 100" fill="none">
  <path d="M0 15.26C0 6.82012 6.88226 0 15.257 0H70.6468C75.4561 0 80.0166 1.87553 83.4163 5.28559L94.6932 16.624C98.0929 20.0341 100 24.5524 100 29.4118V84.74C100 93.1799 93.1177 100 84.743 100H15.257C6.79934 100 0 93.1799 0 84.74V15.26ZM15.257 8.35465C11.4428 8.35465 8.29187 11.4237 8.29187 15.26V84.6547C8.29187 88.4911 11.4428 91.5601 15.257 91.5601H16.6667V62.4041C16.6667 55.4987 22.3051 49.9574 29.1874 49.9574H70.8955C77.7778 49.9574 83.4163 55.584 83.4163 62.4041V91.5601H84.8259C88.6401 91.5601 91.791 88.4911 91.791 84.6547V29.3265C91.791 26.769 90.796 24.2967 88.9718 22.4211L77.6949 11.0827C76.2852 9.63342 74.3781 8.69565 72.3881 8.35465V23.4442C72.3881 30.3495 66.7496 35.8909 59.8673 35.8909H34.8259C27.9436 35.8909 22.3051 30.2643 22.3051 23.4442V8.35465H15.34H15.257ZM75.0415 91.5601V62.4041C75.0415 60.1023 73.1343 58.2268 70.8955 58.2268H29.1874C26.8657 58.2268 25.0415 60.1023 25.0415 62.4041V91.5601H75.0415ZM30.597 8.35465V23.6147C30.597 25.9165 32.5041 27.792 34.743 27.792H59.7844C62.1061 27.792 63.9303 25.9165 63.9303 23.6147V8.35465H30.597Z" fill="#F2F2F2"/>
</svg>