<svg width="40" height="40" viewBox="0 0 40 40" fill="none" xmlns="http://www.w3.org/2000/svg">
<g id="twitch-v2-svgrepo-com 1" clip-path="url(#clip0_6992_31710)">
<path id="Vector" d="M20 40C31.0457 40 40 31.0457 40 20C40 8.9543 31.0457 0 20 0C8.9543 0 0 8.9543 0 20C0 31.0457 8.9543 40 20 40Z" fill="white"/>
<path id="Vector_2" d="M27.0664 20.8984L24.1016 23.7109H21.1328L18.5352 26.1719V23.7109H15.1953V13.1719H27.0664V20.8984ZM14.4531 11.7656L10.7422 15.2773V27.9258H15.1953V31.4375L18.9063 27.9258H21.875L28.5508 21.6016V11.7656H14.4531ZM24.8438 15.7422H23.3594V19.957H24.8438V15.7422ZM19.2773 15.7227H20.7617V19.9375H19.2773V15.7227Z" fill="black"/>
</g>
<defs>
<clipPath id="clip0_6992_31710">
<rect width="40" height="40" fill="white"/>
</clipPath>
</defs>
</svg>
