<svg width="183" height="183" viewBox="0 0 183 183" fill="none" xmlns="http://www.w3.org/2000/svg">
<g id="circuit 1">
<g id="Group">
<path id="Vector" d="M135.105 85.3666H163.119C163.701 86.836 164.777 88.0564 166.162 88.8175C167.548 89.5787 169.155 89.833 170.707 89.5367C172.26 89.2403 173.66 88.4119 174.668 87.194C175.675 85.9762 176.226 84.4452 176.226 82.8647C176.226 81.2842 175.675 79.7532 174.668 78.5353C173.66 77.3175 172.26 76.489 170.707 76.1927C169.155 75.8964 167.548 76.1507 166.162 76.9118C164.777 77.673 163.701 78.8934 163.119 80.3627H135.105V68.0817H153.162C153.826 68.0813 154.462 67.8176 154.931 67.3485C155.4 66.8794 155.664 66.2432 155.664 65.5798V49.0955H163.119C163.701 50.5648 164.777 51.7852 166.162 52.5464C167.548 53.3075 169.155 53.5618 170.707 53.2655C172.26 52.9692 173.66 52.1407 174.668 50.9229C175.675 49.705 176.226 48.174 176.226 46.5935C176.226 45.013 175.675 43.482 174.668 42.2642C173.66 41.0463 172.26 40.2179 170.707 39.9215C169.155 39.6252 167.548 39.8795 166.162 40.6407C164.777 41.4018 163.701 42.6222 163.119 44.0916H153.162C152.499 44.0919 151.863 44.3557 151.394 44.8248C150.925 45.2939 150.661 45.9301 150.66 46.5935V63.0778H135.105V50.3965C135.105 49.733 134.841 49.0969 134.372 48.6278C133.903 48.1586 133.267 47.8949 132.604 47.8945H119.922V32.3395H136.406C137.07 32.3392 137.706 32.0754 138.175 31.6063C138.644 31.1372 138.908 30.501 138.908 29.8376V19.8812C140.377 19.2991 141.597 18.2231 142.357 16.8386C143.118 15.454 143.372 13.8476 143.076 12.2959C142.779 10.7442 141.951 9.34438 140.734 8.33755C139.517 7.33071 137.986 6.77986 136.406 6.77986C134.827 6.77986 133.296 7.33071 132.079 8.33755C130.862 9.34438 130.034 10.7442 129.737 12.2959C129.441 13.8476 129.695 15.454 130.456 16.8386C131.216 18.2231 132.436 19.2991 133.905 19.8812V27.3356H117.42C116.757 27.336 116.121 27.5997 115.652 28.0689C115.182 28.538 114.919 29.1741 114.918 29.8376V47.8945H102.637V19.8827C104.106 19.3005 105.325 18.2245 106.086 16.84C106.847 15.4554 107.101 13.849 106.804 12.2973C106.508 10.7456 105.68 9.34581 104.463 8.33898C103.245 7.33214 101.715 6.78129 100.135 6.78129C98.5556 6.78129 97.0253 7.33214 95.808 8.33898C94.5907 9.34581 93.7626 10.7456 93.4662 12.2973C93.1699 13.849 93.4239 15.4554 94.1846 16.84C94.9452 18.2245 96.1648 19.3005 97.6334 19.8827V47.8945H85.3666V19.8812C86.836 19.2991 88.0564 18.2227 88.8175 16.8376C89.5787 15.4525 89.833 13.8453 89.5367 12.2928C89.2403 10.7403 88.4119 9.33982 87.194 8.33245C85.9762 7.32508 84.4452 6.77393 82.8647 6.77393C81.2842 6.77393 79.7532 7.32508 78.5353 8.33245C77.3175 9.33982 76.489 10.7403 76.1927 12.2928C75.8964 13.8453 76.1507 15.4525 76.9118 16.8376C77.673 18.2227 78.8934 19.2991 80.3627 19.8812V47.8945H68.0817V29.8376C68.0813 29.1741 67.8176 28.538 67.3485 28.0689C66.8794 27.5997 66.2432 27.336 65.5798 27.3356H49.0955V19.8812C50.5648 19.2991 51.7852 18.2227 52.5464 16.8376C53.3075 15.4525 53.5618 13.8453 53.2655 12.2928C52.9692 10.7403 52.1407 9.33982 50.9229 8.33245C49.705 7.32508 48.174 6.77393 46.5935 6.77393C45.013 6.77393 43.482 7.32508 42.2642 8.33245C41.0463 9.33982 40.2179 10.7403 39.9215 12.2928C39.6252 13.8453 39.8795 15.4525 40.6407 16.8376C41.4018 18.2227 42.6222 19.2991 44.0916 19.8812V29.8376C44.0919 30.501 44.3557 31.1372 44.8248 31.6063C45.2939 32.0754 45.9301 32.3392 46.5935 32.3395H63.0778V47.8945H50.3965C49.733 47.8949 49.0969 48.1586 48.6278 48.6278C48.1586 49.0969 47.8949 49.733 47.8945 50.3965V63.0778H32.3395V46.5935C32.3392 45.9301 32.0754 45.2939 31.6063 44.8248C31.1372 44.3557 30.501 44.0919 29.8376 44.0916H19.8827C19.3005 42.6226 18.2244 41.4026 16.8395 40.6417C15.4547 39.8808 13.8478 39.6267 12.2958 39.923C10.7437 40.2193 9.34353 41.0476 8.33643 42.2652C7.32932 43.4828 6.77832 45.0134 6.77832 46.5935C6.77832 48.1736 7.32932 49.7043 8.33643 50.9219C9.34353 52.1394 10.7437 52.9677 12.2958 53.264C13.8478 53.5604 15.4547 53.3062 16.8395 52.5453C18.2244 51.7844 19.3005 50.5644 19.8827 49.0955H27.3356V65.5798C27.336 66.2432 27.5997 66.8794 28.0689 67.3485C28.538 67.8176 29.1741 68.0813 29.8376 68.0817H47.8945V80.3627H19.8827C19.3005 78.8942 18.2245 77.6746 16.84 76.9139C15.4554 76.1533 13.849 75.8993 12.2973 76.1956C10.7456 76.4919 9.34581 77.3201 8.33898 78.5374C7.33214 79.7547 6.78129 81.285 6.78129 82.8647C6.78129 84.4444 7.33214 85.9747 8.33898 87.192C9.34581 88.4093 10.7456 89.2374 12.2973 89.5338C13.849 89.8301 15.4554 89.5761 16.84 88.8154C18.2245 88.0548 19.3005 86.8352 19.8827 85.3666H47.8945V97.6334H19.8812C19.2991 96.164 18.2227 94.9436 16.8376 94.1825C15.4525 93.4213 13.8453 93.167 12.2928 93.4633C10.7403 93.7597 9.33982 94.5881 8.33245 95.806C7.32508 97.0238 6.77393 98.5548 6.77393 100.135C6.77393 101.716 7.32508 103.247 8.33245 104.465C9.33982 105.683 10.7403 106.511 12.2928 106.807C13.8453 107.104 15.4525 106.849 16.8376 106.088C18.2227 105.327 19.2991 104.107 19.8812 102.637H47.8945V114.918H29.8376C29.1741 114.919 28.538 115.182 28.0689 115.652C27.5997 116.121 27.336 116.757 27.3356 117.42V133.905H19.8812C19.2991 132.435 18.2227 131.215 16.8376 130.454C15.4525 129.692 13.8453 129.438 12.2928 129.735C10.7403 130.031 9.33982 130.859 8.33245 132.077C7.32508 133.295 6.77393 134.826 6.77393 136.406C6.77393 137.987 7.32508 139.518 8.33245 140.736C9.33982 141.954 10.7403 142.782 12.2928 143.078C13.8453 143.375 15.4525 143.12 16.8376 142.359C18.2227 141.598 19.2991 140.378 19.8812 138.908H29.8376C30.501 138.908 31.1372 138.644 31.6063 138.175C32.0754 137.706 32.3392 137.07 32.3395 136.406V119.922H47.8945V132.604C47.8949 133.267 48.1586 133.903 48.6278 134.372C49.0969 134.841 49.733 135.105 50.3965 135.105H63.0778V150.66H46.5935C45.9301 150.661 45.2939 150.925 44.8248 151.394C44.3557 151.863 44.0919 152.499 44.0916 153.162V163.119C42.623 163.701 41.4034 164.777 40.6428 166.161C39.8822 167.546 39.6281 169.152 39.9245 170.704C40.2208 172.256 41.0489 173.656 42.2662 174.662C43.4835 175.669 45.0138 176.22 46.5935 176.22C48.1732 176.22 49.7035 175.669 50.9208 174.662C52.1381 173.656 52.9663 172.256 53.2626 170.704C53.5589 169.152 53.3049 167.546 52.5443 166.161C51.7836 164.777 50.564 163.701 49.0955 163.119V155.664H65.5798C66.2432 155.664 66.8794 155.4 67.3485 154.931C67.8176 154.462 68.0813 153.826 68.0817 153.162V135.105H80.3627V163.117C78.8942 163.699 77.6746 164.775 76.9139 166.16C76.1533 167.545 75.8993 169.151 76.1956 170.703C76.4919 172.254 77.3201 173.654 78.5374 174.661C79.7547 175.668 81.285 176.219 82.8647 176.219C84.4444 176.219 85.9747 175.668 87.192 174.661C88.4093 173.654 89.2374 172.254 89.5338 170.703C89.8301 169.151 89.5761 167.545 88.8154 166.16C88.0548 164.775 86.8352 163.699 85.3666 163.117V135.105H97.6334V163.119C96.164 163.701 94.9436 164.777 94.1825 166.162C93.4213 167.548 93.167 169.155 93.4633 170.707C93.7597 172.26 94.5881 173.66 95.806 174.668C97.0238 175.675 98.5548 176.226 100.135 176.226C101.716 176.226 103.247 175.675 104.465 174.668C105.683 173.66 106.511 172.26 106.807 170.707C107.104 169.155 106.849 167.548 106.088 166.162C105.327 164.777 104.107 163.701 102.637 163.119V135.105H114.918V153.162C114.919 153.826 115.182 154.462 115.652 154.931C116.121 155.4 116.757 155.664 117.42 155.664H133.905V163.119C132.436 163.701 131.216 164.777 130.455 166.162C129.694 167.547 129.44 169.154 129.736 170.706C130.032 172.258 130.861 173.658 132.078 174.665C133.296 175.672 134.826 176.223 136.406 176.223C137.987 176.223 139.517 175.672 140.735 174.665C141.952 173.658 142.781 172.258 143.077 170.706C143.373 169.154 143.119 167.547 142.358 166.162C141.597 164.777 140.377 163.701 138.908 163.119V153.162C138.908 152.499 138.644 151.863 138.175 151.394C137.706 150.925 137.07 150.661 136.406 150.66H119.922V135.105H132.604C133.267 135.105 133.903 134.841 134.372 134.372C134.841 133.903 135.105 133.267 135.105 132.604V119.922H150.66V136.406C150.661 137.07 150.925 137.706 151.394 138.175C151.863 138.644 152.499 138.908 153.162 138.908H163.119C163.701 140.377 164.777 141.597 166.161 142.357C167.546 143.118 169.152 143.372 170.704 143.076C172.256 142.779 173.656 141.951 174.662 140.734C175.669 139.517 176.22 137.986 176.22 136.406C176.22 134.827 175.669 133.296 174.662 132.079C173.656 130.862 172.256 130.034 170.704 129.737C169.152 129.441 167.546 129.695 166.161 130.456C164.777 131.216 163.701 132.436 163.119 133.905H155.664V117.42C155.664 116.757 155.4 116.121 154.931 115.652C154.462 115.182 153.826 114.919 153.162 114.918H135.105V102.637H163.117C163.699 104.106 164.775 105.325 166.16 106.086C167.545 106.847 169.151 107.101 170.703 106.804C172.254 106.508 173.654 105.68 174.661 104.463C175.668 103.245 176.219 101.715 176.219 100.135C176.219 98.5556 175.668 97.0253 174.661 95.808C173.654 94.5907 172.254 93.7626 170.703 93.4662C169.151 93.1699 167.545 93.4239 166.16 94.1846C164.775 94.9452 163.699 96.1648 163.117 97.6334H135.105V85.3666ZM169.418 81.0776C169.771 81.0776 170.117 81.1824 170.411 81.3788C170.705 81.5751 170.934 81.8542 171.069 82.1808C171.204 82.5073 171.24 82.8667 171.171 83.2133C171.102 83.56 170.932 83.8784 170.682 84.1284C170.432 84.3783 170.113 84.5485 169.767 84.6175C169.42 84.6864 169.061 84.651 168.734 84.5158C168.408 84.3805 168.128 84.1514 167.932 83.8576C167.736 83.5637 167.631 83.2181 167.631 82.8647C167.631 82.3905 167.819 81.9356 168.154 81.6C168.489 81.2644 168.944 81.0755 169.418 81.0747V81.0776ZM169.418 44.8078C169.771 44.8078 170.117 44.9126 170.411 45.109C170.705 45.3054 170.934 45.5845 171.069 45.911C171.204 46.2376 171.24 46.5969 171.171 46.9436C171.102 47.2903 170.932 47.6087 170.682 47.8586C170.432 48.1086 170.113 48.2788 169.767 48.3477C169.42 48.4167 169.061 48.3813 168.734 48.246C168.408 48.1108 168.128 47.8817 167.932 47.5878C167.736 47.2939 167.631 46.9484 167.631 46.5949C167.631 46.1207 167.819 45.6659 168.154 45.3303C168.489 44.9947 168.944 44.8057 169.418 44.805V44.8078ZM136.408 11.7949C136.761 11.7949 137.107 11.8997 137.401 12.0961C137.695 12.2925 137.924 12.5716 138.059 12.8981C138.194 13.2247 138.23 13.584 138.161 13.9307C138.092 14.2773 137.922 14.5958 137.672 14.8457C137.422 15.0956 137.103 15.2658 136.757 15.3348C136.41 15.4038 136.051 15.3684 135.724 15.2331C135.397 15.0978 135.118 14.8688 134.922 14.5749C134.726 14.281 134.621 13.9355 134.621 13.582C134.622 13.1083 134.81 12.6542 135.145 12.3192C135.48 11.9842 135.934 11.7957 136.408 11.7949ZM100.138 11.7949C100.492 11.7949 100.837 11.8997 101.131 12.0961C101.425 12.2925 101.654 12.5716 101.789 12.8981C101.925 13.2247 101.96 13.584 101.891 13.9307C101.822 14.2773 101.652 14.5958 101.402 14.8457C101.152 15.0956 100.833 15.2658 100.487 15.3348C100.14 15.4038 99.7808 15.3684 99.4543 15.2331C99.1277 15.0978 98.8486 14.8688 98.6522 14.5749C98.4559 14.281 98.3511 13.9355 98.3511 13.582C98.3518 13.1083 98.5403 12.6542 98.8753 12.3192C99.2103 11.9842 99.6644 11.7957 100.138 11.7949ZM82.8618 11.7949C83.2153 11.7949 83.5608 11.8997 83.8547 12.0961C84.1486 12.2925 84.3776 12.5716 84.5129 12.8981C84.6482 13.2247 84.6836 13.584 84.6146 13.9307C84.5456 14.2773 84.3754 14.5958 84.1255 14.8457C83.8756 15.0956 83.5571 15.2658 83.2105 15.3348C82.8638 15.4038 82.5045 15.3684 82.1779 15.2331C81.8514 15.0978 81.5723 14.8688 81.3759 14.5749C81.1795 14.281 81.0747 13.9355 81.0747 13.582C81.0751 13.1082 81.2635 12.6538 81.5986 12.3188C81.9336 11.9837 82.388 11.7953 82.8618 11.7949ZM46.5921 11.7949C46.9455 11.7949 47.2911 11.8997 47.585 12.0961C47.8788 12.2925 48.1079 12.5716 48.2432 12.8981C48.3784 13.2247 48.4138 13.584 48.3449 13.9307C48.2759 14.2773 48.1057 14.5958 47.8558 14.8457C47.6058 15.0956 47.2874 15.2658 46.9407 15.3348C46.5941 15.4038 46.2347 15.3684 45.9082 15.2331C45.5816 15.0978 45.3025 14.8688 45.1062 14.5749C44.9098 14.281 44.805 13.9355 44.805 13.582C44.8054 13.1082 44.9938 12.6538 45.3288 12.3188C45.6639 11.9837 46.1182 11.7953 46.5921 11.7949ZM13.582 48.3792C13.2286 48.3792 12.8831 48.2744 12.5892 48.078C12.2953 47.8816 12.0662 47.6025 11.931 47.276C11.7957 46.9494 11.7603 46.5901 11.8293 46.2434C11.8982 45.8968 12.0684 45.5783 12.3184 45.3284C12.5683 45.0785 12.8867 44.9083 13.2334 44.8393C13.5801 44.7704 13.9394 44.8058 14.2659 44.941C14.5925 45.0763 14.8716 45.3053 15.068 45.5992C15.2643 45.8931 15.3691 46.2386 15.3691 46.5921C15.3688 47.0659 15.1804 47.5203 14.8453 47.8553C14.5102 48.1904 14.0559 48.3788 13.582 48.3792ZM13.582 84.6489C13.2286 84.6489 12.8831 84.5441 12.5892 84.3478C12.2953 84.1514 12.0662 83.8723 11.931 83.5457C11.7957 83.2192 11.7603 82.8598 11.8293 82.5132C11.8982 82.1665 12.0684 81.8481 12.3184 81.5982C12.5683 81.3482 12.8867 81.178 13.2334 81.1091C13.5801 81.0401 13.9394 81.0755 14.2659 81.2108C14.5925 81.346 14.8716 81.5751 15.068 81.869C15.2643 82.1629 15.3691 82.5084 15.3691 82.8618C15.3688 83.3357 15.1804 83.79 14.8453 84.1251C14.5102 84.4602 14.0559 84.6486 13.582 84.6489ZM13.582 101.925C13.2286 101.925 12.8831 101.82 12.5892 101.624C12.2953 101.428 12.0662 101.149 11.931 100.822C11.7957 100.496 11.7603 100.136 11.8293 99.7895C11.8982 99.4429 12.0684 99.1244 12.3184 98.8745C12.5683 98.6246 12.8867 98.4544 13.2334 98.3854C13.5801 98.3164 13.9394 98.3518 14.2659 98.4871C14.5925 98.6224 14.8716 98.8514 15.068 99.1453C15.2643 99.4392 15.3691 99.7847 15.3691 100.138C15.3684 100.612 15.1799 101.066 14.8449 101.401C14.5099 101.736 14.0558 101.925 13.582 101.925ZM13.582 138.195C13.2286 138.195 12.8831 138.09 12.5892 137.894C12.2953 137.697 12.0662 137.418 11.931 137.092C11.7957 136.765 11.7603 136.406 11.8293 136.059C11.8982 135.713 12.0684 135.394 12.3184 135.144C12.5683 134.894 12.8867 134.724 13.2334 134.655C13.5801 134.586 13.9394 134.622 14.2659 134.757C14.5925 134.892 14.8716 135.121 15.068 135.415C15.2643 135.709 15.3691 136.054 15.3691 136.408C15.3684 136.882 15.1799 137.336 14.8449 137.671C14.5099 138.006 14.0558 138.194 13.582 138.195ZM46.5921 171.205C46.2386 171.205 45.8931 171.1 45.5992 170.904C45.3053 170.708 45.0763 170.428 44.941 170.102C44.8058 169.775 44.7704 169.416 44.8393 169.069C44.9083 168.723 45.0785 168.404 45.3284 168.154C45.5783 167.904 45.8968 167.734 46.2434 167.665C46.5901 167.596 46.9494 167.632 47.276 167.767C47.6025 167.902 47.8816 168.131 48.078 168.425C48.2744 168.719 48.3792 169.065 48.3792 169.418C48.3784 169.892 48.1899 170.346 47.8549 170.681C47.5199 171.016 47.0658 171.204 46.5921 171.205ZM82.8618 171.205C82.5084 171.205 82.1629 171.1 81.869 170.904C81.5751 170.708 81.346 170.428 81.2108 170.102C81.0755 169.775 81.0401 169.416 81.1091 169.069C81.178 168.723 81.3482 168.404 81.5982 168.154C81.8481 167.904 82.1665 167.734 82.5132 167.665C82.8598 167.596 83.2192 167.632 83.5457 167.767C83.8723 167.902 84.1514 168.131 84.3478 168.425C84.5441 168.719 84.6489 169.065 84.6489 169.418C84.6482 169.892 84.4597 170.346 84.1247 170.681C83.7897 171.016 83.3356 171.204 82.8618 171.205ZM100.138 171.205C99.7847 171.205 99.4392 171.1 99.1453 170.904C98.8514 170.708 98.6224 170.428 98.4871 170.102C98.3518 169.775 98.3164 169.416 98.3854 169.069C98.4544 168.723 98.6246 168.404 98.8745 168.154C99.1244 167.904 99.4429 167.734 99.7895 167.665C100.136 167.596 100.496 167.632 100.822 167.767C101.149 167.902 101.428 168.131 101.624 168.425C101.82 168.719 101.925 169.065 101.925 169.418C101.925 169.892 101.736 170.346 101.401 170.681C101.066 171.016 100.612 171.205 100.138 171.205ZM136.408 171.205C136.054 171.205 135.709 171.1 135.415 170.904C135.121 170.708 134.892 170.428 134.757 170.102C134.622 169.775 134.586 169.416 134.655 169.069C134.724 168.723 134.894 168.404 135.144 168.154C135.394 167.904 135.713 167.734 136.059 167.665C136.406 167.596 136.765 167.632 137.092 167.767C137.418 167.902 137.697 168.131 137.894 168.425C138.09 168.719 138.195 169.065 138.195 169.418C138.195 169.892 138.006 170.346 137.671 170.681C137.336 171.016 136.882 171.205 136.408 171.205ZM169.418 134.621C169.771 134.621 170.117 134.726 170.411 134.922C170.705 135.118 170.934 135.397 171.069 135.724C171.204 136.051 171.24 136.41 171.171 136.757C171.102 137.103 170.932 137.422 170.682 137.672C170.432 137.922 170.113 138.092 169.767 138.161C169.42 138.23 169.061 138.194 168.734 138.059C168.408 137.924 168.128 137.695 167.932 137.401C167.736 137.107 167.631 136.761 167.631 136.408C167.631 135.934 167.82 135.48 168.155 135.145C168.49 134.81 168.944 134.621 169.418 134.621ZM169.418 98.3511C169.771 98.3511 170.117 98.4559 170.411 98.6522C170.705 98.8486 170.934 99.1277 171.069 99.4543C171.204 99.7808 171.24 100.14 171.171 100.487C171.102 100.833 170.932 101.152 170.682 101.402C170.432 101.652 170.113 101.822 169.767 101.891C169.42 101.96 169.061 101.925 168.734 101.789C168.408 101.654 168.128 101.425 167.932 101.131C167.736 100.837 167.631 100.492 167.631 100.138C167.631 99.6643 167.82 99.21 168.155 98.8749C168.49 98.5398 168.944 98.3514 169.418 98.3511ZM130.102 130.102H52.8984V52.8984H130.102V130.102Z" fill="white"/>
<path id="Vector_2" d="M119.736 60.7617H63.2637C62.6002 60.7621 61.9641 61.0258 61.4949 61.4949C61.0258 61.9641 60.7621 62.6002 60.7617 63.2637V119.736C60.7621 120.4 61.0258 121.036 61.4949 121.505C61.9641 121.974 62.6002 122.238 63.2637 122.238H119.736C120.4 122.238 121.036 121.974 121.505 121.505C121.974 121.036 122.238 120.4 122.238 119.736V63.2637C122.238 62.6002 121.974 61.9641 121.505 61.4949C121.036 61.0258 120.4 60.7621 119.736 60.7617ZM117.234 117.234H65.7656V65.7656H117.234V117.234Z" fill="white"/>
<path id="Vector_3" d="M111.158 95.1929C111.822 95.1925 112.458 94.9288 112.927 94.4596C113.396 93.9905 113.66 93.3544 113.66 92.6909V78.5728C113.66 77.9092 113.397 77.2728 112.927 76.8036C112.458 76.3344 111.822 76.0708 111.158 76.0708C110.495 76.0708 109.858 76.3344 109.389 76.8036C108.92 77.2728 108.656 77.9092 108.656 78.5728V92.6909C108.657 93.3544 108.92 93.9905 109.389 94.4596C109.859 94.9288 110.495 95.1925 111.158 95.1929Z" fill="white"/>
</g>
</g>
</svg>
