<svg width="216" height="216" viewBox="0 0 216 216" fill="none" xmlns="http://www.w3.org/2000/svg">
<g id="3d-computer 1" clip-path="url(#clip0_7031_32896)">
<g id="Group">
<g id="Group_2">
<path id="Vector" d="M82.2724 176.197L76.8576 173.071C75.619 172.356 74.8799 171.075 74.8799 169.645C74.8799 168.215 75.619 166.935 76.8576 166.22L132.207 134.264C133.241 133.667 133.852 132.598 133.843 131.404C133.833 130.21 133.204 129.151 132.161 128.571L115.681 119.407L116.7 117.575L133.18 126.738C134.892 127.69 135.924 129.428 135.939 131.387C135.955 133.346 134.952 135.1 133.255 136.08L77.906 168.035C77.3242 168.371 76.9766 168.973 76.9766 169.645C76.9766 170.317 77.3238 170.919 77.906 171.255L83.3208 174.382L82.2724 176.197Z" fill="#C5BAEB"/>
</g>
<g id="Group_3">
<path id="Vector_2" d="M107.389 121.872L106.341 120.056L140.004 100.621C144.971 97.7532 151.142 97.754 156.108 100.621L183.17 116.246L182.122 118.061L155.06 102.437C150.741 99.9423 145.373 99.9419 141.052 102.437L107.389 121.872Z" fill="#C5BAEB"/>
</g>
<path id="Vector_3" d="M93.6959 7.25659H62.6577C59.7649 7.25659 56.9232 8.01808 54.4181 9.46426L7.22123 36.7136C2.75273 39.2934 0 44.0614 0 49.2209V95.3285C0 102.991 3.15436 110.315 8.72142 115.579L19.8914 126.142L93.6959 7.25659Z" fill="url(#paint0_linear_7031_32896)"/>
<g id="Group_4">
<path id="Vector_4" d="M118.066 126.365C118.064 126.225 118.066 116.832 118.066 116.832L26.0332 125.272V134.237L26.0357 134.237C26.056 140.32 29.7385 146.126 37.2572 150.467C53.8985 160.075 82.9665 158.87 102.182 147.776C112.673 141.719 118.045 133.968 118.065 126.613V126.365H118.066Z" fill="url(#paint1_linear_7031_32896)"/>
<path id="Vector_5" d="M102.183 138.361C121.399 127.267 123.486 110.484 106.844 100.876C90.2027 91.2684 61.1346 92.4732 41.9186 103.567C22.7027 114.662 20.6156 131.444 37.2573 141.052C53.8986 150.66 82.9667 149.455 102.183 138.361Z" fill="url(#paint2_linear_7031_32896)"/>
</g>
<path id="Vector_6" d="M135.367 22.2978L100.679 1.86721C99.7443 1.25507 98.4951 1.27194 97.1219 2.06464L23.3718 44.6441C20.4757 46.3164 18.1279 50.8018 18.1279 54.6632V133.99C18.1279 136.272 18.9476 137.824 20.2154 138.368L52.4053 157.341L54.3699 158.491L135.367 22.2978Z" fill="url(#paint3_linear_7031_32896)"/>
<path id="Vector_7" d="M131.775 22.4707L58.0252 65.0506C55.129 66.7225 52.7812 71.2083 52.7812 75.0697V154.397C52.7812 158.258 55.129 160.033 58.0252 158.361L131.775 115.781C134.671 114.109 137.019 109.623 137.019 105.762V26.4351C137.019 22.5737 134.671 20.7988 131.775 22.4707Z" fill="url(#paint4_linear_7031_32896)"/>
<path id="Vector_8" d="M128.162 29.9848L61.6392 68.3919C59.027 69.9001 56.9092 73.9463 56.9092 77.4293V136.679C56.9092 140.162 59.027 141.763 61.6392 140.255L128.162 101.848C130.774 100.34 132.892 96.2935 132.892 92.8105V33.5606C132.892 30.0776 130.774 28.4766 128.162 29.9848Z" fill="url(#paint5_linear_7031_32896)"/>
<path id="Vector_9" d="M132.892 107.23L118.771 115.382V119.153L132.892 111.001V107.23Z" fill="#43386B"/>
<g id="Group_5">
<path id="Vector_10" d="M207.048 157.468L207.046 151.762L62.1865 182.267V187.943L62.1891 187.942C62.2047 188.519 62.6189 189.123 63.4403 189.597L105.419 213.833C106.949 214.717 109.264 214.813 110.589 214.047L206.153 158.873C206.797 158.502 207.082 157.995 207.037 157.471L207.048 157.468Z" fill="url(#paint6_linear_7031_32896)"/>
<path id="Vector_11" d="M158.634 125.628L63.0694 180.803C61.7443 181.568 61.9105 182.904 63.4406 183.788L105.419 208.024C106.949 208.908 109.264 209.004 110.589 208.239L206.154 153.065C207.479 152.299 207.313 150.963 205.783 150.079L163.804 125.843C162.274 124.959 159.959 124.864 158.634 125.628Z" fill="url(#paint7_linear_7031_32896)"/>
<g id="Group_6">
<path id="Vector_12" d="M80.7905 181.327L70.0762 180.752L70.0774 181.896H70.0821C70.0766 182.102 70.2192 182.319 70.5132 182.489L74.8986 185.021C75.4272 185.326 76.2263 185.359 76.684 185.095L80.4817 182.903C80.6792 182.789 80.7749 182.638 80.7842 182.479L80.7905 182.479V181.327Z" fill="url(#paint8_linear_7031_32896)"/>
<path id="Vector_13" d="M87.6265 177.38L76.9121 176.806L76.9134 177.949H76.918C76.9125 178.155 77.0551 178.373 77.3492 178.543L81.7346 181.075C82.2632 181.38 83.0622 181.413 83.5199 181.148L87.3177 178.956C87.5151 178.842 87.6109 178.691 87.6201 178.532L87.6265 178.532V177.38Z" fill="url(#paint9_linear_7031_32896)"/>
<path id="Vector_14" d="M94.4624 173.433L83.748 172.859L83.7493 174.003H83.7539C83.7485 174.208 83.8911 174.426 84.1851 174.596L88.5705 177.128C89.0991 177.433 89.8981 177.466 90.3559 177.202L94.1536 175.01C94.351 174.896 94.4468 174.744 94.4561 174.585L94.4624 174.586V173.433Z" fill="url(#paint10_linear_7031_32896)"/>
<path id="Vector_15" d="M101.298 169.487L90.584 168.912L90.5852 170.056H90.5899C90.5844 170.262 90.727 170.48 91.021 170.65L95.4064 173.181C95.935 173.486 96.7341 173.52 97.1918 173.256L100.99 171.063C101.187 170.949 101.283 170.798 101.292 170.639L101.298 170.639V169.487Z" fill="url(#paint11_linear_7031_32896)"/>
<path id="Vector_16" d="M108.134 165.541L97.4199 164.966L97.4212 166.11H97.4258C97.4203 166.316 97.5629 166.533 97.857 166.703L102.242 169.235C102.771 169.54 103.57 169.573 104.028 169.309L107.825 167.117C108.023 167.003 108.119 166.851 108.128 166.692L108.134 166.693V165.541Z" fill="url(#paint12_linear_7031_32896)"/>
<path id="Vector_17" d="M114.97 161.594L104.256 161.02L104.257 162.163H104.262C104.256 162.369 104.399 162.587 104.693 162.757L109.078 165.288C109.607 165.594 110.406 165.627 110.864 165.363L114.661 163.17C114.859 163.056 114.955 162.905 114.964 162.746L114.97 162.746V161.594Z" fill="url(#paint13_linear_7031_32896)"/>
<path id="Vector_18" d="M121.805 157.647L111.091 157.073L111.092 158.216H111.097C111.091 158.422 111.234 158.64 111.528 158.81L115.913 161.342C116.442 161.647 117.241 161.68 117.699 161.416L121.496 159.223C121.694 159.11 121.79 158.958 121.799 158.799L121.805 158.799V157.647Z" fill="url(#paint14_linear_7031_32896)"/>
<path id="Vector_19" d="M128.642 153.701L117.928 153.126L117.929 154.27H117.934C117.928 154.476 118.071 154.693 118.365 154.864L122.75 157.395C123.279 157.7 124.078 157.733 124.536 157.469L128.333 155.277C128.531 155.163 128.626 155.011 128.636 154.852L128.642 154.853V153.701Z" fill="url(#paint15_linear_7031_32896)"/>
<path id="Vector_20" d="M135.478 149.754L124.764 149.179L124.765 150.323H124.77C124.764 150.529 124.907 150.747 125.201 150.917L129.586 153.448C130.115 153.753 130.914 153.787 131.371 153.523L135.169 151.33C135.367 151.216 135.462 151.065 135.472 150.906L135.478 150.906V149.754Z" fill="url(#paint16_linear_7031_32896)"/>
<path id="Vector_21" d="M142.313 145.808L131.599 145.233L131.6 146.377H131.605C131.599 146.582 131.742 146.8 132.036 146.97L136.421 149.502C136.95 149.807 137.749 149.84 138.206 149.576L142.004 147.384C142.202 147.27 142.297 147.118 142.307 146.959L142.313 146.96V145.808Z" fill="url(#paint17_linear_7031_32896)"/>
<path id="Vector_22" d="M88.9233 186.007L78.209 185.432L78.2102 186.576H78.2149C78.2094 186.782 78.352 186.999 78.646 187.169L83.0314 189.701C83.56 190.006 84.3591 190.039 84.8168 189.775L88.6145 187.582C88.812 187.469 88.9077 187.317 88.917 187.158L88.9233 187.158V186.007Z" fill="url(#paint18_linear_7031_32896)"/>
<path id="Vector_23" d="M95.7593 182.06L85.0449 181.485L85.0462 182.629H85.0508C85.0453 182.835 85.1879 183.053 85.482 183.223L89.8674 185.754C90.396 186.059 91.195 186.092 91.6528 185.828L95.4505 183.636C95.6479 183.522 95.7437 183.37 95.753 183.211L95.7593 183.212V182.06Z" fill="url(#paint19_linear_7031_32896)"/>
<path id="Vector_24" d="M102.594 178.113L91.8799 177.539L91.8812 178.683H91.8858C91.8803 178.888 92.0229 179.106 92.3169 179.276L96.7023 181.808C97.2309 182.113 98.03 182.146 98.4877 181.882L102.285 179.69C102.483 179.576 102.579 179.424 102.588 179.265L102.594 179.266V178.113Z" fill="url(#paint20_linear_7031_32896)"/>
<path id="Vector_25" d="M109.431 174.167L98.7168 173.592L98.7181 174.736H98.7227C98.7172 174.942 98.8598 175.159 99.1539 175.329L103.539 177.861C104.068 178.166 104.867 178.199 105.325 177.935L109.122 175.743C109.32 175.629 109.416 175.477 109.425 175.318L109.431 175.319V174.167Z" fill="url(#paint21_linear_7031_32896)"/>
<path id="Vector_26" d="M116.266 170.221L105.552 169.646L105.553 170.79H105.558C105.552 170.996 105.695 171.213 105.989 171.383L110.374 173.915C110.903 174.22 111.702 174.253 112.16 173.989L115.957 171.797C116.155 171.683 116.251 171.531 116.26 171.372L116.266 171.373V170.221Z" fill="url(#paint22_linear_7031_32896)"/>
<path id="Vector_27" d="M123.102 166.274L112.388 165.699L112.389 166.843H112.394C112.388 167.049 112.531 167.266 112.825 167.436L117.21 169.968C117.739 170.273 118.538 170.307 118.996 170.042L122.793 167.85C122.991 167.736 123.086 167.585 123.096 167.426L123.102 167.426V166.274Z" fill="url(#paint23_linear_7031_32896)"/>
<path id="Vector_28" d="M129.939 162.327L119.225 161.753L119.226 162.896H119.231C119.225 163.102 119.368 163.32 119.662 163.49L124.047 166.022C124.576 166.327 125.375 166.36 125.832 166.095L129.63 163.903C129.828 163.789 129.923 163.638 129.933 163.479L129.939 163.479V162.327Z" fill="url(#paint24_linear_7031_32896)"/>
<path id="Vector_29" d="M136.774 158.381L126.06 157.806L126.061 158.95H126.065C126.06 159.155 126.203 159.373 126.497 159.543L130.882 162.075C131.411 162.38 132.21 162.413 132.667 162.149L136.465 159.956C136.663 159.842 136.758 159.691 136.768 159.532L136.774 159.532V158.381Z" fill="url(#paint25_linear_7031_32896)"/>
<path id="Vector_30" d="M143.61 154.434L132.896 153.859L132.897 155.003H132.901C132.896 155.209 133.039 155.427 133.333 155.597L137.718 158.128C138.247 158.433 139.046 158.467 139.503 158.203L143.301 156.01C143.498 155.896 143.594 155.745 143.604 155.586L143.61 155.586V154.434Z" fill="url(#paint26_linear_7031_32896)"/>
<path id="Vector_31" d="M150.447 150.487L139.732 149.913L139.734 151.057H139.738C139.733 151.262 139.875 151.48 140.169 151.65L144.555 154.182C145.083 154.487 145.883 154.52 146.34 154.256L150.138 152.064C150.335 151.95 150.431 151.798 150.44 151.639L150.447 151.64V150.487Z" fill="url(#paint27_linear_7031_32896)"/>
<path id="Vector_32" d="M101.267 188.286L86.3408 190.143L86.3421 191.286H86.3467C86.3412 191.492 86.4838 191.71 86.7779 191.88L91.1633 194.412C91.6919 194.717 92.4909 194.75 92.9487 194.486L100.958 189.861C101.156 189.747 101.252 189.596 101.261 189.437L101.267 189.437V188.286Z" fill="url(#paint28_linear_7031_32896)"/>
<path id="Vector_33" d="M108.11 184.321L97.3955 183.746L97.3968 184.89H97.4014C97.3959 185.096 97.5385 185.314 97.8326 185.484L102.218 188.015C102.747 188.32 103.546 188.354 104.003 188.09L107.801 185.897C107.998 185.783 108.094 185.632 108.104 185.473L108.11 185.473V184.321Z" fill="url(#paint29_linear_7031_32896)"/>
<path id="Vector_34" d="M120.068 186.843L109.354 186.269L109.355 187.412H109.359C109.354 187.618 109.497 187.836 109.791 188.006L114.176 190.538C114.705 190.843 115.504 190.876 115.961 190.612L119.759 188.419C119.957 188.305 120.052 188.154 120.062 187.995L120.068 187.995V186.843Z" fill="url(#paint30_linear_7031_32896)"/>
<path id="Vector_35" d="M113.321 200.108L102.606 199.534L102.608 200.677H102.612C102.607 200.883 102.749 201.101 103.044 201.271L107.429 203.803C107.958 204.108 108.757 204.141 109.214 203.877L113.012 201.684C113.209 201.571 113.305 201.419 113.314 201.26L113.321 201.26V200.108Z" fill="url(#paint31_linear_7031_32896)"/>
<path id="Vector_36" d="M120.157 196.183L109.442 195.609L109.444 196.752H109.448C109.443 196.958 109.585 197.176 109.879 197.346L114.265 199.878C114.793 200.183 115.592 200.216 116.05 199.951L119.848 197.759C120.045 197.645 120.141 197.494 120.15 197.335L120.157 197.335V196.183Z" fill="url(#paint32_linear_7031_32896)"/>
<path id="Vector_37" d="M126.993 192.258L116.278 191.683L116.28 192.827H116.284C116.279 193.033 116.421 193.25 116.715 193.42L121.101 195.952C121.629 196.257 122.428 196.29 122.886 196.026L126.684 193.834C126.881 193.72 126.977 193.568 126.986 193.409L126.993 193.41V192.258Z" fill="url(#paint33_linear_7031_32896)"/>
<path id="Vector_38" d="M161.172 172.481L123.114 187.758L123.116 188.902H123.12C123.115 189.108 123.257 189.325 123.551 189.495L127.937 192.027C128.465 192.332 129.264 192.365 129.722 192.101L160.863 174.058C161.061 173.944 161.156 173.792 161.166 173.633L161.172 173.634V172.481Z" fill="url(#paint34_linear_7031_32896)"/>
<path id="Vector_39" d="M168.008 168.556L157.294 167.982L157.295 169.125H157.3C157.294 169.331 157.437 169.549 157.731 169.719L162.116 172.251C162.645 172.556 163.444 172.589 163.902 172.325L167.699 170.132C167.897 170.019 167.993 169.867 168.002 169.708L168.008 169.708V168.556Z" fill="url(#paint35_linear_7031_32896)"/>
<path id="Vector_40" d="M174.844 164.588L164.13 164.013L164.131 165.157H164.136C164.13 165.363 164.273 165.581 164.567 165.751L168.952 168.282C169.481 168.587 170.28 168.62 170.738 168.356L174.535 166.164C174.733 166.05 174.829 165.898 174.838 165.739L174.844 165.74V164.588Z" fill="url(#paint36_linear_7031_32896)"/>
<path id="Vector_41" d="M113.232 190.768L94.4736 194.838L94.4749 195.982H94.4795C94.4741 196.188 94.6166 196.405 94.9107 196.575L99.2961 199.107C99.8247 199.412 100.624 199.445 101.081 199.181L112.923 192.344C113.121 192.231 113.217 192.079 113.226 191.92L113.232 191.92V190.768Z" fill="url(#paint37_linear_7031_32896)"/>
<path id="Vector_42" d="M126.905 182.875L116.19 182.301L116.192 183.444H116.196C116.191 183.65 116.333 183.868 116.627 184.038L121.013 186.569C121.541 186.875 122.341 186.908 122.798 186.644L126.596 184.451C126.793 184.337 126.889 184.186 126.898 184.027L126.905 184.027V182.875Z" fill="url(#paint38_linear_7031_32896)"/>
<path id="Vector_43" d="M133.74 178.95L123.025 178.375L123.027 179.519H123.031C123.026 179.725 123.168 179.943 123.462 180.113L127.848 182.644C128.376 182.949 129.175 182.983 129.633 182.719L133.431 180.526C133.628 180.412 133.724 180.261 133.733 180.102L133.74 180.102V178.95Z" fill="url(#paint39_linear_7031_32896)"/>
<path id="Vector_44" d="M140.576 175.025L129.861 174.45L129.863 175.594H129.867C129.862 175.8 130.004 176.017 130.298 176.187L134.684 178.719C135.212 179.024 136.011 179.057 136.469 178.793L140.267 176.601C140.464 176.487 140.56 176.336 140.569 176.177L140.576 176.177V175.025Z" fill="url(#paint40_linear_7031_32896)"/>
<path id="Vector_45" d="M147.413 171.099L136.698 170.525L136.7 171.668H136.704C136.699 171.874 136.841 172.092 137.135 172.262L141.521 174.794C142.049 175.099 142.848 175.132 143.306 174.868L147.104 172.675C147.301 172.561 147.397 172.41 147.406 172.251L147.413 172.251V171.099Z" fill="url(#paint41_linear_7031_32896)"/>
<path id="Vector_46" d="M154.248 167.174L143.533 166.6L143.534 167.743H143.539C143.534 167.949 143.676 168.167 143.97 168.337L148.356 170.869C148.884 171.174 149.683 171.207 150.141 170.943L153.939 168.75C154.136 168.636 154.232 168.485 154.241 168.326L154.248 168.326V167.174Z" fill="url(#paint42_linear_7031_32896)"/>
<path id="Vector_47" d="M166.711 159.893L150.369 162.674L150.37 163.818H150.375C150.37 164.024 150.512 164.241 150.806 164.411L155.192 166.943C155.72 167.248 156.519 167.281 156.977 167.017L166.402 161.469C166.6 161.355 166.695 161.203 166.705 161.044L166.711 161.045V159.893Z" fill="url(#paint43_linear_7031_32896)"/>
<path id="Vector_48" d="M114.945 180.374L104.23 179.8L104.232 180.943H104.236C104.231 181.149 104.373 181.367 104.668 181.537L109.053 184.069C109.582 184.374 110.381 184.406 110.838 184.143L114.636 181.95C114.833 181.836 114.929 181.685 114.939 181.526L114.945 181.526V180.374Z" fill="url(#paint44_linear_7031_32896)"/>
<path id="Vector_49" d="M121.781 176.428L111.066 175.853L111.068 176.997H111.072C111.067 177.203 111.209 177.42 111.503 177.59L115.889 180.122C116.417 180.427 117.217 180.46 117.674 180.196L121.472 178.004C121.669 177.89 121.765 177.738 121.774 177.579L121.781 177.58V176.428Z" fill="url(#paint45_linear_7031_32896)"/>
<path id="Vector_50" d="M128.618 172.481L117.903 171.906L117.905 173.05H117.909C117.904 173.256 118.046 173.474 118.34 173.644L122.726 176.175C123.254 176.48 124.053 176.514 124.511 176.249L128.309 174.057C128.506 173.943 128.602 173.792 128.611 173.633L128.618 173.633V172.481Z" fill="url(#paint46_linear_7031_32896)"/>
<path id="Vector_51" d="M135.453 168.534L124.738 167.96L124.74 169.103H124.744C124.739 169.309 124.881 169.527 125.175 169.697L129.561 172.229C130.089 172.534 130.888 172.567 131.346 172.303L135.144 170.11C135.341 169.997 135.437 169.845 135.446 169.686L135.453 169.686V168.534Z" fill="url(#paint47_linear_7031_32896)"/>
<path id="Vector_52" d="M142.289 164.588L131.574 164.013L131.575 165.157H131.58C131.575 165.363 131.717 165.58 132.011 165.75L136.397 168.282C136.925 168.587 137.724 168.62 138.182 168.356L141.98 166.164C142.177 166.05 142.273 165.899 142.282 165.74L142.289 165.74V164.588Z" fill="url(#paint48_linear_7031_32896)"/>
<path id="Vector_53" d="M149.125 160.641L138.41 160.067L138.411 161.211H138.416C138.411 161.416 138.553 161.634 138.847 161.804L143.233 164.336C143.761 164.641 144.56 164.674 145.018 164.41L148.816 162.218C149.013 162.104 149.109 161.952 149.118 161.793L149.125 161.794V160.641Z" fill="url(#paint49_linear_7031_32896)"/>
<path id="Vector_54" d="M158.579 155.197L145.246 156.12L145.247 157.264H145.252C145.247 157.47 145.389 157.687 145.683 157.857L150.069 160.389C150.597 160.694 151.396 160.727 151.854 160.463L158.27 156.773C158.467 156.659 158.563 156.508 158.572 156.349L158.579 156.349V155.197Z" fill="url(#paint50_linear_7031_32896)"/>
<path id="Vector_55" d="M152.706 139.828L141.991 139.253L141.992 140.397H141.997C141.992 140.603 142.134 140.82 142.428 140.99L146.814 143.522C147.342 143.827 148.141 143.86 148.599 143.596L152.397 141.404C152.594 141.29 152.69 141.139 152.699 140.979L152.706 140.98V139.828Z" fill="url(#paint51_linear_7031_32896)"/>
<path id="Vector_56" d="M159.542 135.881L148.827 135.307L148.828 136.451H148.833C148.828 136.656 148.97 136.874 149.264 137.044L153.65 139.576C154.178 139.881 154.977 139.914 155.435 139.65L159.233 137.458C159.43 137.344 159.526 137.192 159.535 137.033L159.542 137.034V135.881Z" fill="url(#paint52_linear_7031_32896)"/>
<path id="Vector_57" d="M166.377 131.935L155.663 131.36L155.664 132.504H155.669C155.664 132.71 155.806 132.928 156.1 133.098L160.486 135.629C161.014 135.934 161.813 135.968 162.271 135.704L166.069 133.511C166.266 133.397 166.362 133.246 166.371 133.087L166.377 133.087V131.935Z" fill="url(#paint53_linear_7031_32896)"/>
<path id="Vector_58" d="M160.838 144.523L150.124 143.949L150.125 145.092H150.13C150.124 145.298 150.267 145.516 150.561 145.686L154.946 148.218C155.475 148.523 156.274 148.556 156.732 148.292L160.53 146.099C160.727 145.985 160.823 145.834 160.832 145.675L160.838 145.675V144.523Z" fill="url(#paint54_linear_7031_32896)"/>
<path id="Vector_59" d="M167.674 140.577L156.96 140.002L156.961 141.146H156.966C156.96 141.352 157.103 141.569 157.397 141.739L161.782 144.271C162.311 144.576 163.11 144.609 163.568 144.345L167.365 142.153C167.563 142.039 167.659 141.887 167.668 141.728L167.674 141.729V140.577Z" fill="url(#paint55_linear_7031_32896)"/>
<path id="Vector_60" d="M174.51 136.631L163.796 136.056L163.797 137.2H163.802C163.796 137.405 163.939 137.623 164.233 137.793L168.618 140.325C169.147 140.63 169.946 140.663 170.404 140.399L174.201 138.207C174.399 138.093 174.495 137.941 174.504 137.782L174.51 137.783V136.631Z" fill="url(#paint56_linear_7031_32896)"/>
<path id="Vector_61" d="M168.971 149.219L158.257 148.644L158.258 149.788H158.263C158.257 149.994 158.4 150.211 158.694 150.381L163.079 152.913C163.608 153.218 164.407 153.251 164.865 152.987L168.662 150.795C168.86 150.681 168.956 150.529 168.965 150.37L168.971 150.371V149.219Z" fill="url(#paint57_linear_7031_32896)"/>
<path id="Vector_62" d="M175.806 145.272L165.092 144.698L165.093 145.841H165.098C165.092 146.047 165.235 146.265 165.529 146.435L169.914 148.966C170.443 149.271 171.242 149.305 171.7 149.041L175.497 146.848C175.695 146.734 175.791 146.583 175.8 146.424L175.806 146.424V145.272Z" fill="url(#paint58_linear_7031_32896)"/>
<path id="Vector_63" d="M182.642 141.326L171.928 140.751L171.929 141.895H171.934C171.928 142.101 172.071 142.318 172.365 142.488L176.75 145.02C177.279 145.325 178.078 145.358 178.536 145.094L182.333 142.902C182.531 142.788 182.626 142.636 182.636 142.477L182.642 142.478V141.326Z" fill="url(#paint59_linear_7031_32896)"/>
<path id="Vector_64" d="M177.103 153.914L166.389 153.34L166.39 154.483H166.395C166.389 154.689 166.532 154.907 166.826 155.077L171.211 157.609C171.74 157.914 172.539 157.947 172.996 157.683L176.794 155.49C176.992 155.376 177.087 155.225 177.097 155.066L177.103 155.066V153.914Z" fill="url(#paint60_linear_7031_32896)"/>
<path id="Vector_65" d="M183.939 149.968L173.225 149.393L173.226 150.537H173.231C173.225 150.743 173.368 150.96 173.662 151.13L178.047 153.662C178.576 153.967 179.375 154 179.832 153.736L183.63 151.544C183.828 151.43 183.923 151.278 183.933 151.119L183.939 151.12V149.968Z" fill="url(#paint61_linear_7031_32896)"/>
<path id="Vector_66" d="M192.072 154.641L174.521 158.035L174.523 159.178H174.527C174.522 159.384 174.665 159.602 174.959 159.772L179.344 162.304C179.873 162.609 180.672 162.642 181.129 162.378L191.763 156.217C191.961 156.103 192.056 155.952 192.066 155.793L192.072 155.793V154.641Z" fill="url(#paint62_linear_7031_32896)"/>
<path id="Vector_67" d="M198.908 150.716L180.062 145.424L180.063 146.568H180.067C180.062 146.774 180.205 146.992 180.499 147.162L193.016 154.41C193.545 154.715 194.344 154.749 194.802 154.485L198.6 152.292C198.797 152.178 198.893 152.027 198.902 151.868L198.908 151.868V150.716Z" fill="url(#paint63_linear_7031_32896)"/>
</g>
<g id="Group_7">
<path id="Vector_68" d="M74.1829 178.11L70.3852 180.302C69.9275 180.566 69.9848 181.028 70.5134 181.333L74.8988 183.864C75.4274 184.169 76.2265 184.203 76.6842 183.938L80.4819 181.746C80.9397 181.482 80.8823 181.02 80.3537 180.715L75.9683 178.183C75.4397 177.879 74.6406 177.846 74.1829 178.11Z" fill="url(#paint64_linear_7031_32896)"/>
<path id="Vector_69" d="M81.0189 174.163L77.2211 176.355C76.7634 176.619 76.8208 177.081 77.3494 177.386L81.7348 179.918C82.2634 180.223 83.0624 180.256 83.5202 179.991L87.3179 177.799C87.7756 177.535 87.7182 177.073 87.1896 176.768L82.8042 174.237C82.276 173.932 81.4766 173.899 81.0189 174.163Z" fill="url(#paint65_linear_7031_32896)"/>
<path id="Vector_70" d="M87.8548 170.216L84.0571 172.409C83.5993 172.673 83.6567 173.134 84.1853 173.439L88.5707 175.971C89.0993 176.276 89.8984 176.309 90.3561 176.045L94.1538 173.853C94.6115 173.589 94.5542 173.127 94.0256 172.822L89.6402 170.29C89.1116 169.985 88.3125 169.952 87.8548 170.216Z" fill="url(#paint66_linear_7031_32896)"/>
<path id="Vector_71" d="M94.6907 166.27L90.893 168.462C90.4353 168.726 90.4926 169.188 91.0213 169.493L95.4067 172.024C95.9353 172.329 96.7343 172.363 97.192 172.098L100.99 169.906C101.447 169.642 101.39 169.18 100.861 168.875L96.4761 166.344C95.9475 166.038 95.148 166.006 94.6907 166.27Z" fill="url(#paint67_linear_7031_32896)"/>
<path id="Vector_72" d="M101.527 162.323L97.7289 164.516C97.2712 164.78 97.3286 165.241 97.8572 165.546L102.243 168.078C102.771 168.383 103.57 168.416 104.028 168.152L107.826 165.959C108.283 165.695 108.226 165.234 107.697 164.929L103.312 162.397C102.784 162.092 101.984 162.059 101.527 162.323Z" fill="url(#paint68_linear_7031_32896)"/>
<path id="Vector_73" d="M108.363 158.376L104.565 160.569C104.107 160.833 104.165 161.294 104.693 161.599L109.079 164.131C109.607 164.436 110.406 164.469 110.864 164.205L114.662 162.012C115.119 161.748 115.062 161.287 114.533 160.982L110.148 158.45C109.619 158.145 108.82 158.112 108.363 158.376Z" fill="url(#paint69_linear_7031_32896)"/>
<path id="Vector_74" d="M115.199 154.43L111.401 156.622C110.943 156.886 111 157.348 111.529 157.653L115.914 160.185C116.443 160.49 117.242 160.523 117.7 160.258L121.498 158.066C121.955 157.802 121.898 157.34 121.369 157.035L116.984 154.504C116.455 154.199 115.656 154.165 115.199 154.43Z" fill="url(#paint70_linear_7031_32896)"/>
<path id="Vector_75" d="M122.034 150.483L118.237 152.675C117.779 152.939 117.836 153.401 118.365 153.706L122.75 156.237C123.279 156.542 124.078 156.576 124.536 156.311L128.333 154.119C128.791 153.855 128.734 153.393 128.205 153.088L123.82 150.557C123.292 150.252 122.492 150.219 122.034 150.483Z" fill="url(#paint71_linear_7031_32896)"/>
<path id="Vector_76" d="M128.87 146.536L125.073 148.728C124.615 148.993 124.672 149.454 125.201 149.759L129.586 152.291C130.115 152.596 130.914 152.629 131.372 152.365L135.169 150.173C135.627 149.908 135.57 149.447 135.041 149.142L130.656 146.61C130.127 146.305 129.328 146.272 128.87 146.536Z" fill="url(#paint72_linear_7031_32896)"/>
<path id="Vector_77" d="M135.705 142.589L131.908 144.782C131.45 145.046 131.507 145.507 132.036 145.812L136.421 148.344C136.95 148.649 137.749 148.682 138.207 148.418L142.004 146.225C142.462 145.961 142.405 145.5 141.876 145.195L137.491 142.663C136.963 142.358 136.163 142.325 135.705 142.589Z" fill="url(#paint73_linear_7031_32896)"/>
<path id="Vector_78" d="M82.3157 182.805L78.518 184.998C78.0603 185.262 78.1176 185.723 78.6463 186.028L83.0317 188.56C83.5598 188.865 84.3593 188.898 84.817 188.634L88.6147 186.442C89.0725 186.178 89.0151 185.716 88.4865 185.411L84.1011 182.879C83.5729 182.574 82.7735 182.541 82.3157 182.805Z" fill="url(#paint74_linear_7031_32896)"/>
<path id="Vector_79" d="M89.1517 178.858L85.3539 181.051C84.8962 181.315 84.9536 181.776 85.4822 182.081L89.8676 184.613C90.3962 184.918 91.1952 184.951 91.653 184.687L95.4507 182.494C95.9084 182.23 95.851 181.769 95.3224 181.464L90.937 178.932C90.4084 178.627 89.609 178.594 89.1517 178.858Z" fill="url(#paint75_linear_7031_32896)"/>
<path id="Vector_80" d="M95.9866 174.912L92.1889 177.104C91.7312 177.368 91.7885 177.83 92.3172 178.135L96.7025 180.667C97.2312 180.972 98.0302 181.005 98.4879 180.74L102.286 178.548C102.743 178.284 102.686 177.822 102.157 177.517L97.772 174.986C97.2438 174.681 96.4444 174.648 95.9866 174.912Z" fill="url(#paint76_linear_7031_32896)"/>
<path id="Vector_81" d="M146.098 136.589L142.3 138.782C141.842 139.046 141.9 139.508 142.428 139.813L146.814 142.344C147.342 142.649 148.142 142.683 148.599 142.419L152.397 140.226C152.855 139.962 152.797 139.5 152.269 139.195L147.883 136.664C147.355 136.358 146.556 136.325 146.098 136.589Z" fill="url(#paint77_linear_7031_32896)"/>
<path id="Vector_82" d="M152.934 132.643L149.136 134.835C148.678 135.099 148.736 135.561 149.264 135.866L153.65 138.398C154.178 138.703 154.977 138.736 155.435 138.471L159.233 136.279C159.691 136.015 159.633 135.553 159.105 135.248L154.719 132.717C154.191 132.412 153.392 132.379 152.934 132.643Z" fill="url(#paint78_linear_7031_32896)"/>
<path id="Vector_83" d="M159.77 128.696L155.972 130.889C155.514 131.153 155.572 131.614 156.1 131.919L160.486 134.451C161.014 134.756 161.813 134.789 162.271 134.525L166.069 132.332C166.527 132.068 166.469 131.607 165.941 131.302L161.555 128.77C161.027 128.465 160.227 128.432 159.77 128.696Z" fill="url(#paint79_linear_7031_32896)"/>
<path id="Vector_84" d="M154.231 141.285L150.433 143.478C149.975 143.742 150.033 144.203 150.561 144.508L154.947 147.04C155.475 147.345 156.274 147.378 156.732 147.114L160.53 144.921C160.988 144.657 160.93 144.196 160.402 143.891L156.016 141.359C155.488 141.054 154.689 141.021 154.231 141.285Z" fill="url(#paint80_linear_7031_32896)"/>
<path id="Vector_85" d="M161.067 137.338L157.269 139.531C156.811 139.795 156.869 140.256 157.397 140.561L161.783 143.093C162.311 143.398 163.11 143.431 163.568 143.167L167.366 140.974C167.823 140.71 167.766 140.249 167.237 139.944L162.852 137.412C162.324 137.107 161.524 137.074 161.067 137.338Z" fill="url(#paint81_linear_7031_32896)"/>
<path id="Vector_86" d="M167.903 133.392L164.105 135.584C163.647 135.848 163.705 136.31 164.233 136.615L168.619 139.146C169.147 139.452 169.946 139.485 170.404 139.22L174.202 137.028C174.659 136.764 174.602 136.302 174.073 135.997L169.688 133.466C169.159 133.16 168.36 133.127 167.903 133.392Z" fill="url(#paint82_linear_7031_32896)"/>
<path id="Vector_87" d="M162.364 145.98L158.566 148.173C158.108 148.437 158.165 148.898 158.694 149.203L163.08 151.735C163.608 152.04 164.407 152.073 164.865 151.809L168.663 149.616C169.12 149.352 169.063 148.891 168.534 148.586L164.149 146.054C163.62 145.749 162.821 145.716 162.364 145.98Z" fill="url(#paint83_linear_7031_32896)"/>
<path id="Vector_88" d="M169.2 142.034L165.402 144.226C164.944 144.49 165.001 144.952 165.53 145.257L169.915 147.789C170.444 148.094 171.243 148.127 171.701 147.862L175.499 145.67C175.956 145.406 175.899 144.944 175.37 144.639L170.985 142.108C170.456 141.803 169.657 141.769 169.2 142.034Z" fill="url(#paint84_linear_7031_32896)"/>
<path id="Vector_89" d="M176.034 138.087L172.237 140.279C171.779 140.543 171.836 141.005 172.365 141.31L176.75 143.841C177.279 144.146 178.078 144.18 178.536 143.915L182.333 141.723C182.791 141.459 182.734 140.997 182.205 140.692L177.82 138.161C177.291 137.856 176.492 137.823 176.034 138.087Z" fill="url(#paint85_linear_7031_32896)"/>
<path id="Vector_90" d="M170.495 150.676L166.698 152.868C166.24 153.132 166.297 153.594 166.826 153.899L171.211 156.431C171.74 156.736 172.539 156.769 172.997 156.504L176.794 154.312C177.252 154.048 177.195 153.586 176.666 153.281L172.281 150.75C171.753 150.445 170.953 150.411 170.495 150.676Z" fill="url(#paint86_linear_7031_32896)"/>
<path id="Vector_91" d="M177.331 146.729L173.534 148.922C173.076 149.186 173.133 149.647 173.662 149.952L178.047 152.484C178.576 152.789 179.375 152.822 179.833 152.558L183.63 150.366C184.088 150.102 184.031 149.64 183.502 149.335L179.117 146.804C178.588 146.498 177.789 146.465 177.331 146.729Z" fill="url(#paint87_linear_7031_32896)"/>
<path id="Vector_92" d="M184.167 142.782L180.37 144.975C179.912 145.239 179.969 145.7 180.498 146.005L193.016 153.232C193.544 153.537 194.343 153.571 194.801 153.307L198.599 151.114C199.057 150.85 198.999 150.389 198.471 150.084L185.953 142.856C185.424 142.551 184.625 142.518 184.167 142.782Z" fill="url(#paint88_linear_7031_32896)"/>
<path id="Vector_93" d="M185.464 151.424L174.831 157.563C174.373 157.827 174.43 158.289 174.959 158.594L179.344 161.126C179.873 161.431 180.672 161.464 181.13 161.2L191.763 155.06C192.221 154.796 192.164 154.334 191.635 154.029L187.25 151.498C186.721 151.193 185.922 151.16 185.464 151.424Z" fill="url(#paint89_linear_7031_32896)"/>
<path id="Vector_94" d="M102.824 170.965L99.0258 173.158C98.5681 173.422 98.6255 173.883 99.1541 174.188L103.539 176.72C104.068 177.025 104.867 177.058 105.325 176.794L109.123 174.602C109.58 174.338 109.523 173.876 108.994 173.571L104.609 171.039C104.08 170.734 103.281 170.701 102.824 170.965Z" fill="url(#paint90_linear_7031_32896)"/>
<path id="Vector_95" d="M109.659 167.018L105.862 169.211C105.404 169.475 105.461 169.937 105.99 170.242L110.375 172.773C110.904 173.078 111.703 173.112 112.161 172.847L115.958 170.655C116.416 170.39 116.359 169.929 115.83 169.624L111.445 167.092C110.916 166.787 110.117 166.754 109.659 167.018Z" fill="url(#paint91_linear_7031_32896)"/>
<path id="Vector_96" d="M116.494 163.071L112.697 165.264C112.239 165.528 112.296 165.989 112.825 166.294L117.21 168.826C117.739 169.131 118.538 169.164 118.996 168.9L122.793 166.707C123.251 166.443 123.194 165.982 122.665 165.677L118.28 163.145C117.752 162.841 116.952 162.807 116.494 163.071Z" fill="url(#paint92_linear_7031_32896)"/>
<path id="Vector_97" d="M123.331 159.125L119.534 161.317C119.076 161.581 119.133 162.043 119.662 162.348L124.047 164.88C124.576 165.185 125.375 165.218 125.833 164.953L129.63 162.761C130.088 162.497 130.031 162.035 129.502 161.73L125.117 159.199C124.588 158.894 123.789 158.861 123.331 159.125Z" fill="url(#paint93_linear_7031_32896)"/>
<path id="Vector_98" d="M130.166 155.178L126.369 157.371C125.911 157.635 125.968 158.096 126.497 158.401L130.882 160.933C131.411 161.238 132.21 161.271 132.668 161.007L136.465 158.814C136.923 158.55 136.866 158.089 136.337 157.784L131.952 155.252C131.424 154.947 130.624 154.914 130.166 155.178Z" fill="url(#paint94_linear_7031_32896)"/>
<path id="Vector_99" d="M137.002 151.232L133.205 153.424C132.747 153.688 132.804 154.15 133.333 154.455L137.718 156.986C138.247 157.291 139.046 157.325 139.504 157.06L143.301 154.868C143.759 154.604 143.702 154.142 143.173 153.837L138.788 151.305C138.259 151 137.46 150.968 137.002 151.232Z" fill="url(#paint95_linear_7031_32896)"/>
<path id="Vector_100" d="M143.839 147.285L140.041 149.477C139.584 149.742 139.641 150.203 140.17 150.508L144.555 153.04C145.084 153.345 145.883 153.378 146.34 153.114L150.138 150.922C150.596 150.657 150.539 150.196 150.01 149.891L145.625 147.359C145.096 147.054 144.296 147.02 143.839 147.285Z" fill="url(#paint96_linear_7031_32896)"/>
<path id="Vector_101" d="M94.6605 185.069L86.6508 189.694C86.1931 189.958 86.2505 190.419 86.7791 190.724L91.1645 193.256C91.6931 193.561 92.4921 193.594 92.9498 193.33L100.96 188.705C101.417 188.441 101.36 187.979 100.831 187.674L96.4459 185.143C95.9173 184.838 95.1179 184.804 94.6605 185.069Z" fill="url(#paint97_linear_7031_32896)"/>
<path id="Vector_102" d="M101.496 181.122L97.6987 183.315C97.2409 183.579 97.2983 184.04 97.8269 184.345L102.212 186.877C102.741 187.182 103.54 187.215 103.998 186.951L107.795 184.759C108.253 184.495 108.196 184.033 107.667 183.728L103.282 181.196C102.754 180.891 101.954 180.858 101.496 181.122Z" fill="url(#paint98_linear_7031_32896)"/>
<path id="Vector_103" d="M108.332 177.175L104.535 179.368C104.077 179.632 104.134 180.093 104.663 180.398L109.048 182.93C109.577 183.235 110.376 183.268 110.834 183.004L114.631 180.811C115.089 180.547 115.032 180.086 114.503 179.781L110.118 177.249C109.589 176.944 108.79 176.911 108.332 177.175Z" fill="url(#paint99_linear_7031_32896)"/>
<path id="Vector_104" d="M115.167 173.229L111.37 175.421C110.912 175.685 110.969 176.147 111.498 176.452L115.883 178.983C116.412 179.288 117.211 179.322 117.669 179.057L121.466 176.865C121.924 176.601 121.867 176.139 121.338 175.834L116.953 173.302C116.424 172.998 115.625 172.964 115.167 173.229Z" fill="url(#paint100_linear_7031_32896)"/>
<path id="Vector_105" d="M122.003 169.282L118.206 171.474C117.748 171.738 117.805 172.2 118.334 172.505L122.719 175.037C123.248 175.342 124.047 175.375 124.505 175.111L128.302 172.918C128.76 172.654 128.703 172.193 128.174 171.888L123.789 169.356C123.26 169.051 122.461 169.018 122.003 169.282Z" fill="url(#paint101_linear_7031_32896)"/>
<path id="Vector_106" d="M128.84 165.335L125.042 167.528C124.585 167.792 124.642 168.253 125.171 168.558L129.556 171.09C130.085 171.395 130.884 171.428 131.341 171.164L135.139 168.971C135.597 168.707 135.54 168.246 135.011 167.941L130.626 165.409C130.097 165.104 129.297 165.071 128.84 165.335Z" fill="url(#paint102_linear_7031_32896)"/>
<path id="Vector_107" d="M135.675 161.389L131.877 163.581C131.42 163.845 131.477 164.307 132.006 164.612L136.391 167.143C136.92 167.448 137.719 167.482 138.176 167.217L141.974 165.025C142.432 164.761 142.374 164.299 141.846 163.994L137.46 161.462C136.932 161.157 136.133 161.124 135.675 161.389Z" fill="url(#paint103_linear_7031_32896)"/>
<path id="Vector_108" d="M142.511 157.441L138.713 159.634C138.256 159.898 138.313 160.359 138.842 160.664L143.227 163.196C143.756 163.501 144.555 163.535 145.012 163.27L148.81 161.078C149.268 160.814 149.21 160.352 148.682 160.047L144.296 157.516C143.768 157.211 142.969 157.177 142.511 157.441Z" fill="url(#paint104_linear_7031_32896)"/>
<path id="Vector_109" d="M151.971 151.98L145.549 155.688C145.092 155.952 145.149 156.413 145.678 156.718L150.063 159.25C150.592 159.555 151.391 159.588 151.848 159.324L158.27 155.616C158.728 155.352 158.67 154.891 158.142 154.586L153.756 152.054C153.228 151.749 152.429 151.716 151.971 151.98Z" fill="url(#paint105_linear_7031_32896)"/>
<path id="Vector_110" d="M106.625 187.551L94.7827 194.388C94.3249 194.652 94.3823 195.114 94.9109 195.419L99.2963 197.951C99.8249 198.256 100.624 198.289 101.082 198.024L112.924 191.188C113.381 190.923 113.324 190.462 112.795 190.157L108.41 187.625C107.881 187.32 107.082 187.287 106.625 187.551Z" fill="url(#paint106_linear_7031_32896)"/>
<path id="Vector_111" d="M113.46 183.605L109.663 185.797C109.205 186.061 109.262 186.523 109.791 186.828L114.176 189.36C114.705 189.665 115.504 189.698 115.962 189.434L119.759 187.241C120.217 186.977 120.16 186.516 119.631 186.211L115.246 183.679C114.717 183.374 113.918 183.341 113.46 183.605Z" fill="url(#paint107_linear_7031_32896)"/>
<path id="Vector_112" d="M120.297 179.658L116.499 181.851C116.042 182.115 116.099 182.576 116.628 182.881L121.013 185.413C121.542 185.718 122.341 185.751 122.798 185.487L126.596 183.294C127.054 183.03 126.997 182.569 126.468 182.264L122.083 179.732C121.554 179.427 120.755 179.394 120.297 179.658Z" fill="url(#paint108_linear_7031_32896)"/>
<path id="Vector_113" d="M127.133 175.711L123.335 177.904C122.878 178.168 122.935 178.629 123.464 178.934L127.849 181.466C128.378 181.771 129.177 181.804 129.634 181.54L133.432 179.347C133.89 179.083 133.832 178.622 133.304 178.317L128.918 175.785C128.39 175.48 127.59 175.447 127.133 175.711Z" fill="url(#paint109_linear_7031_32896)"/>
<path id="Vector_114" d="M133.968 171.765L130.17 173.957C129.713 174.221 129.77 174.683 130.299 174.988L134.684 177.519C135.213 177.824 136.012 177.858 136.469 177.593L140.267 175.401C140.725 175.137 140.667 174.675 140.139 174.37L135.753 171.838C135.225 171.534 134.426 171.501 133.968 171.765Z" fill="url(#paint110_linear_7031_32896)"/>
<path id="Vector_115" d="M140.805 167.818L137.007 170.011C136.55 170.275 136.607 170.736 137.136 171.041L141.521 173.573C142.05 173.878 142.849 173.911 143.306 173.647L147.104 171.454C147.562 171.19 147.504 170.729 146.976 170.424L142.59 167.892C142.062 167.587 141.263 167.554 140.805 167.818Z" fill="url(#paint111_linear_7031_32896)"/>
<path id="Vector_116" d="M147.64 163.871L143.842 166.064C143.384 166.328 143.442 166.789 143.97 167.094L148.356 169.626C148.884 169.931 149.684 169.964 150.141 169.7L153.939 167.507C154.397 167.243 154.339 166.782 153.811 166.477L149.425 163.945C148.897 163.64 148.098 163.607 147.64 163.871Z" fill="url(#paint112_linear_7031_32896)"/>
<path id="Vector_117" d="M160.103 156.675L150.678 162.117C150.22 162.381 150.278 162.843 150.806 163.148L155.192 165.679C155.72 165.984 156.519 166.018 156.977 165.754L166.402 160.312C166.86 160.048 166.803 159.586 166.274 159.281L161.889 156.75C161.36 156.444 160.561 156.411 160.103 156.675Z" fill="url(#paint113_linear_7031_32896)"/>
<path id="Vector_118" d="M106.713 196.891L102.915 199.084C102.458 199.348 102.515 199.81 103.044 200.115L107.429 202.646C107.958 202.951 108.757 202.985 109.214 202.72L113.012 200.528C113.47 200.263 113.413 199.802 112.884 199.497L108.499 196.965C107.97 196.66 107.171 196.627 106.713 196.891Z" fill="url(#paint114_linear_7031_32896)"/>
<path id="Vector_119" d="M113.549 192.944L109.751 195.137C109.294 195.401 109.351 195.862 109.88 196.167L114.265 198.699C114.794 199.004 115.593 199.037 116.05 198.773L119.848 196.58C120.306 196.316 120.249 195.855 119.72 195.55L115.334 193.018C114.806 192.714 114.006 192.68 113.549 192.944Z" fill="url(#paint115_linear_7031_32896)"/>
<path id="Vector_120" d="M120.385 188.998L116.587 191.19C116.13 191.454 116.187 191.916 116.716 192.221L121.101 194.753C121.63 195.058 122.429 195.091 122.886 194.826L126.684 192.634C127.142 192.37 127.084 191.908 126.556 191.603L122.17 189.072C121.642 188.767 120.843 188.734 120.385 188.998Z" fill="url(#paint116_linear_7031_32896)"/>
<path id="Vector_121" d="M161.401 165.318L157.603 167.51C157.145 167.774 157.203 168.236 157.731 168.541L162.117 171.072C162.645 171.377 163.444 171.411 163.902 171.146L167.7 168.954C168.157 168.69 168.1 168.228 167.571 167.923L163.186 165.391C162.658 165.086 161.858 165.053 161.401 165.318Z" fill="url(#paint117_linear_7031_32896)"/>
<path id="Vector_122" d="M168.237 161.371L164.439 163.563C163.981 163.827 164.039 164.289 164.567 164.594L168.953 167.126C169.481 167.431 170.28 167.464 170.738 167.199L174.536 165.007C174.993 164.743 174.936 164.281 174.407 163.976L170.022 161.445C169.493 161.14 168.694 161.107 168.237 161.371Z" fill="url(#paint118_linear_7031_32896)"/>
<path id="Vector_123" d="M154.564 169.264L123.423 187.244C122.966 187.508 123.023 187.969 123.552 188.274L127.937 190.806C128.466 191.111 129.265 191.144 129.722 190.88L160.863 172.9C161.321 172.636 161.264 172.175 160.735 171.87L156.35 169.338C155.822 169.033 155.022 169 154.564 169.264Z" fill="url(#paint119_linear_7031_32896)"/>
</g>
</g>
<g id="Group_8">
<path id="Vector_124" d="M172.196 118.714C172.196 118.114 172.369 117.53 172.696 117.027C173.367 115.997 174.641 114.211 176.075 113.07C178.187 111.389 183.324 108.213 186.5 107.652C189.676 107.092 201.605 106.161 207.316 108.777C213.027 111.393 216.577 117.74 215.923 121.663C215.269 125.586 207.983 132.125 198.736 132.218C192.307 132.283 181.989 127.883 176.297 125.194C173.791 124.01 172.196 121.486 172.196 118.714Z" fill="url(#paint120_linear_7031_32896)"/>
<path id="Vector_125" d="M192.512 117.37C184.22 115.593 175.508 118.333 172.249 119.547C172.533 121.983 174.045 124.129 176.298 125.194C181.981 127.878 192.275 132.268 198.706 132.217C204.763 128.96 202.011 119.406 192.512 117.37Z" fill="url(#paint121_linear_7031_32896)"/>
<path id="Vector_126" opacity="0.2" d="M214.742 116.045C213.204 120.679 208.457 123.015 206.483 123.806C206.066 123.973 205.594 123.858 205.301 123.518C204.385 122.454 202.474 120.319 200.161 118.204C196.736 115.072 193.783 114.387 187.185 114.026C182.338 113.761 176.156 115.562 172.954 116.64C172.861 116.777 172.773 116.908 172.696 117.027C172.63 117.128 172.576 117.234 172.522 117.342C175.454 116.323 182.067 114.274 187.156 114.55C194.192 114.934 196.675 115.727 199.808 118.591C202.02 120.614 203.924 122.733 204.897 123.859C205.334 124.364 206.041 124.534 206.659 124.279C208.638 123.464 212.84 121.342 214.746 117.419C214.956 116.988 214.961 116.48 214.745 116.052C214.744 116.05 214.742 116.048 214.742 116.045Z" fill="#7662BD"/>
<g id="Group_9" opacity="0.2">
<path id="Vector_127" d="M185.605 109.618L181.916 109.035C181.773 109.013 181.675 108.879 181.698 108.736C181.72 108.593 181.856 108.494 181.997 108.518L185.595 109.086C186.133 108.986 191.134 108.106 196.267 109.095C196.409 109.122 196.502 109.259 196.475 109.402C196.448 109.544 196.307 109.637 196.167 109.609C190.863 108.587 185.703 109.599 185.651 109.609L185.605 109.618Z" fill="#7662BD"/>
</g>
<path id="Vector_128" d="M179.692 110.627C179.692 110.627 180.182 108.683 182.19 108.076C184.198 107.469 185.599 109.352 185.599 109.352C183.636 109.56 181.699 109.973 179.822 110.585L179.692 110.627Z" fill="url(#paint122_linear_7031_32896)"/>
</g>
</g>
</g>
<defs>
<linearGradient id="paint0_linear_7031_32896" x1="31.5229" y1="52.8474" x2="38.9209" y2="40.0342" gradientUnits="userSpaceOnUse">
<stop offset="0.0319" stop-color="#A996EB"/>
<stop offset="0.3985" stop-color="#BFB3EB"/>
<stop offset="0.7651" stop-color="#D1C9EB"/>
<stop offset="1" stop-color="#D7D1EB"/>
</linearGradient>
<linearGradient id="paint1_linear_7031_32896" x1="58.3045" y1="136.893" x2="85.345" y2="136.893" gradientUnits="userSpaceOnUse">
<stop offset="0.0319" stop-color="#A996EB"/>
<stop offset="0.3985" stop-color="#BFB3EB"/>
<stop offset="0.7651" stop-color="#D1C9EB"/>
<stop offset="1" stop-color="#D7D1EB"/>
</linearGradient>
<linearGradient id="paint2_linear_7031_32896" x1="38.7478" y1="101.088" x2="98.5554" y2="136.784" gradientUnits="userSpaceOnUse">
<stop offset="0.0319" stop-color="#C5BAEB"/>
<stop offset="0.2465" stop-color="#D0C7EE"/>
<stop offset="0.7057" stop-color="#E2DDF4"/>
<stop offset="1" stop-color="#E9E5F6"/>
</linearGradient>
<linearGradient id="paint3_linear_7031_32896" x1="57.8327" y1="69.6456" x2="66.2322" y2="55.0969" gradientUnits="userSpaceOnUse">
<stop offset="0.0319" stop-color="#C5BAEB"/>
<stop offset="0.2465" stop-color="#D0C7EE"/>
<stop offset="0.7057" stop-color="#E2DDF4"/>
<stop offset="1" stop-color="#E9E5F6"/>
</linearGradient>
<linearGradient id="paint4_linear_7031_32896" x1="94.9004" y1="144.604" x2="94.9004" y2="-32.1988" gradientUnits="userSpaceOnUse">
<stop stop-color="#DFDAEF"/>
<stop offset="1" stop-color="white"/>
</linearGradient>
<linearGradient id="paint5_linear_7031_32896" x1="94.9007" y1="126.812" x2="94.9007" y2="64.0753" gradientUnits="userSpaceOnUse">
<stop stop-color="#43386B"/>
<stop offset="1" stop-color="#7662BD"/>
</linearGradient>
<linearGradient id="paint6_linear_7031_32896" x1="105.768" y1="183.163" x2="113.265" y2="183.163" gradientUnits="userSpaceOnUse">
<stop offset="0.0319" stop-color="#7662BD"/>
<stop offset="0.3421" stop-color="#8B78D0"/>
<stop offset="0.7429" stop-color="#A18EE4"/>
<stop offset="1" stop-color="#A996EB"/>
</linearGradient>
<linearGradient id="paint7_linear_7031_32896" x1="185.068" y1="195.979" x2="142.616" y2="122.452" gradientUnits="userSpaceOnUse">
<stop offset="0.0319" stop-color="#C5BAEB"/>
<stop offset="0.2465" stop-color="#D0C7EE"/>
<stop offset="0.7057" stop-color="#E2DDF4"/>
<stop offset="1" stop-color="#E9E5F6"/>
</linearGradient>
<linearGradient id="paint8_linear_7031_32896" x1="75.007" y1="183.013" x2="76.7912" y2="183.013" gradientUnits="userSpaceOnUse">
<stop offset="0.0319" stop-color="#A996EB"/>
<stop offset="0.1446" stop-color="#AD9CEB"/>
<stop offset="0.6659" stop-color="#BFB2EB"/>
<stop offset="1" stop-color="#C5BAEB"/>
</linearGradient>
<linearGradient id="paint9_linear_7031_32896" x1="81.8434" y1="179.066" x2="83.6275" y2="179.066" gradientUnits="userSpaceOnUse">
<stop offset="0.0319" stop-color="#A996EB"/>
<stop offset="0.1446" stop-color="#AD9CEB"/>
<stop offset="0.6659" stop-color="#BFB2EB"/>
<stop offset="1" stop-color="#C5BAEB"/>
</linearGradient>
<linearGradient id="paint10_linear_7031_32896" x1="88.6793" y1="175.12" x2="90.4635" y2="175.12" gradientUnits="userSpaceOnUse">
<stop offset="0.0319" stop-color="#A996EB"/>
<stop offset="0.1446" stop-color="#AD9CEB"/>
<stop offset="0.6659" stop-color="#BFB2EB"/>
<stop offset="1" stop-color="#C5BAEB"/>
</linearGradient>
<linearGradient id="paint11_linear_7031_32896" x1="95.5149" y1="171.173" x2="97.299" y2="171.173" gradientUnits="userSpaceOnUse">
<stop offset="0.0319" stop-color="#A996EB"/>
<stop offset="0.1446" stop-color="#AD9CEB"/>
<stop offset="0.6659" stop-color="#BFB2EB"/>
<stop offset="1" stop-color="#C5BAEB"/>
</linearGradient>
<linearGradient id="paint12_linear_7031_32896" x1="102.351" y1="167.226" x2="104.135" y2="167.226" gradientUnits="userSpaceOnUse">
<stop offset="0.0319" stop-color="#A996EB"/>
<stop offset="0.1446" stop-color="#AD9CEB"/>
<stop offset="0.6659" stop-color="#BFB2EB"/>
<stop offset="1" stop-color="#C5BAEB"/>
</linearGradient>
<linearGradient id="paint13_linear_7031_32896" x1="109.187" y1="163.28" x2="110.971" y2="163.28" gradientUnits="userSpaceOnUse">
<stop offset="0.0319" stop-color="#A996EB"/>
<stop offset="0.1446" stop-color="#AD9CEB"/>
<stop offset="0.6659" stop-color="#BFB2EB"/>
<stop offset="1" stop-color="#C5BAEB"/>
</linearGradient>
<linearGradient id="paint14_linear_7031_32896" x1="116.022" y1="159.333" x2="117.806" y2="159.333" gradientUnits="userSpaceOnUse">
<stop offset="0.0319" stop-color="#A996EB"/>
<stop offset="0.1446" stop-color="#AD9CEB"/>
<stop offset="0.6659" stop-color="#BFB2EB"/>
<stop offset="1" stop-color="#C5BAEB"/>
</linearGradient>
<linearGradient id="paint15_linear_7031_32896" x1="122.859" y1="155.387" x2="124.643" y2="155.387" gradientUnits="userSpaceOnUse">
<stop offset="0.0319" stop-color="#A996EB"/>
<stop offset="0.1446" stop-color="#AD9CEB"/>
<stop offset="0.6659" stop-color="#BFB2EB"/>
<stop offset="1" stop-color="#C5BAEB"/>
</linearGradient>
<linearGradient id="paint16_linear_7031_32896" x1="129.695" y1="151.44" x2="131.479" y2="151.44" gradientUnits="userSpaceOnUse">
<stop offset="0.0319" stop-color="#A996EB"/>
<stop offset="0.1446" stop-color="#AD9CEB"/>
<stop offset="0.6659" stop-color="#BFB2EB"/>
<stop offset="1" stop-color="#C5BAEB"/>
</linearGradient>
<linearGradient id="paint17_linear_7031_32896" x1="136.53" y1="147.494" x2="138.314" y2="147.494" gradientUnits="userSpaceOnUse">
<stop offset="0.0319" stop-color="#A996EB"/>
<stop offset="0.1446" stop-color="#AD9CEB"/>
<stop offset="0.6659" stop-color="#BFB2EB"/>
<stop offset="1" stop-color="#C5BAEB"/>
</linearGradient>
<linearGradient id="paint18_linear_7031_32896" x1="83.1403" y1="187.693" x2="84.9244" y2="187.693" gradientUnits="userSpaceOnUse">
<stop offset="0.0319" stop-color="#A996EB"/>
<stop offset="0.1446" stop-color="#AD9CEB"/>
<stop offset="0.6659" stop-color="#BFB2EB"/>
<stop offset="1" stop-color="#C5BAEB"/>
</linearGradient>
<linearGradient id="paint19_linear_7031_32896" x1="89.9758" y1="183.746" x2="91.7599" y2="183.746" gradientUnits="userSpaceOnUse">
<stop offset="0.0319" stop-color="#A996EB"/>
<stop offset="0.1446" stop-color="#AD9CEB"/>
<stop offset="0.6659" stop-color="#BFB2EB"/>
<stop offset="1" stop-color="#C5BAEB"/>
</linearGradient>
<linearGradient id="paint20_linear_7031_32896" x1="96.8112" y1="179.799" x2="98.5953" y2="179.799" gradientUnits="userSpaceOnUse">
<stop offset="0.0319" stop-color="#A996EB"/>
<stop offset="0.1446" stop-color="#AD9CEB"/>
<stop offset="0.6659" stop-color="#BFB2EB"/>
<stop offset="1" stop-color="#C5BAEB"/>
</linearGradient>
<linearGradient id="paint21_linear_7031_32896" x1="103.648" y1="175.853" x2="105.432" y2="175.853" gradientUnits="userSpaceOnUse">
<stop offset="0.0319" stop-color="#A996EB"/>
<stop offset="0.1446" stop-color="#AD9CEB"/>
<stop offset="0.6659" stop-color="#BFB2EB"/>
<stop offset="1" stop-color="#C5BAEB"/>
</linearGradient>
<linearGradient id="paint22_linear_7031_32896" x1="110.483" y1="171.906" x2="112.267" y2="171.906" gradientUnits="userSpaceOnUse">
<stop offset="0.0319" stop-color="#A996EB"/>
<stop offset="0.1446" stop-color="#AD9CEB"/>
<stop offset="0.6659" stop-color="#BFB2EB"/>
<stop offset="1" stop-color="#C5BAEB"/>
</linearGradient>
<linearGradient id="paint23_linear_7031_32896" x1="117.319" y1="167.96" x2="119.103" y2="167.96" gradientUnits="userSpaceOnUse">
<stop offset="0.0319" stop-color="#A996EB"/>
<stop offset="0.1446" stop-color="#AD9CEB"/>
<stop offset="0.6659" stop-color="#BFB2EB"/>
<stop offset="1" stop-color="#C5BAEB"/>
</linearGradient>
<linearGradient id="paint24_linear_7031_32896" x1="124.155" y1="164.013" x2="125.94" y2="164.013" gradientUnits="userSpaceOnUse">
<stop offset="0.0319" stop-color="#A996EB"/>
<stop offset="0.1446" stop-color="#AD9CEB"/>
<stop offset="0.6659" stop-color="#BFB2EB"/>
<stop offset="1" stop-color="#C5BAEB"/>
</linearGradient>
<linearGradient id="paint25_linear_7031_32896" x1="130.991" y1="160.066" x2="132.775" y2="160.066" gradientUnits="userSpaceOnUse">
<stop offset="0.0319" stop-color="#A996EB"/>
<stop offset="0.1446" stop-color="#AD9CEB"/>
<stop offset="0.6659" stop-color="#BFB2EB"/>
<stop offset="1" stop-color="#C5BAEB"/>
</linearGradient>
<linearGradient id="paint26_linear_7031_32896" x1="137.827" y1="156.12" x2="139.611" y2="156.12" gradientUnits="userSpaceOnUse">
<stop offset="0.0319" stop-color="#A996EB"/>
<stop offset="0.1446" stop-color="#AD9CEB"/>
<stop offset="0.6659" stop-color="#BFB2EB"/>
<stop offset="1" stop-color="#C5BAEB"/>
</linearGradient>
<linearGradient id="paint27_linear_7031_32896" x1="144.663" y1="152.174" x2="146.447" y2="152.174" gradientUnits="userSpaceOnUse">
<stop offset="0.0319" stop-color="#A996EB"/>
<stop offset="0.1446" stop-color="#AD9CEB"/>
<stop offset="0.6659" stop-color="#BFB2EB"/>
<stop offset="1" stop-color="#C5BAEB"/>
</linearGradient>
<linearGradient id="paint28_linear_7031_32896" x1="90.9781" y1="191.475" x2="94.094" y2="191.475" gradientUnits="userSpaceOnUse">
<stop offset="0.0319" stop-color="#A996EB"/>
<stop offset="0.1446" stop-color="#AD9CEB"/>
<stop offset="0.6659" stop-color="#BFB2EB"/>
<stop offset="1" stop-color="#C5BAEB"/>
</linearGradient>
<linearGradient id="paint29_linear_7031_32896" x1="102.326" y1="186.007" x2="104.11" y2="186.007" gradientUnits="userSpaceOnUse">
<stop offset="0.0319" stop-color="#A996EB"/>
<stop offset="0.1446" stop-color="#AD9CEB"/>
<stop offset="0.6659" stop-color="#BFB2EB"/>
<stop offset="1" stop-color="#C5BAEB"/>
</linearGradient>
<linearGradient id="paint30_linear_7031_32896" x1="114.285" y1="188.529" x2="116.069" y2="188.529" gradientUnits="userSpaceOnUse">
<stop offset="0.0319" stop-color="#A996EB"/>
<stop offset="0.1446" stop-color="#AD9CEB"/>
<stop offset="0.6659" stop-color="#BFB2EB"/>
<stop offset="1" stop-color="#C5BAEB"/>
</linearGradient>
<linearGradient id="paint31_linear_7031_32896" x1="107.538" y1="201.795" x2="109.322" y2="201.795" gradientUnits="userSpaceOnUse">
<stop offset="0.0319" stop-color="#A996EB"/>
<stop offset="0.1446" stop-color="#AD9CEB"/>
<stop offset="0.6659" stop-color="#BFB2EB"/>
<stop offset="1" stop-color="#C5BAEB"/>
</linearGradient>
<linearGradient id="paint32_linear_7031_32896" x1="114.374" y1="197.869" x2="116.158" y2="197.869" gradientUnits="userSpaceOnUse">
<stop offset="0.0319" stop-color="#A996EB"/>
<stop offset="0.1446" stop-color="#AD9CEB"/>
<stop offset="0.6659" stop-color="#BFB2EB"/>
<stop offset="1" stop-color="#C5BAEB"/>
</linearGradient>
<linearGradient id="paint33_linear_7031_32896" x1="121.21" y1="193.944" x2="122.994" y2="193.944" gradientUnits="userSpaceOnUse">
<stop offset="0.0319" stop-color="#A996EB"/>
<stop offset="0.1446" stop-color="#AD9CEB"/>
<stop offset="0.6659" stop-color="#BFB2EB"/>
<stop offset="1" stop-color="#C5BAEB"/>
</linearGradient>
<linearGradient id="paint34_linear_7031_32896" x1="127.575" y1="182.38" x2="131.447" y2="182.38" gradientUnits="userSpaceOnUse">
<stop offset="0.0319" stop-color="#A996EB"/>
<stop offset="0.1446" stop-color="#AD9CEB"/>
<stop offset="0.6659" stop-color="#BFB2EB"/>
<stop offset="1" stop-color="#C5BAEB"/>
</linearGradient>
<linearGradient id="paint35_linear_7031_32896" x1="162.225" y1="170.242" x2="164.009" y2="170.242" gradientUnits="userSpaceOnUse">
<stop offset="0.0319" stop-color="#A996EB"/>
<stop offset="0.1446" stop-color="#AD9CEB"/>
<stop offset="0.6659" stop-color="#BFB2EB"/>
<stop offset="1" stop-color="#C5BAEB"/>
</linearGradient>
<linearGradient id="paint36_linear_7031_32896" x1="169.061" y1="166.274" x2="170.845" y2="166.274" gradientUnits="userSpaceOnUse">
<stop offset="0.0319" stop-color="#A996EB"/>
<stop offset="0.1446" stop-color="#AD9CEB"/>
<stop offset="0.6659" stop-color="#BFB2EB"/>
<stop offset="1" stop-color="#C5BAEB"/>
</linearGradient>
<linearGradient id="paint37_linear_7031_32896" x1="99.1906" y1="195.064" x2="101.48" y2="195.064" gradientUnits="userSpaceOnUse">
<stop offset="0.0319" stop-color="#A996EB"/>
<stop offset="0.1446" stop-color="#AD9CEB"/>
<stop offset="0.6659" stop-color="#BFB2EB"/>
<stop offset="1" stop-color="#C5BAEB"/>
</linearGradient>
<linearGradient id="paint38_linear_7031_32896" x1="121.121" y1="184.561" x2="122.905" y2="184.561" gradientUnits="userSpaceOnUse">
<stop offset="0.0319" stop-color="#A996EB"/>
<stop offset="0.1446" stop-color="#AD9CEB"/>
<stop offset="0.6659" stop-color="#BFB2EB"/>
<stop offset="1" stop-color="#C5BAEB"/>
</linearGradient>
<linearGradient id="paint39_linear_7031_32896" x1="127.957" y1="180.636" x2="129.741" y2="180.636" gradientUnits="userSpaceOnUse">
<stop offset="0.0319" stop-color="#A996EB"/>
<stop offset="0.1446" stop-color="#AD9CEB"/>
<stop offset="0.6659" stop-color="#BFB2EB"/>
<stop offset="1" stop-color="#C5BAEB"/>
</linearGradient>
<linearGradient id="paint40_linear_7031_32896" x1="134.793" y1="176.711" x2="136.577" y2="176.711" gradientUnits="userSpaceOnUse">
<stop offset="0.0319" stop-color="#A996EB"/>
<stop offset="0.1446" stop-color="#AD9CEB"/>
<stop offset="0.6659" stop-color="#BFB2EB"/>
<stop offset="1" stop-color="#C5BAEB"/>
</linearGradient>
<linearGradient id="paint41_linear_7031_32896" x1="141.629" y1="172.785" x2="143.413" y2="172.785" gradientUnits="userSpaceOnUse">
<stop offset="0.0319" stop-color="#A996EB"/>
<stop offset="0.1446" stop-color="#AD9CEB"/>
<stop offset="0.6659" stop-color="#BFB2EB"/>
<stop offset="1" stop-color="#C5BAEB"/>
</linearGradient>
<linearGradient id="paint42_linear_7031_32896" x1="148.465" y1="168.86" x2="150.249" y2="168.86" gradientUnits="userSpaceOnUse">
<stop offset="0.0319" stop-color="#A996EB"/>
<stop offset="0.1446" stop-color="#AD9CEB"/>
<stop offset="0.6659" stop-color="#BFB2EB"/>
<stop offset="1" stop-color="#C5BAEB"/>
</linearGradient>
<linearGradient id="paint43_linear_7031_32896" x1="155.003" y1="163.544" x2="157.479" y2="163.544" gradientUnits="userSpaceOnUse">
<stop offset="0.0319" stop-color="#A996EB"/>
<stop offset="0.1446" stop-color="#AD9CEB"/>
<stop offset="0.6659" stop-color="#BFB2EB"/>
<stop offset="1" stop-color="#C5BAEB"/>
</linearGradient>
<linearGradient id="paint44_linear_7031_32896" x1="109.162" y1="182.06" x2="110.946" y2="182.06" gradientUnits="userSpaceOnUse">
<stop offset="0.0319" stop-color="#A996EB"/>
<stop offset="0.1446" stop-color="#AD9CEB"/>
<stop offset="0.6659" stop-color="#BFB2EB"/>
<stop offset="1" stop-color="#C5BAEB"/>
</linearGradient>
<linearGradient id="paint45_linear_7031_32896" x1="115.998" y1="178.113" x2="117.782" y2="178.113" gradientUnits="userSpaceOnUse">
<stop offset="0.0319" stop-color="#A996EB"/>
<stop offset="0.1446" stop-color="#AD9CEB"/>
<stop offset="0.6659" stop-color="#BFB2EB"/>
<stop offset="1" stop-color="#C5BAEB"/>
</linearGradient>
<linearGradient id="paint46_linear_7031_32896" x1="122.834" y1="174.167" x2="124.618" y2="174.167" gradientUnits="userSpaceOnUse">
<stop offset="0.0319" stop-color="#A996EB"/>
<stop offset="0.1446" stop-color="#AD9CEB"/>
<stop offset="0.6659" stop-color="#BFB2EB"/>
<stop offset="1" stop-color="#C5BAEB"/>
</linearGradient>
<linearGradient id="paint47_linear_7031_32896" x1="129.67" y1="170.22" x2="131.454" y2="170.22" gradientUnits="userSpaceOnUse">
<stop offset="0.0319" stop-color="#A996EB"/>
<stop offset="0.1446" stop-color="#AD9CEB"/>
<stop offset="0.6659" stop-color="#BFB2EB"/>
<stop offset="1" stop-color="#C5BAEB"/>
</linearGradient>
<linearGradient id="paint48_linear_7031_32896" x1="136.506" y1="166.274" x2="138.29" y2="166.274" gradientUnits="userSpaceOnUse">
<stop offset="0.0319" stop-color="#A996EB"/>
<stop offset="0.1446" stop-color="#AD9CEB"/>
<stop offset="0.6659" stop-color="#BFB2EB"/>
<stop offset="1" stop-color="#C5BAEB"/>
</linearGradient>
<linearGradient id="paint49_linear_7031_32896" x1="143.341" y1="162.327" x2="145.125" y2="162.327" gradientUnits="userSpaceOnUse">
<stop offset="0.0319" stop-color="#A996EB"/>
<stop offset="0.1446" stop-color="#AD9CEB"/>
<stop offset="0.6659" stop-color="#BFB2EB"/>
<stop offset="1" stop-color="#C5BAEB"/>
</linearGradient>
<linearGradient id="paint50_linear_7031_32896" x1="149.82" y1="157.919" x2="152.174" y2="157.919" gradientUnits="userSpaceOnUse">
<stop offset="0.0319" stop-color="#A996EB"/>
<stop offset="0.1446" stop-color="#AD9CEB"/>
<stop offset="0.6659" stop-color="#BFB2EB"/>
<stop offset="1" stop-color="#C5BAEB"/>
</linearGradient>
<linearGradient id="paint51_linear_7031_32896" x1="146.923" y1="141.514" x2="148.707" y2="141.514" gradientUnits="userSpaceOnUse">
<stop offset="0.0319" stop-color="#A996EB"/>
<stop offset="0.1446" stop-color="#AD9CEB"/>
<stop offset="0.6659" stop-color="#BFB2EB"/>
<stop offset="1" stop-color="#C5BAEB"/>
</linearGradient>
<linearGradient id="paint52_linear_7031_32896" x1="153.758" y1="137.567" x2="155.542" y2="137.567" gradientUnits="userSpaceOnUse">
<stop offset="0.0319" stop-color="#A996EB"/>
<stop offset="0.1446" stop-color="#AD9CEB"/>
<stop offset="0.6659" stop-color="#BFB2EB"/>
<stop offset="1" stop-color="#C5BAEB"/>
</linearGradient>
<linearGradient id="paint53_linear_7031_32896" x1="160.594" y1="133.621" x2="162.378" y2="133.621" gradientUnits="userSpaceOnUse">
<stop offset="0.0319" stop-color="#A996EB"/>
<stop offset="0.1446" stop-color="#AD9CEB"/>
<stop offset="0.6659" stop-color="#BFB2EB"/>
<stop offset="1" stop-color="#C5BAEB"/>
</linearGradient>
<linearGradient id="paint54_linear_7031_32896" x1="155.055" y1="146.209" x2="156.839" y2="146.209" gradientUnits="userSpaceOnUse">
<stop offset="0.0319" stop-color="#A996EB"/>
<stop offset="0.1446" stop-color="#AD9CEB"/>
<stop offset="0.6659" stop-color="#BFB2EB"/>
<stop offset="1" stop-color="#C5BAEB"/>
</linearGradient>
<linearGradient id="paint55_linear_7031_32896" x1="161.891" y1="142.263" x2="163.675" y2="142.263" gradientUnits="userSpaceOnUse">
<stop offset="0.0319" stop-color="#A996EB"/>
<stop offset="0.1446" stop-color="#AD9CEB"/>
<stop offset="0.6659" stop-color="#BFB2EB"/>
<stop offset="1" stop-color="#C5BAEB"/>
</linearGradient>
<linearGradient id="paint56_linear_7031_32896" x1="168.727" y1="138.316" x2="170.511" y2="138.316" gradientUnits="userSpaceOnUse">
<stop offset="0.0319" stop-color="#A996EB"/>
<stop offset="0.1446" stop-color="#AD9CEB"/>
<stop offset="0.6659" stop-color="#BFB2EB"/>
<stop offset="1" stop-color="#C5BAEB"/>
</linearGradient>
<linearGradient id="paint57_linear_7031_32896" x1="163.188" y1="150.904" x2="164.972" y2="150.904" gradientUnits="userSpaceOnUse">
<stop offset="0.0319" stop-color="#A996EB"/>
<stop offset="0.1446" stop-color="#AD9CEB"/>
<stop offset="0.6659" stop-color="#BFB2EB"/>
<stop offset="1" stop-color="#C5BAEB"/>
</linearGradient>
<linearGradient id="paint58_linear_7031_32896" x1="170.023" y1="146.958" x2="171.807" y2="146.958" gradientUnits="userSpaceOnUse">
<stop offset="0.0319" stop-color="#A996EB"/>
<stop offset="0.1446" stop-color="#AD9CEB"/>
<stop offset="0.6659" stop-color="#BFB2EB"/>
<stop offset="1" stop-color="#C5BAEB"/>
</linearGradient>
<linearGradient id="paint59_linear_7031_32896" x1="176.859" y1="143.012" x2="178.643" y2="143.012" gradientUnits="userSpaceOnUse">
<stop offset="0.0319" stop-color="#A996EB"/>
<stop offset="0.1446" stop-color="#AD9CEB"/>
<stop offset="0.6659" stop-color="#BFB2EB"/>
<stop offset="1" stop-color="#C5BAEB"/>
</linearGradient>
<linearGradient id="paint60_linear_7031_32896" x1="171.32" y1="155.6" x2="173.104" y2="155.6" gradientUnits="userSpaceOnUse">
<stop offset="0.0319" stop-color="#A996EB"/>
<stop offset="0.1446" stop-color="#AD9CEB"/>
<stop offset="0.6659" stop-color="#BFB2EB"/>
<stop offset="1" stop-color="#C5BAEB"/>
</linearGradient>
<linearGradient id="paint61_linear_7031_32896" x1="178.155" y1="151.653" x2="179.94" y2="151.653" gradientUnits="userSpaceOnUse">
<stop offset="0.0319" stop-color="#A996EB"/>
<stop offset="0.1446" stop-color="#AD9CEB"/>
<stop offset="0.6659" stop-color="#BFB2EB"/>
<stop offset="1" stop-color="#C5BAEB"/>
</linearGradient>
<linearGradient id="paint62_linear_7031_32896" x1="178.99" y1="158.599" x2="181.912" y2="158.599" gradientUnits="userSpaceOnUse">
<stop offset="0.0319" stop-color="#A996EB"/>
<stop offset="0.1446" stop-color="#AD9CEB"/>
<stop offset="0.6659" stop-color="#BFB2EB"/>
<stop offset="1" stop-color="#C5BAEB"/>
</linearGradient>
<linearGradient id="paint63_linear_7031_32896" x1="192.344" y1="150.043" x2="195.482" y2="150.043" gradientUnits="userSpaceOnUse">
<stop offset="0.0319" stop-color="#A996EB"/>
<stop offset="0.1446" stop-color="#AD9CEB"/>
<stop offset="0.6659" stop-color="#BFB2EB"/>
<stop offset="1" stop-color="#C5BAEB"/>
</linearGradient>
<linearGradient id="paint64_linear_7031_32896" x1="79.6134" y1="183.375" x2="75.8868" y2="176.92" gradientUnits="userSpaceOnUse">
<stop stop-color="#E9E5F6"/>
<stop offset="0.1392" stop-color="#EBE7F7"/>
<stop offset="1" stop-color="#F2EFFA"/>
</linearGradient>
<linearGradient id="paint65_linear_7031_32896" x1="86.4493" y1="179.428" x2="82.7227" y2="172.974" gradientUnits="userSpaceOnUse">
<stop stop-color="#E9E5F6"/>
<stop offset="0.1392" stop-color="#EBE7F7"/>
<stop offset="1" stop-color="#F2EFFA"/>
</linearGradient>
<linearGradient id="paint66_linear_7031_32896" x1="93.2856" y1="175.482" x2="89.5587" y2="169.027" gradientUnits="userSpaceOnUse">
<stop stop-color="#E9E5F6"/>
<stop offset="0.1392" stop-color="#EBE7F7"/>
<stop offset="1" stop-color="#F2EFFA"/>
</linearGradient>
<linearGradient id="paint67_linear_7031_32896" x1="100.121" y1="171.535" x2="96.3941" y2="165.08" gradientUnits="userSpaceOnUse">
<stop stop-color="#E9E5F6"/>
<stop offset="0.1392" stop-color="#EBE7F7"/>
<stop offset="1" stop-color="#F2EFFA"/>
</linearGradient>
<linearGradient id="paint68_linear_7031_32896" x1="106.957" y1="167.588" x2="103.231" y2="161.134" gradientUnits="userSpaceOnUse">
<stop stop-color="#E9E5F6"/>
<stop offset="0.1392" stop-color="#EBE7F7"/>
<stop offset="1" stop-color="#F2EFFA"/>
</linearGradient>
<linearGradient id="paint69_linear_7031_32896" x1="113.793" y1="163.641" x2="110.066" y2="157.187" gradientUnits="userSpaceOnUse">
<stop stop-color="#E9E5F6"/>
<stop offset="0.1392" stop-color="#EBE7F7"/>
<stop offset="1" stop-color="#F2EFFA"/>
</linearGradient>
<linearGradient id="paint70_linear_7031_32896" x1="120.629" y1="159.695" x2="116.902" y2="153.24" gradientUnits="userSpaceOnUse">
<stop stop-color="#E9E5F6"/>
<stop offset="0.1392" stop-color="#EBE7F7"/>
<stop offset="1" stop-color="#F2EFFA"/>
</linearGradient>
<linearGradient id="paint71_linear_7031_32896" x1="127.465" y1="155.748" x2="123.738" y2="149.293" gradientUnits="userSpaceOnUse">
<stop stop-color="#E9E5F6"/>
<stop offset="0.1392" stop-color="#EBE7F7"/>
<stop offset="1" stop-color="#F2EFFA"/>
</linearGradient>
<linearGradient id="paint72_linear_7031_32896" x1="134.301" y1="151.801" x2="130.574" y2="145.347" gradientUnits="userSpaceOnUse">
<stop stop-color="#E9E5F6"/>
<stop offset="0.1392" stop-color="#EBE7F7"/>
<stop offset="1" stop-color="#F2EFFA"/>
</linearGradient>
<linearGradient id="paint73_linear_7031_32896" x1="141.136" y1="147.854" x2="137.409" y2="141.4" gradientUnits="userSpaceOnUse">
<stop stop-color="#E9E5F6"/>
<stop offset="0.1392" stop-color="#EBE7F7"/>
<stop offset="1" stop-color="#F2EFFA"/>
</linearGradient>
<linearGradient id="paint74_linear_7031_32896" x1="87.7466" y1="188.067" x2="84.0198" y2="181.612" gradientUnits="userSpaceOnUse">
<stop stop-color="#E9E5F6"/>
<stop offset="0.1392" stop-color="#EBE7F7"/>
<stop offset="1" stop-color="#F2EFFA"/>
</linearGradient>
<linearGradient id="paint75_linear_7031_32896" x1="94.5821" y1="184.12" x2="90.8552" y2="177.665" gradientUnits="userSpaceOnUse">
<stop stop-color="#E9E5F6"/>
<stop offset="0.1392" stop-color="#EBE7F7"/>
<stop offset="1" stop-color="#F2EFFA"/>
</linearGradient>
<linearGradient id="paint76_linear_7031_32896" x1="101.417" y1="180.174" x2="97.6907" y2="173.719" gradientUnits="userSpaceOnUse">
<stop stop-color="#E9E5F6"/>
<stop offset="0.1392" stop-color="#EBE7F7"/>
<stop offset="1" stop-color="#F2EFFA"/>
</linearGradient>
<linearGradient id="paint77_linear_7031_32896" x1="151.529" y1="141.855" x2="147.802" y2="135.4" gradientUnits="userSpaceOnUse">
<stop stop-color="#E9E5F6"/>
<stop offset="0.1392" stop-color="#EBE7F7"/>
<stop offset="1" stop-color="#F2EFFA"/>
</linearGradient>
<linearGradient id="paint78_linear_7031_32896" x1="158.365" y1="137.908" x2="154.638" y2="131.453" gradientUnits="userSpaceOnUse">
<stop stop-color="#E9E5F6"/>
<stop offset="0.1392" stop-color="#EBE7F7"/>
<stop offset="1" stop-color="#F2EFFA"/>
</linearGradient>
<linearGradient id="paint79_linear_7031_32896" x1="165.2" y1="133.961" x2="161.473" y2="127.507" gradientUnits="userSpaceOnUse">
<stop stop-color="#E9E5F6"/>
<stop offset="0.1392" stop-color="#EBE7F7"/>
<stop offset="1" stop-color="#F2EFFA"/>
</linearGradient>
<linearGradient id="paint80_linear_7031_32896" x1="159.661" y1="146.547" x2="155.935" y2="140.092" gradientUnits="userSpaceOnUse">
<stop stop-color="#E9E5F6"/>
<stop offset="0.1392" stop-color="#EBE7F7"/>
<stop offset="1" stop-color="#F2EFFA"/>
</linearGradient>
<linearGradient id="paint81_linear_7031_32896" x1="166.497" y1="142.6" x2="162.771" y2="136.145" gradientUnits="userSpaceOnUse">
<stop stop-color="#E9E5F6"/>
<stop offset="0.1392" stop-color="#EBE7F7"/>
<stop offset="1" stop-color="#F2EFFA"/>
</linearGradient>
<linearGradient id="paint82_linear_7031_32896" x1="173.333" y1="138.654" x2="169.606" y2="132.199" gradientUnits="userSpaceOnUse">
<stop stop-color="#E9E5F6"/>
<stop offset="0.1392" stop-color="#EBE7F7"/>
<stop offset="1" stop-color="#F2EFFA"/>
</linearGradient>
<linearGradient id="paint83_linear_7031_32896" x1="167.794" y1="151.239" x2="164.067" y2="144.784" gradientUnits="userSpaceOnUse">
<stop stop-color="#E9E5F6"/>
<stop offset="0.1392" stop-color="#EBE7F7"/>
<stop offset="1" stop-color="#F2EFFA"/>
</linearGradient>
<linearGradient id="paint84_linear_7031_32896" x1="174.63" y1="147.293" x2="170.903" y2="140.838" gradientUnits="userSpaceOnUse">
<stop stop-color="#E9E5F6"/>
<stop offset="0.1392" stop-color="#EBE7F7"/>
<stop offset="1" stop-color="#F2EFFA"/>
</linearGradient>
<linearGradient id="paint85_linear_7031_32896" x1="181.465" y1="143.346" x2="177.738" y2="136.891" gradientUnits="userSpaceOnUse">
<stop stop-color="#E9E5F6"/>
<stop offset="0.1392" stop-color="#EBE7F7"/>
<stop offset="1" stop-color="#F2EFFA"/>
</linearGradient>
<linearGradient id="paint86_linear_7031_32896" x1="175.926" y1="155.931" x2="172.199" y2="149.477" gradientUnits="userSpaceOnUse">
<stop stop-color="#E9E5F6"/>
<stop offset="0.1392" stop-color="#EBE7F7"/>
<stop offset="1" stop-color="#F2EFFA"/>
</linearGradient>
<linearGradient id="paint87_linear_7031_32896" x1="182.761" y1="151.985" x2="179.035" y2="145.53" gradientUnits="userSpaceOnUse">
<stop stop-color="#E9E5F6"/>
<stop offset="0.1392" stop-color="#EBE7F7"/>
<stop offset="1" stop-color="#F2EFFA"/>
</linearGradient>
<linearGradient id="paint88_linear_7031_32896" x1="199.061" y1="153.498" x2="190.523" y2="138.709" gradientUnits="userSpaceOnUse">
<stop stop-color="#E9E5F6"/>
<stop offset="0.1392" stop-color="#EBE7F7"/>
<stop offset="1" stop-color="#F2EFFA"/>
</linearGradient>
<linearGradient id="paint89_linear_7031_32896" x1="187.477" y1="158.65" x2="183.75" y2="152.195" gradientUnits="userSpaceOnUse">
<stop stop-color="#E9E5F6"/>
<stop offset="0.1392" stop-color="#EBE7F7"/>
<stop offset="1" stop-color="#F2EFFA"/>
</linearGradient>
<linearGradient id="paint90_linear_7031_32896" x1="108.254" y1="176.227" x2="104.527" y2="169.773" gradientUnits="userSpaceOnUse">
<stop stop-color="#E9E5F6"/>
<stop offset="0.1392" stop-color="#EBE7F7"/>
<stop offset="1" stop-color="#F2EFFA"/>
</linearGradient>
<linearGradient id="paint91_linear_7031_32896" x1="115.09" y1="172.28" x2="111.363" y2="165.825" gradientUnits="userSpaceOnUse">
<stop stop-color="#E9E5F6"/>
<stop offset="0.1392" stop-color="#EBE7F7"/>
<stop offset="1" stop-color="#F2EFFA"/>
</linearGradient>
<linearGradient id="paint92_linear_7031_32896" x1="121.925" y1="168.333" x2="118.198" y2="161.879" gradientUnits="userSpaceOnUse">
<stop stop-color="#E9E5F6"/>
<stop offset="0.1392" stop-color="#EBE7F7"/>
<stop offset="1" stop-color="#F2EFFA"/>
</linearGradient>
<linearGradient id="paint93_linear_7031_32896" x1="128.762" y1="164.387" x2="125.035" y2="157.932" gradientUnits="userSpaceOnUse">
<stop stop-color="#E9E5F6"/>
<stop offset="0.1392" stop-color="#EBE7F7"/>
<stop offset="1" stop-color="#F2EFFA"/>
</linearGradient>
<linearGradient id="paint94_linear_7031_32896" x1="135.597" y1="160.44" x2="131.87" y2="153.986" gradientUnits="userSpaceOnUse">
<stop stop-color="#E9E5F6"/>
<stop offset="0.1392" stop-color="#EBE7F7"/>
<stop offset="1" stop-color="#F2EFFA"/>
</linearGradient>
<linearGradient id="paint95_linear_7031_32896" x1="142.433" y1="156.494" x2="138.706" y2="150.039" gradientUnits="userSpaceOnUse">
<stop stop-color="#E9E5F6"/>
<stop offset="0.1392" stop-color="#EBE7F7"/>
<stop offset="1" stop-color="#F2EFFA"/>
</linearGradient>
<linearGradient id="paint96_linear_7031_32896" x1="149.27" y1="152.547" x2="145.543" y2="146.092" gradientUnits="userSpaceOnUse">
<stop stop-color="#E9E5F6"/>
<stop offset="0.1392" stop-color="#EBE7F7"/>
<stop offset="1" stop-color="#F2EFFA"/>
</linearGradient>
<linearGradient id="paint97_linear_7031_32896" x1="97.9848" y1="191.543" x2="94.2581" y2="185.089" gradientUnits="userSpaceOnUse">
<stop stop-color="#E9E5F6"/>
<stop offset="0.1392" stop-color="#EBE7F7"/>
<stop offset="1" stop-color="#F2EFFA"/>
</linearGradient>
<linearGradient id="paint98_linear_7031_32896" x1="106.927" y1="186.381" x2="103.2" y2="179.926" gradientUnits="userSpaceOnUse">
<stop stop-color="#E9E5F6"/>
<stop offset="0.1392" stop-color="#EBE7F7"/>
<stop offset="1" stop-color="#F2EFFA"/>
</linearGradient>
<linearGradient id="paint99_linear_7031_32896" x1="113.763" y1="182.434" x2="110.036" y2="175.979" gradientUnits="userSpaceOnUse">
<stop stop-color="#E9E5F6"/>
<stop offset="0.1392" stop-color="#EBE7F7"/>
<stop offset="1" stop-color="#F2EFFA"/>
</linearGradient>
<linearGradient id="paint100_linear_7031_32896" x1="120.598" y1="178.487" x2="116.871" y2="172.032" gradientUnits="userSpaceOnUse">
<stop stop-color="#E9E5F6"/>
<stop offset="0.1392" stop-color="#EBE7F7"/>
<stop offset="1" stop-color="#F2EFFA"/>
</linearGradient>
<linearGradient id="paint101_linear_7031_32896" x1="127.434" y1="174.541" x2="123.707" y2="168.086" gradientUnits="userSpaceOnUse">
<stop stop-color="#E9E5F6"/>
<stop offset="0.1392" stop-color="#EBE7F7"/>
<stop offset="1" stop-color="#F2EFFA"/>
</linearGradient>
<linearGradient id="paint102_linear_7031_32896" x1="134.271" y1="170.594" x2="130.544" y2="164.139" gradientUnits="userSpaceOnUse">
<stop stop-color="#E9E5F6"/>
<stop offset="0.1392" stop-color="#EBE7F7"/>
<stop offset="1" stop-color="#F2EFFA"/>
</linearGradient>
<linearGradient id="paint103_linear_7031_32896" x1="141.106" y1="166.647" x2="137.379" y2="160.192" gradientUnits="userSpaceOnUse">
<stop stop-color="#E9E5F6"/>
<stop offset="0.1392" stop-color="#EBE7F7"/>
<stop offset="1" stop-color="#F2EFFA"/>
</linearGradient>
<linearGradient id="paint104_linear_7031_32896" x1="147.941" y1="162.701" x2="144.214" y2="156.246" gradientUnits="userSpaceOnUse">
<stop stop-color="#E9E5F6"/>
<stop offset="0.1392" stop-color="#EBE7F7"/>
<stop offset="1" stop-color="#F2EFFA"/>
</linearGradient>
<linearGradient id="paint105_linear_7031_32896" x1="156.09" y1="157.996" x2="152.363" y2="151.542" gradientUnits="userSpaceOnUse">
<stop stop-color="#E9E5F6"/>
<stop offset="0.1392" stop-color="#EBE7F7"/>
<stop offset="1" stop-color="#F2EFFA"/>
</linearGradient>
<linearGradient id="paint106_linear_7031_32896" x1="108.033" y1="195.129" x2="104.306" y2="188.674" gradientUnits="userSpaceOnUse">
<stop stop-color="#E9E5F6"/>
<stop offset="0.1392" stop-color="#EBE7F7"/>
<stop offset="1" stop-color="#F2EFFA"/>
</linearGradient>
<linearGradient id="paint107_linear_7031_32896" x1="118.891" y1="188.86" x2="115.164" y2="182.406" gradientUnits="userSpaceOnUse">
<stop stop-color="#E9E5F6"/>
<stop offset="0.1392" stop-color="#EBE7F7"/>
<stop offset="1" stop-color="#F2EFFA"/>
</linearGradient>
<linearGradient id="paint108_linear_7031_32896" x1="125.728" y1="184.913" x2="122.001" y2="178.459" gradientUnits="userSpaceOnUse">
<stop stop-color="#E9E5F6"/>
<stop offset="0.1392" stop-color="#EBE7F7"/>
<stop offset="1" stop-color="#F2EFFA"/>
</linearGradient>
<linearGradient id="paint109_linear_7031_32896" x1="132.563" y1="180.967" x2="128.837" y2="174.512" gradientUnits="userSpaceOnUse">
<stop stop-color="#E9E5F6"/>
<stop offset="0.1392" stop-color="#EBE7F7"/>
<stop offset="1" stop-color="#F2EFFA"/>
</linearGradient>
<linearGradient id="paint110_linear_7031_32896" x1="139.399" y1="177.02" x2="135.672" y2="170.565" gradientUnits="userSpaceOnUse">
<stop stop-color="#E9E5F6"/>
<stop offset="0.1392" stop-color="#EBE7F7"/>
<stop offset="1" stop-color="#F2EFFA"/>
</linearGradient>
<linearGradient id="paint111_linear_7031_32896" x1="146.236" y1="173.073" x2="142.509" y2="166.619" gradientUnits="userSpaceOnUse">
<stop stop-color="#E9E5F6"/>
<stop offset="0.1392" stop-color="#EBE7F7"/>
<stop offset="1" stop-color="#F2EFFA"/>
</linearGradient>
<linearGradient id="paint112_linear_7031_32896" x1="153.07" y1="169.127" x2="149.344" y2="162.672" gradientUnits="userSpaceOnUse">
<stop stop-color="#E9E5F6"/>
<stop offset="0.1392" stop-color="#EBE7F7"/>
<stop offset="1" stop-color="#F2EFFA"/>
</linearGradient>
<linearGradient id="paint113_linear_7031_32896" x1="162.72" y1="163.556" x2="158.993" y2="157.101" gradientUnits="userSpaceOnUse">
<stop stop-color="#E9E5F6"/>
<stop offset="0.1392" stop-color="#EBE7F7"/>
<stop offset="1" stop-color="#F2EFFA"/>
</linearGradient>
<linearGradient id="paint114_linear_7031_32896" x1="112.144" y1="202.144" x2="108.417" y2="195.689" gradientUnits="userSpaceOnUse">
<stop stop-color="#E9E5F6"/>
<stop offset="0.1392" stop-color="#EBE7F7"/>
<stop offset="1" stop-color="#F2EFFA"/>
</linearGradient>
<linearGradient id="paint115_linear_7031_32896" x1="118.979" y1="198.197" x2="115.253" y2="191.742" gradientUnits="userSpaceOnUse">
<stop stop-color="#E9E5F6"/>
<stop offset="0.1392" stop-color="#EBE7F7"/>
<stop offset="1" stop-color="#F2EFFA"/>
</linearGradient>
<linearGradient id="paint116_linear_7031_32896" x1="125.816" y1="194.25" x2="122.089" y2="187.795" gradientUnits="userSpaceOnUse">
<stop stop-color="#E9E5F6"/>
<stop offset="0.1392" stop-color="#EBE7F7"/>
<stop offset="1" stop-color="#F2EFFA"/>
</linearGradient>
<linearGradient id="paint117_linear_7031_32896" x1="166.831" y1="170.57" x2="163.104" y2="164.115" gradientUnits="userSpaceOnUse">
<stop stop-color="#E9E5F6"/>
<stop offset="0.1392" stop-color="#EBE7F7"/>
<stop offset="1" stop-color="#F2EFFA"/>
</linearGradient>
<linearGradient id="paint118_linear_7031_32896" x1="173.667" y1="166.623" x2="169.94" y2="160.168" gradientUnits="userSpaceOnUse">
<stop stop-color="#E9E5F6"/>
<stop offset="0.1392" stop-color="#EBE7F7"/>
<stop offset="1" stop-color="#F2EFFA"/>
</linearGradient>
<linearGradient id="paint119_linear_7031_32896" x1="146.323" y1="182.41" x2="142.596" y2="175.955" gradientUnits="userSpaceOnUse">
<stop stop-color="#E9E5F6"/>
<stop offset="0.1392" stop-color="#EBE7F7"/>
<stop offset="1" stop-color="#F2EFFA"/>
</linearGradient>
<linearGradient id="paint120_linear_7031_32896" x1="191.491" y1="127.931" x2="196.161" y2="113.546" gradientUnits="userSpaceOnUse">
<stop offset="0.0319" stop-color="#C5BAEB"/>
<stop offset="0.2465" stop-color="#D0C7EE"/>
<stop offset="0.7057" stop-color="#E2DDF4"/>
<stop offset="1" stop-color="#E9E5F6"/>
</linearGradient>
<linearGradient id="paint121_linear_7031_32896" x1="188.036" y1="117.628" x2="184.334" y2="140.435" gradientUnits="userSpaceOnUse">
<stop stop-color="#C5BAEB"/>
<stop offset="1" stop-color="#E9E5F6"/>
</linearGradient>
<linearGradient id="paint122_linear_7031_32896" x1="185.304" y1="111.363" x2="180.608" y2="108.652" gradientUnits="userSpaceOnUse">
<stop offset="0.0319" stop-color="#A996EB"/>
<stop offset="0.3985" stop-color="#BFB3EB"/>
<stop offset="0.7651" stop-color="#D1C9EB"/>
<stop offset="1" stop-color="#D7D1EB"/>
</linearGradient>
<clipPath id="clip0_7031_32896">
<rect width="216" height="216" fill="white"/>
</clipPath>
</defs>
</svg>
