<?xml version="1.0" encoding="UTF-8"?>
<svg id="Layer_1" xmlns="http://www.w3.org/2000/svg" viewBox="0 0 1710 1710">
  <defs>
    <style>
      .cls-1 {
        fill: #fff;
      }
    </style>
  </defs>
  <g id="elements">
    <path class="cls-1" d="M0,0h58.97v58.97H0V0ZM58.97,0h58.97v58.97h-58.97V0ZM117.93,0h58.97v58.97h-58.97V0ZM176.9,0h58.97v58.97h-58.97V0ZM235.86,0h58.97v58.97h-58.97V0ZM294.83,0h58.97v58.97h-58.97V0ZM353.79,0h58.97v58.97h-58.97V0ZM471.72,0h58.97v58.97h-58.97V0ZM589.66,0h58.97v58.97h-58.97V0ZM648.62,0h58.97v58.97h-58.97V0ZM707.59,0h58.97v58.97h-58.97V0ZM884.48,0h58.97v58.97h-58.97V0ZM1061.38,0h58.97v58.97h-58.97V0ZM1179.31,0h58.97v58.97h-58.97V0ZM1297.24,0h58.97v58.97h-58.97V0ZM1356.21,0h58.97v58.97h-58.97V0ZM1415.17,0h58.97v58.97h-58.97V0ZM1474.14,0h58.97v58.97h-58.97V0ZM1533.1,0h58.97v58.97h-58.97V0ZM1592.07,0h58.97v58.97h-58.97V0ZM1651.03,0h58.97v58.97h-58.97V0ZM0,58.97h58.97v58.97H0v-58.97ZM353.79,58.97h58.97v58.97h-58.97v-58.97ZM471.72,58.97h58.97v58.97h-58.97v-58.97ZM530.69,58.97h58.97v58.97h-58.97v-58.97ZM648.62,58.97h58.97v58.97h-58.97v-58.97ZM707.59,58.97h58.97v58.97h-58.97v-58.97ZM884.48,58.97h58.97v58.97h-58.97v-58.97ZM943.45,58.97h58.97v58.97h-58.97v-58.97ZM1002.41,58.97h58.97v58.97h-58.97v-58.97ZM1061.38,58.97h58.97v58.97h-58.97v-58.97ZM1120.34,58.97h58.97v58.97h-58.97v-58.97ZM1297.24,58.97h58.97v58.97h-58.97v-58.97ZM1651.03,58.97h58.97v58.97h-58.97v-58.97ZM0,117.93h58.97v58.97H0v-58.97ZM117.93,117.93h58.97v58.97h-58.97v-58.97ZM176.9,117.93h58.97v58.97h-58.97v-58.97ZM235.86,117.93h58.97v58.97h-58.97v-58.97ZM353.79,117.93h58.97v58.97h-58.97v-58.97ZM471.72,117.93h58.97v58.97h-58.97v-58.97ZM589.66,117.93h58.97v58.97h-58.97v-58.97ZM648.62,117.93h58.97v58.97h-58.97v-58.97ZM707.59,117.93h58.97v58.97h-58.97v-58.97ZM766.55,117.93h58.97v58.97h-58.97v-58.97ZM825.52,117.93h58.97v58.97h-58.97v-58.97ZM884.48,117.93h58.97v58.97h-58.97v-58.97ZM943.45,117.93h58.97v58.97h-58.97v-58.97ZM1120.34,117.93h58.97v58.97h-58.97v-58.97ZM1179.31,117.93h58.97v58.97h-58.97v-58.97ZM1297.24,117.93h58.97v58.97h-58.97v-58.97ZM1415.17,117.93h58.97v58.97h-58.97v-58.97ZM1474.14,117.93h58.97v58.97h-58.97v-58.97ZM1533.1,117.93h58.97v58.97h-58.97v-58.97ZM1651.03,117.93h58.97v58.97h-58.97v-58.97ZM0,176.9h58.97v58.97H0v-58.97ZM117.93,176.9h58.97v58.97h-58.97v-58.97ZM176.9,176.9h58.97v58.97h-58.97v-58.97ZM235.86,176.9h58.97v58.97h-58.97v-58.97ZM353.79,176.9h58.97v58.97h-58.97v-58.97ZM589.66,176.9h58.97v58.97h-58.97v-58.97ZM648.62,176.9h58.97v58.97h-58.97v-58.97ZM766.55,176.9h58.97v58.97h-58.97v-58.97ZM825.52,176.9h58.97v58.97h-58.97v-58.97ZM943.45,176.9h58.97v58.97h-58.97v-58.97ZM1002.41,176.9h58.97v58.97h-58.97v-58.97ZM1120.34,176.9h58.97v58.97h-58.97v-58.97ZM1297.24,176.9h58.97v58.97h-58.97v-58.97ZM1415.17,176.9h58.97v58.97h-58.97v-58.97ZM1474.14,176.9h58.97v58.97h-58.97v-58.97ZM1533.1,176.9h58.97v58.97h-58.97v-58.97ZM1651.03,176.9h58.97v58.97h-58.97v-58.97ZM0,235.86h58.97v58.97H0v-58.97ZM117.93,235.86h58.97v58.97h-58.97v-58.97ZM176.9,235.86h58.97v58.97h-58.97v-58.97ZM235.86,235.86h58.97v58.97h-58.97v-58.97ZM353.79,235.86h58.97v58.97h-58.97v-58.97ZM530.69,235.86h58.97v58.97h-58.97v-58.97ZM589.66,235.86h58.97v58.97h-58.97v-58.97ZM648.62,235.86h58.97v58.97h-58.97v-58.97ZM943.45,235.86h58.97v58.97h-58.97v-58.97ZM1061.38,235.86h58.97v58.97h-58.97v-58.97ZM1120.34,235.86h58.97v58.97h-58.97v-58.97ZM1179.31,235.86h58.97v58.97h-58.97v-58.97ZM1297.24,235.86h58.97v58.97h-58.97v-58.97ZM1415.17,235.86h58.97v58.97h-58.97v-58.97ZM1474.14,235.86h58.97v58.97h-58.97v-58.97ZM1533.1,235.86h58.97v58.97h-58.97v-58.97ZM1651.03,235.86h58.97v58.97h-58.97v-58.97ZM0,294.83h58.97v58.97H0v-58.97ZM353.79,294.83h58.97v58.97h-58.97v-58.97ZM471.72,294.83h58.97v58.97h-58.97v-58.97ZM648.62,294.83h58.97v58.97h-58.97v-58.97ZM707.59,294.83h58.97v58.97h-58.97v-58.97ZM766.55,294.83h58.97v58.97h-58.97v-58.97ZM884.48,294.83h58.97v58.97h-58.97v-58.97ZM943.45,294.83h58.97v58.97h-58.97v-58.97ZM1061.38,294.83h58.97v58.97h-58.97v-58.97ZM1297.24,294.83h58.97v58.97h-58.97v-58.97ZM1651.03,294.83h58.97v58.97h-58.97v-58.97ZM0,353.79h58.97v58.97H0v-58.97ZM58.97,353.79h58.97v58.97h-58.97v-58.97ZM117.93,353.79h58.97v58.97h-58.97v-58.97ZM176.9,353.79h58.97v58.97h-58.97v-58.97ZM235.86,353.79h58.97v58.97h-58.97v-58.97ZM294.83,353.79h58.97v58.97h-58.97v-58.97ZM353.79,353.79h58.97v58.97h-58.97v-58.97ZM471.72,353.79h58.97v58.97h-58.97v-58.97ZM589.66,353.79h58.97v58.97h-58.97v-58.97ZM707.59,353.79h58.97v58.97h-58.97v-58.97ZM825.52,353.79h58.97v58.97h-58.97v-58.97ZM943.45,353.79h58.97v58.97h-58.97v-58.97ZM1061.38,353.79h58.97v58.97h-58.97v-58.97ZM1179.31,353.79h58.97v58.97h-58.97v-58.97ZM1297.24,353.79h58.97v58.97h-58.97v-58.97ZM1356.21,353.79h58.97v58.97h-58.97v-58.97ZM1415.17,353.79h58.97v58.97h-58.97v-58.97ZM1474.14,353.79h58.97v58.97h-58.97v-58.97ZM1533.1,353.79h58.97v58.97h-58.97v-58.97ZM1592.07,353.79h58.97v58.97h-58.97v-58.97ZM1651.03,353.79h58.97v58.97h-58.97v-58.97ZM471.72,412.76h58.97v58.97h-58.97v-58.97ZM589.66,412.76h58.97v58.97h-58.97v-58.97ZM707.59,412.76h58.97v58.97h-58.97v-58.97ZM766.55,412.76h58.97v58.97h-58.97v-58.97ZM825.52,412.76h58.97v58.97h-58.97v-58.97ZM1120.34,412.76h58.97v58.97h-58.97v-58.97ZM117.93,471.72h58.97v58.97h-58.97v-58.97ZM176.9,471.72h58.97v58.97h-58.97v-58.97ZM235.86,471.72h58.97v58.97h-58.97v-58.97ZM353.79,471.72h58.97v58.97h-58.97v-58.97ZM471.72,471.72h58.97v58.97h-58.97v-58.97ZM530.69,471.72h58.97v58.97h-58.97v-58.97ZM589.66,471.72h58.97v58.97h-58.97v-58.97ZM884.48,471.72h58.97v58.97h-58.97v-58.97ZM943.45,471.72h58.97v58.97h-58.97v-58.97ZM1061.38,471.72h58.97v58.97h-58.97v-58.97ZM1179.31,471.72h58.97v58.97h-58.97v-58.97ZM1238.28,471.72h58.97v58.97h-58.97v-58.97ZM1297.24,471.72h58.97v58.97h-58.97v-58.97ZM1356.21,471.72h58.97v58.97h-58.97v-58.97ZM1533.1,471.72h58.97v58.97h-58.97v-58.97ZM1592.07,471.72h58.97v58.97h-58.97v-58.97ZM1651.03,471.72h58.97v58.97h-58.97v-58.97ZM58.97,530.69h58.97v58.97h-58.97v-58.97ZM235.86,530.69h58.97v58.97h-58.97v-58.97ZM294.83,530.69h58.97v58.97h-58.97v-58.97ZM471.72,530.69h58.97v58.97h-58.97v-58.97ZM589.66,530.69h58.97v58.97h-58.97v-58.97ZM766.55,530.69h58.97v58.97h-58.97v-58.97ZM825.52,530.69h58.97v58.97h-58.97v-58.97ZM1238.28,530.69h58.97v58.97h-58.97v-58.97ZM1297.24,530.69h58.97v58.97h-58.97v-58.97ZM1356.21,530.69h58.97v58.97h-58.97v-58.97ZM1415.17,530.69h58.97v58.97h-58.97v-58.97ZM1474.14,530.69h58.97v58.97h-58.97v-58.97ZM1651.03,530.69h58.97v58.97h-58.97v-58.97ZM117.93,589.66h58.97v58.97h-58.97v-58.97ZM235.86,589.66h58.97v58.97h-58.97v-58.97ZM294.83,589.66h58.97v58.97h-58.97v-58.97ZM353.79,589.66h58.97v58.97h-58.97v-58.97ZM471.72,589.66h58.97v58.97h-58.97v-58.97ZM589.66,589.66h58.97v58.97h-58.97v-58.97ZM648.62,589.66h58.97v58.97h-58.97v-58.97ZM825.52,589.66h58.97v58.97h-58.97v-58.97ZM1002.41,589.66h58.97v58.97h-58.97v-58.97ZM1061.38,589.66h58.97v58.97h-58.97v-58.97ZM1179.31,589.66h58.97v58.97h-58.97v-58.97ZM1238.28,589.66h58.97v58.97h-58.97v-58.97ZM1297.24,589.66h58.97v58.97h-58.97v-58.97ZM412.76,648.62h58.97v58.97h-58.97v-58.97ZM471.72,648.62h58.97v58.97h-58.97v-58.97ZM530.69,648.62h58.97v58.97h-58.97v-58.97ZM766.55,648.62h58.97v58.97h-58.97v-58.97ZM825.52,648.62h58.97v58.97h-58.97v-58.97ZM884.48,648.62h58.97v58.97h-58.97v-58.97ZM1061.38,648.62h58.97v58.97h-58.97v-58.97ZM1238.28,648.62h58.97v58.97h-58.97v-58.97ZM1297.24,648.62h58.97v58.97h-58.97v-58.97ZM1356.21,648.62h58.97v58.97h-58.97v-58.97ZM1474.14,648.62h58.97v58.97h-58.97v-58.97ZM1592.07,648.62h58.97v58.97h-58.97v-58.97ZM58.97,707.59h58.97v58.97h-58.97v-58.97ZM176.9,707.59h58.97v58.97h-58.97v-58.97ZM235.86,707.59h58.97v58.97h-58.97v-58.97ZM353.79,707.59h58.97v58.97h-58.97v-58.97ZM412.76,707.59h58.97v58.97h-58.97v-58.97ZM530.69,707.59h58.97v58.97h-58.97v-58.97ZM1002.41,707.59h58.97v58.97h-58.97v-58.97ZM1179.31,707.59h58.97v58.97h-58.97v-58.97ZM1238.28,707.59h58.97v58.97h-58.97v-58.97ZM1356.21,707.59h58.97v58.97h-58.97v-58.97ZM1533.1,707.59h58.97v58.97h-58.97v-58.97ZM1592.07,707.59h58.97v58.97h-58.97v-58.97ZM1651.03,707.59h58.97v58.97h-58.97v-58.97ZM58.97,766.55h58.97v58.97h-58.97v-58.97ZM235.86,766.55h58.97v58.97h-58.97v-58.97ZM530.69,766.55h58.97v58.97h-58.97v-58.97ZM648.62,766.55h58.97v58.97h-58.97v-58.97ZM707.59,766.55h58.97v58.97h-58.97v-58.97ZM884.48,766.55h58.97v58.97h-58.97v-58.97ZM943.45,766.55h58.97v58.97h-58.97v-58.97ZM1120.34,766.55h58.97v58.97h-58.97v-58.97ZM1179.31,766.55h58.97v58.97h-58.97v-58.97ZM1238.28,766.55h58.97v58.97h-58.97v-58.97ZM1297.24,766.55h58.97v58.97h-58.97v-58.97ZM1415.17,766.55h58.97v58.97h-58.97v-58.97ZM1474.14,766.55h58.97v58.97h-58.97v-58.97ZM1651.03,766.55h58.97v58.97h-58.97v-58.97ZM294.83,825.52h58.97v58.97h-58.97v-58.97ZM353.79,825.52h58.97v58.97h-58.97v-58.97ZM471.72,825.52h58.97v58.97h-58.97v-58.97ZM530.69,825.52h58.97v58.97h-58.97v-58.97ZM766.55,825.52h58.97v58.97h-58.97v-58.97ZM884.48,825.52h58.97v58.97h-58.97v-58.97ZM943.45,825.52h58.97v58.97h-58.97v-58.97ZM1002.41,825.52h58.97v58.97h-58.97v-58.97ZM1061.38,825.52h58.97v58.97h-58.97v-58.97ZM1179.31,825.52h58.97v58.97h-58.97v-58.97ZM1238.28,825.52h58.97v58.97h-58.97v-58.97ZM1356.21,825.52h58.97v58.97h-58.97v-58.97ZM58.97,884.48h58.97v58.97h-58.97v-58.97ZM412.76,884.48h58.97v58.97h-58.97v-58.97ZM589.66,884.48h58.97v58.97h-58.97v-58.97ZM648.62,884.48h58.97v58.97h-58.97v-58.97ZM707.59,884.48h58.97v58.97h-58.97v-58.97ZM766.55,884.48h58.97v58.97h-58.97v-58.97ZM825.52,884.48h58.97v58.97h-58.97v-58.97ZM943.45,884.48h58.97v58.97h-58.97v-58.97ZM1002.41,884.48h58.97v58.97h-58.97v-58.97ZM1415.17,884.48h58.97v58.97h-58.97v-58.97ZM1474.14,884.48h58.97v58.97h-58.97v-58.97ZM1592.07,884.48h58.97v58.97h-58.97v-58.97ZM1651.03,884.48h58.97v58.97h-58.97v-58.97ZM0,943.45h58.97v58.97H0v-58.97ZM176.9,943.45h58.97v58.97h-58.97v-58.97ZM235.86,943.45h58.97v58.97h-58.97v-58.97ZM294.83,943.45h58.97v58.97h-58.97v-58.97ZM353.79,943.45h58.97v58.97h-58.97v-58.97ZM412.76,943.45h58.97v58.97h-58.97v-58.97ZM471.72,943.45h58.97v58.97h-58.97v-58.97ZM530.69,943.45h58.97v58.97h-58.97v-58.97ZM589.66,943.45h58.97v58.97h-58.97v-58.97ZM648.62,943.45h58.97v58.97h-58.97v-58.97ZM766.55,943.45h58.97v58.97h-58.97v-58.97ZM884.48,943.45h58.97v58.97h-58.97v-58.97ZM943.45,943.45h58.97v58.97h-58.97v-58.97ZM1474.14,943.45h58.97v58.97h-58.97v-58.97ZM1533.1,943.45h58.97v58.97h-58.97v-58.97ZM1651.03,943.45h58.97v58.97h-58.97v-58.97ZM0,1002.41h58.97v58.97H0v-58.97ZM58.97,1002.41h58.97v58.97h-58.97v-58.97ZM235.86,1002.41h58.97v58.97h-58.97v-58.97ZM294.83,1002.41h58.97v58.97h-58.97v-58.97ZM471.72,1002.41h58.97v58.97h-58.97v-58.97ZM530.69,1002.41h58.97v58.97h-58.97v-58.97ZM589.66,1002.41h58.97v58.97h-58.97v-58.97ZM707.59,1002.41h58.97v58.97h-58.97v-58.97ZM884.48,1002.41h58.97v58.97h-58.97v-58.97ZM1179.31,1002.41h58.97v58.97h-58.97v-58.97ZM1238.28,1002.41h58.97v58.97h-58.97v-58.97ZM1297.24,1002.41h58.97v58.97h-58.97v-58.97ZM1415.17,1002.41h58.97v58.97h-58.97v-58.97ZM1474.14,1002.41h58.97v58.97h-58.97v-58.97ZM1592.07,1002.41h58.97v58.97h-58.97v-58.97ZM1651.03,1002.41h58.97v58.97h-58.97v-58.97ZM0,1061.38h58.97v58.97H0v-58.97ZM353.79,1061.38h58.97v58.97h-58.97v-58.97ZM471.72,1061.38h58.97v58.97h-58.97v-58.97ZM530.69,1061.38h58.97v58.97h-58.97v-58.97ZM825.52,1061.38h58.97v58.97h-58.97v-58.97ZM884.48,1061.38h58.97v58.97h-58.97v-58.97ZM943.45,1061.38h58.97v58.97h-58.97v-58.97ZM1061.38,1061.38h58.97v58.97h-58.97v-58.97ZM1120.34,1061.38h58.97v58.97h-58.97v-58.97ZM1297.24,1061.38h58.97v58.97h-58.97v-58.97ZM1474.14,1061.38h58.97v58.97h-58.97v-58.97ZM0,1120.34h58.97v58.97H0v-58.97ZM117.93,1120.34h58.97v58.97h-58.97v-58.97ZM176.9,1120.34h58.97v58.97h-58.97v-58.97ZM294.83,1120.34h58.97v58.97h-58.97v-58.97ZM412.76,1120.34h58.97v58.97h-58.97v-58.97ZM471.72,1120.34h58.97v58.97h-58.97v-58.97ZM884.48,1120.34h58.97v58.97h-58.97v-58.97ZM943.45,1120.34h58.97v58.97h-58.97v-58.97ZM1002.41,1120.34h58.97v58.97h-58.97v-58.97ZM1061.38,1120.34h58.97v58.97h-58.97v-58.97ZM1120.34,1120.34h58.97v58.97h-58.97v-58.97ZM1179.31,1120.34h58.97v58.97h-58.97v-58.97ZM1297.24,1120.34h58.97v58.97h-58.97v-58.97ZM1356.21,1120.34h58.97v58.97h-58.97v-58.97ZM1474.14,1120.34h58.97v58.97h-58.97v-58.97ZM1592.07,1120.34h58.97v58.97h-58.97v-58.97ZM0,1179.31h58.97v58.97H0v-58.97ZM117.93,1179.31h58.97v58.97h-58.97v-58.97ZM235.86,1179.31h58.97v58.97h-58.97v-58.97ZM294.83,1179.31h58.97v58.97h-58.97v-58.97ZM353.79,1179.31h58.97v58.97h-58.97v-58.97ZM471.72,1179.31h58.97v58.97h-58.97v-58.97ZM648.62,1179.31h58.97v58.97h-58.97v-58.97ZM707.59,1179.31h58.97v58.97h-58.97v-58.97ZM884.48,1179.31h58.97v58.97h-58.97v-58.97ZM943.45,1179.31h58.97v58.97h-58.97v-58.97ZM1002.41,1179.31h58.97v58.97h-58.97v-58.97ZM1061.38,1179.31h58.97v58.97h-58.97v-58.97ZM1120.34,1179.31h58.97v58.97h-58.97v-58.97ZM1179.31,1179.31h58.97v58.97h-58.97v-58.97ZM1238.28,1179.31h58.97v58.97h-58.97v-58.97ZM1297.24,1179.31h58.97v58.97h-58.97v-58.97ZM1356.21,1179.31h58.97v58.97h-58.97v-58.97ZM1415.17,1179.31h58.97v58.97h-58.97v-58.97ZM1474.14,1179.31h58.97v58.97h-58.97v-58.97ZM1533.1,1179.31h58.97v58.97h-58.97v-58.97ZM471.72,1238.28h58.97v58.97h-58.97v-58.97ZM530.69,1238.28h58.97v58.97h-58.97v-58.97ZM589.66,1238.28h58.97v58.97h-58.97v-58.97ZM648.62,1238.28h58.97v58.97h-58.97v-58.97ZM707.59,1238.28h58.97v58.97h-58.97v-58.97ZM884.48,1238.28h58.97v58.97h-58.97v-58.97ZM1061.38,1238.28h58.97v58.97h-58.97v-58.97ZM1179.31,1238.28h58.97v58.97h-58.97v-58.97ZM1415.17,1238.28h58.97v58.97h-58.97v-58.97ZM1474.14,1238.28h58.97v58.97h-58.97v-58.97ZM1592.07,1238.28h58.97v58.97h-58.97v-58.97ZM1651.03,1238.28h58.97v58.97h-58.97v-58.97ZM0,1297.24h58.97v58.97H0v-58.97ZM58.97,1297.24h58.97v58.97h-58.97v-58.97ZM117.93,1297.24h58.97v58.97h-58.97v-58.97ZM176.9,1297.24h58.97v58.97h-58.97v-58.97ZM235.86,1297.24h58.97v58.97h-58.97v-58.97ZM294.83,1297.24h58.97v58.97h-58.97v-58.97ZM353.79,1297.24h58.97v58.97h-58.97v-58.97ZM825.52,1297.24h58.97v58.97h-58.97v-58.97ZM884.48,1297.24h58.97v58.97h-58.97v-58.97ZM943.45,1297.24h58.97v58.97h-58.97v-58.97ZM1120.34,1297.24h58.97v58.97h-58.97v-58.97ZM1179.31,1297.24h58.97v58.97h-58.97v-58.97ZM1297.24,1297.24h58.97v58.97h-58.97v-58.97ZM1415.17,1297.24h58.97v58.97h-58.97v-58.97ZM1592.07,1297.24h58.97v58.97h-58.97v-58.97ZM0,1356.21h58.97v58.97H0v-58.97ZM353.79,1356.21h58.97v58.97h-58.97v-58.97ZM589.66,1356.21h58.97v58.97h-58.97v-58.97ZM825.52,1356.21h58.97v58.97h-58.97v-58.97ZM884.48,1356.21h58.97v58.97h-58.97v-58.97ZM943.45,1356.21h58.97v58.97h-58.97v-58.97ZM1061.38,1356.21h58.97v58.97h-58.97v-58.97ZM1120.34,1356.21h58.97v58.97h-58.97v-58.97ZM1179.31,1356.21h58.97v58.97h-58.97v-58.97ZM1415.17,1356.21h58.97v58.97h-58.97v-58.97ZM1474.14,1356.21h58.97v58.97h-58.97v-58.97ZM1592.07,1356.21h58.97v58.97h-58.97v-58.97ZM0,1415.17h58.97v58.97H0v-58.97ZM117.93,1415.17h58.97v58.97h-58.97v-58.97ZM176.9,1415.17h58.97v58.97h-58.97v-58.97ZM235.86,1415.17h58.97v58.97h-58.97v-58.97ZM353.79,1415.17h58.97v58.97h-58.97v-58.97ZM471.72,1415.17h58.97v58.97h-58.97v-58.97ZM530.69,1415.17h58.97v58.97h-58.97v-58.97ZM707.59,1415.17h58.97v58.97h-58.97v-58.97ZM766.55,1415.17h58.97v58.97h-58.97v-58.97ZM825.52,1415.17h58.97v58.97h-58.97v-58.97ZM884.48,1415.17h58.97v58.97h-58.97v-58.97ZM943.45,1415.17h58.97v58.97h-58.97v-58.97ZM1002.41,1415.17h58.97v58.97h-58.97v-58.97ZM1179.31,1415.17h58.97v58.97h-58.97v-58.97ZM1238.28,1415.17h58.97v58.97h-58.97v-58.97ZM1297.24,1415.17h58.97v58.97h-58.97v-58.97ZM1356.21,1415.17h58.97v58.97h-58.97v-58.97ZM1415.17,1415.17h58.97v58.97h-58.97v-58.97ZM1474.14,1415.17h58.97v58.97h-58.97v-58.97ZM1533.1,1415.17h58.97v58.97h-58.97v-58.97ZM1592.07,1415.17h58.97v58.97h-58.97v-58.97ZM1651.03,1415.17h58.97v58.97h-58.97v-58.97ZM0,1474.14h58.97v58.97H0v-58.97ZM117.93,1474.14h58.97v58.97h-58.97v-58.97ZM176.9,1474.14h58.97v58.97h-58.97v-58.97ZM235.86,1474.14h58.97v58.97h-58.97v-58.97ZM353.79,1474.14h58.97v58.97h-58.97v-58.97ZM471.72,1474.14h58.97v58.97h-58.97v-58.97ZM530.69,1474.14h58.97v58.97h-58.97v-58.97ZM707.59,1474.14h58.97v58.97h-58.97v-58.97ZM766.55,1474.14h58.97v58.97h-58.97v-58.97ZM825.52,1474.14h58.97v58.97h-58.97v-58.97ZM884.48,1474.14h58.97v58.97h-58.97v-58.97ZM943.45,1474.14h58.97v58.97h-58.97v-58.97ZM1002.41,1474.14h58.97v58.97h-58.97v-58.97ZM1061.38,1474.14h58.97v58.97h-58.97v-58.97ZM1120.34,1474.14h58.97v58.97h-58.97v-58.97ZM1179.31,1474.14h58.97v58.97h-58.97v-58.97ZM1238.28,1474.14h58.97v58.97h-58.97v-58.97ZM1356.21,1474.14h58.97v58.97h-58.97v-58.97ZM0,1533.1h58.97v58.97H0v-58.97ZM117.93,1533.1h58.97v58.97h-58.97v-58.97ZM176.9,1533.1h58.97v58.97h-58.97v-58.97ZM235.86,1533.1h58.97v58.97h-58.97v-58.97ZM353.79,1533.1h58.97v58.97h-58.97v-58.97ZM471.72,1533.1h58.97v58.97h-58.97v-58.97ZM530.69,1533.1h58.97v58.97h-58.97v-58.97ZM648.62,1533.1h58.97v58.97h-58.97v-58.97ZM825.52,1533.1h58.97v58.97h-58.97v-58.97ZM884.48,1533.1h58.97v58.97h-58.97v-58.97ZM1120.34,1533.1h58.97v58.97h-58.97v-58.97ZM1179.31,1533.1h58.97v58.97h-58.97v-58.97ZM1238.28,1533.1h58.97v58.97h-58.97v-58.97ZM1297.24,1533.1h58.97v58.97h-58.97v-58.97ZM1356.21,1533.1h58.97v58.97h-58.97v-58.97ZM1415.17,1533.1h58.97v58.97h-58.97v-58.97ZM1533.1,1533.1h58.97v58.97h-58.97v-58.97ZM1592.07,1533.1h58.97v58.97h-58.97v-58.97ZM0,1592.07h58.97v58.97H0v-58.97ZM353.79,1592.07h58.97v58.97h-58.97v-58.97ZM589.66,1592.07h58.97v58.97h-58.97v-58.97ZM648.62,1592.07h58.97v58.97h-58.97v-58.97ZM707.59,1592.07h58.97v58.97h-58.97v-58.97ZM825.52,1592.07h58.97v58.97h-58.97v-58.97ZM884.48,1592.07h58.97v58.97h-58.97v-58.97ZM943.45,1592.07h58.97v58.97h-58.97v-58.97ZM1061.38,1592.07h58.97v58.97h-58.97v-58.97ZM1238.28,1592.07h58.97v58.97h-58.97v-58.97ZM1415.17,1592.07h58.97v58.97h-58.97v-58.97ZM1474.14,1592.07h58.97v58.97h-58.97v-58.97ZM1592.07,1592.07h58.97v58.97h-58.97v-58.97ZM0,1651.03h58.97v58.97H0v-58.97ZM58.97,1651.03h58.97v58.97h-58.97v-58.97ZM117.93,1651.03h58.97v58.97h-58.97v-58.97ZM176.9,1651.03h58.97v58.97h-58.97v-58.97ZM235.86,1651.03h58.97v58.97h-58.97v-58.97ZM294.83,1651.03h58.97v58.97h-58.97v-58.97ZM353.79,1651.03h58.97v58.97h-58.97v-58.97ZM530.69,1651.03h58.97v58.97h-58.97v-58.97ZM825.52,1651.03h58.97v58.97h-58.97v-58.97ZM884.48,1651.03h58.97v58.97h-58.97v-58.97ZM1297.24,1651.03h58.97v58.97h-58.97v-58.97ZM1415.17,1651.03h58.97v58.97h-58.97v-58.97ZM1533.1,1651.03h58.97v58.97h-58.97v-58.97Z"/>
  </g>
</svg>