<svg width="219" height="257" viewBox="0 0 219 257" fill="none" xmlns="http://www.w3.org/2000/svg">
<path d="M159.164 227.735L122.661 206.316V151.591L169.32 178.952L169.329 221.776L218.995 192.649V134.397L182.479 155.8L135.815 128.436L182.479 101.072L218.995 122.473L218.991 64.2241L169.326 35.0968L169.32 77.9207L122.661 105.281V50.5567L159.164 29.1375L109.502 0.0125732L59.834 29.1367L96.3428 50.5559L96.3396 105.286L49.678 77.9191L49.6685 35.0952L0.00319119 64.2249V122.477L36.5184 101.073L83.1767 128.437L36.5184 155.801L0 134.397L0.00319119 192.649L49.6685 221.773L49.678 178.952L96.3396 151.585L96.3428 206.315L59.834 227.735L109.502 256.859L159.165 227.735L159.164 227.735ZM205.835 184.931L182.495 198.621V171.245L205.835 157.555V184.931ZM182.495 85.6288L182.492 58.2526L205.832 71.9427L205.836 99.3156L182.495 85.6288ZM86.1557 29.1342L109.502 15.4474L132.843 29.1342L109.502 42.8211L86.1557 29.1342ZM13.1629 71.9419L36.5032 58.2518V85.628L13.1629 99.3181V71.9419ZM36.5032 171.244V198.617L13.1629 184.93L13.1597 157.554L36.5032 171.244ZM86.1557 227.739L109.502 214.052L132.843 227.739L109.502 241.426L86.1557 227.739Z" fill="#178AB7"/>
<path d="M122.663 206.32L109.504 214.056L132.844 227.743L109.504 241.429L86.1577 227.743L109.504 214.056L96.3447 206.32L59.8359 227.739L109.504 256.864L159.166 227.739L122.663 206.32Z" fill="#00397F"/>
<path d="M169.324 77.9092L182.5 85.6173L182.499 58.242L205.839 71.9305L205.843 99.3107L182.5 85.6173L182.484 101.061L219.001 122.466L218.998 64.2135L169.335 35.0902L169.324 77.9092Z" fill="#178AB7"/>
<path d="M36.5144 101.081L36.4984 85.6376L13.1589 99.326L13.1597 71.9515L36.5024 58.2574L36.4984 85.6376L49.674 77.9303L49.6661 35.1056L0 64.2337L0.000797797 122.482L36.5144 101.081Z" fill="#00397F"/>
<path d="M109.501 0L59.8359 29.1387L109.504 58.2627L159.166 29.1387L109.501 0ZM86.1577 29.1419L109.504 15.455L132.844 29.1419L109.504 42.8279L86.1577 29.1419Z" fill="#178AB7"/>
<path d="M169.324 163.511L169.335 221.769L219.001 192.64V134.394L169.324 163.512V163.511ZM182.499 198.617L182.503 171.236L205.843 157.549V184.922L182.499 198.617Z" fill="#00397F"/>
<path d="M96.3452 105.291V120.724L36.5 85.6329L49.6756 77.9257L96.3452 105.291Z" fill="#00397F"/>
<path d="M182.515 85.6206L182.499 101.061L135.832 128.435L122.672 120.719L182.515 85.6206Z" fill="#00397F"/>
<path d="M109.504 214.046L122.661 206.313L122.666 151.575L109.683 143.973L109.504 214.046Z" fill="#00397F"/>
<path d="M122.67 120.712V50.5486L109.511 58.2575L109.507 128.428L49.6964 163.508L49.6797 178.951L109.688 143.971L109.507 128.428L122.67 120.712Z" fill="#00397F"/>
<path d="M0 192.652L0.0111692 134.394L49.6764 163.523V221.769L0 192.652ZM13.1748 157.546L13.1788 184.926L36.5184 198.614V171.24L13.1748 157.546Z" fill="#178AB7"/>
</svg>
