<svg width="134" height="97" viewBox="0 0 134 97" fill="none" xmlns="http://www.w3.org/2000/svg">
<path fill-rule="evenodd" clip-rule="evenodd" d="M18.1875 12.125C14.8393 12.125 12.125 14.8393 12.125 18.1875V78.8125C12.125 82.1607 14.8393 84.875 18.1875 84.875H115.188C118.536 84.875 121.25 82.1607 121.25 78.8125V18.1875C121.25 14.8393 118.536 12.125 115.188 12.125H18.1875ZM0 18.1875C0 8.14282 8.14282 0 18.1875 0H115.188C125.232 0 133.375 8.14282 133.375 18.1875V78.8125C133.375 88.8572 125.232 97 115.188 97H18.1875C8.14282 97 0 88.8572 0 78.8125V18.1875Z" fill="#808080"/>
<path fill-rule="evenodd" clip-rule="evenodd" d="M0 36.375C0 33.0268 2.71427 30.3125 6.0625 30.3125H127.312C130.661 30.3125 133.375 33.0268 133.375 36.375C133.375 39.7232 130.661 42.4375 127.312 42.4375H6.0625C2.71427 42.4375 0 39.7232 0 36.375Z" fill="#808080"/>
</svg>
