<svg width="203" height="8" viewBox="0 0 203 8" fill="none" xmlns="http://www.w3.org/2000/svg">
<g id="g4257">
<path id="path4259" d="M89.2999 0.554679C93.0305 1.12353 92.3739 6.48618 89.2999 7.14062C60.1409 4.09734 30.1995 5.0594 0 3.73221C30.055 2.35621 59.2466 4.2494 89.2999 0.554679Z" fill="white"/>
<path id="path4261" d="M105.164 3.84693C105.164 1.72211 103.524 -0.000386715 101.5 -0.000386715C99.4764 -0.000386715 97.8359 1.72211 97.8359 3.84693C97.8359 5.97176 99.4764 7.69434 101.5 7.69434C103.524 7.69434 105.164 5.97185 105.164 3.84693Z" fill="white"/>
<path id="path4263" d="M113.698 0.554679C109.968 1.12353 110.624 6.48618 113.698 7.14062C142.857 4.09734 172.799 5.0594 202.998 3.73221C172.943 2.35621 143.752 4.2494 113.698 0.554679Z" fill="white"/>
</g>
</svg>
