<svg width="91" height="34" viewBox="0 0 91 34" fill="none" xmlns="http://www.w3.org/2000/svg">
<path d="M13.4844 33.3516C11.7344 33.3516 10.2734 33.1484 9.10156 32.7422C7.94531 32.3203 7.03906 31.6641 6.38281 30.7734C5.72656 29.8828 5.25781 28.8359 4.97656 27.6328C4.71094 26.4141 4.57812 24.9141 4.57812 23.1328V10.9688H0.359375L0.59375 7.64062L5 7.24219L6.96875 0.257812L10.7188 0.234375V7.24219H17.1172V10.9688H10.7188V23.25C10.7188 25.2031 11 26.5938 11.5625 27.4219C12.125 28.25 13.1641 28.6641 14.6797 28.6641C15.5703 28.6641 16.5234 28.5859 17.5391 28.4297L17.7031 32.8359C17.6719 32.8359 17.4766 32.875 17.1172 32.9531C16.7734 33.0156 16.4375 33.0703 16.1094 33.1172C15.7969 33.1797 15.3906 33.2344 14.8906 33.2812C14.3906 33.3281 13.9219 33.3516 13.4844 33.3516ZM33.7109 33.4922C29.5703 33.4922 26.3438 32.3047 24.0312 29.9297C21.7344 27.5391 20.5859 24.2422 20.5859 20.0391C20.5859 15.9453 21.6719 12.6875 23.8438 10.2656C26.0156 7.84375 28.9766 6.625 32.7266 6.60938C36.2734 6.60938 39.0234 7.71875 40.9766 9.9375C42.9453 12.1562 43.9297 15.1016 43.9297 18.7734C43.9297 19.0391 43.9219 19.4688 43.9062 20.0625C43.9062 20.6562 43.9062 21.0938 43.9062 21.375H26.7734C26.8359 23.7812 27.4922 25.6484 28.7422 26.9766C30.0078 28.2891 31.7422 28.9453 33.9453 28.9453C36.7578 28.9453 39.4609 28.2109 42.0547 26.7422L42.9219 31.1016C40.3438 32.6953 37.2734 33.4922 33.7109 33.4922ZM26.8906 17.5078H38.1406C38.1406 15.4141 37.6641 13.8047 36.7109 12.6797C35.7578 11.5547 34.4375 10.9922 32.75 10.9922C31.1719 10.9922 29.8359 11.5391 28.7422 12.6328C27.6641 13.7266 27.0469 15.3516 26.8906 17.5078ZM48.9688 33V7.24219H54.125L54.9219 11.1797C56.6094 8.47656 59.0547 7.125 62.2578 7.125C62.9297 7.125 63.4766 7.15625 63.8984 7.21875L63.8047 12.3516C63.1797 12.2578 62.5312 12.2109 61.8594 12.2109C59.5938 12.2109 57.8984 12.8125 56.7734 14.0156C55.6641 15.2188 55.1094 16.8906 55.1094 19.0312V33H48.9688ZM67.6484 33V7.24219H72.5938L73.2734 10.5C75.8984 7.90625 78.8125 6.60938 82.0156 6.60938C85.0156 6.60938 87.2578 7.47656 88.7422 9.21094C90.2422 10.9297 90.9922 13.4297 90.9922 16.7109V33H84.8281V17.4609C84.8125 15.3828 84.4766 13.8281 83.8203 12.7969C83.1641 11.7656 81.9844 11.25 80.2812 11.25C78.9531 11.25 77.7344 11.5938 76.625 12.2812C75.5312 12.9531 74.7344 13.8047 74.2344 14.8359C73.9375 16.0547 73.7891 17.9297 73.7891 20.4609V33H67.6484Z" fill="#ECF0F3"/>
</svg>
