<svg width="20" height="20" viewBox="0 0 20 20" fill="none" xmlns="http://www.w3.org/2000/svg">
<g id="Group 794">
<path id="Vector (Stroke)" fill-rule="evenodd" clip-rule="evenodd" d="M2.92929 1.81818C2.63461 1.81818 2.35199 1.93525 2.14362 2.14362C1.93525 2.35199 1.81818 2.63461 1.81818 2.92929V17.0707C1.81818 17.3654 1.93524 17.648 2.14362 17.8564C2.35199 18.0648 2.63461 18.1818 2.92929 18.1818H17.0707C17.3654 18.1818 17.648 18.0648 17.8564 17.8564C18.0648 17.648 18.1818 17.3654 18.1818 17.0707V11.0101C18.1818 10.508 18.5888 10.101 19.0909 10.101C19.593 10.101 20 10.508 20 11.0101V17.0707C20 17.8476 19.6914 18.5927 19.142 19.142C18.5927 19.6914 17.8476 20 17.0707 20H2.92929C2.1524 20 1.40732 19.6914 0.85797 19.142C0.308621 18.5927 0 17.8476 0 17.0707V2.92929C0 2.1524 0.308621 1.40732 0.85797 0.85797C1.40732 0.308621 2.1524 0 2.92929 0H8.9899C9.49198 0 9.89899 0.407014 9.89899 0.909091C9.89899 1.41117 9.49198 1.81818 8.9899 1.81818H2.92929Z" fill="#1EA8DE"/>
<path id="Vector (Stroke)_2" fill-rule="evenodd" clip-rule="evenodd" d="M19.7337 0.266267C20.0887 0.621289 20.0887 1.19689 19.7337 1.55192L10.6428 10.6428C10.2878 10.9978 9.71217 10.9978 9.35715 10.6428C9.00213 10.2878 9.00213 9.7122 9.35715 9.35718L18.4481 0.266267C18.8031 -0.0887555 19.3787 -0.0887555 19.7337 0.266267Z" fill="#1EA8DE"/>
<path id="Vector (Stroke)_3" fill-rule="evenodd" clip-rule="evenodd" d="M12.1212 0.909091C12.1212 0.407014 12.5282 0 13.0303 0H19.0909C19.593 0 20 0.407014 20 0.909091V6.9697C20 7.47177 19.593 7.87879 19.0909 7.87879C18.5888 7.87879 18.1818 7.47177 18.1818 6.9697V1.81818H13.0303C12.5282 1.81818 12.1212 1.41117 12.1212 0.909091Z" fill="#1EA8DE"/>
</g>
</svg>
