<svg width="21" height="15" viewBox="0 0 21 15" fill="#F2F2F2" xmlns="http://www.w3.org/2000/svg">
<path fill-rule="evenodd" clip-rule="evenodd" d="M0 7.35078C0 6.77088 0.470101 6.30078 1.05 6.30078H1.0605C1.6404 6.30078 2.1105 6.77088 2.1105 7.35078C2.1105 7.93068 1.6404 8.40078 1.0605 8.40078H1.05C0.470101 8.40078 0 7.93068 0 7.35078Z" fill="#F2F2F2"/>
<path fill-rule="evenodd" clip-rule="evenodd" d="M0 13.6496C0 13.0697 0.470101 12.5996 1.05 12.5996H1.0605C1.6404 12.5996 2.1105 13.0697 2.1105 13.6496C2.1105 14.2295 1.6404 14.6996 1.0605 14.6996H1.05C0.470101 14.6996 0 14.2295 0 13.6496Z" fill="#F2F2F2"/>
<path fill-rule="evenodd" clip-rule="evenodd" d="M0 1.05C0 0.470101 0.470101 0 1.05 0H1.0605C1.6404 0 2.1105 0.470101 2.1105 1.05C2.1105 1.6299 1.6404 2.1 1.0605 2.1H1.05C0.470101 2.1 0 1.6299 0 1.05Z" fill="#F2F2F2"/>
<path fill-rule="evenodd" clip-rule="evenodd" d="M5.25 7.35078C5.25 6.77088 5.7201 6.30078 6.3 6.30078H19.95C20.5299 6.30078 21 6.77088 21 7.35078C21 7.93068 20.5299 8.40078 19.95 8.40078H6.3C5.7201 8.40078 5.25 7.93068 5.25 7.35078Z" fill="#F2F2F2"/>
<path fill-rule="evenodd" clip-rule="evenodd" d="M5.25 13.6496C5.25 13.0697 5.7201 12.5996 6.3 12.5996H19.95C20.5299 12.5996 21 13.0697 21 13.6496C21 14.2295 20.5299 14.6996 19.95 14.6996H6.3C5.7201 14.6996 5.25 14.2295 5.25 13.6496Z" fill="#F2F2F2"/>
<path fill-rule="evenodd" clip-rule="evenodd" d="M5.25 1.05C5.25 0.470101 5.7201 0 6.3 0H19.95C20.5299 0 21 0.470101 21 1.05C21 1.6299 20.5299 2.1 19.95 2.1H6.3C5.7201 2.1 5.25 1.6299 5.25 1.05Z" fill="#F2F2F2"/>
</svg>
