<svg width="17" height="18" viewBox="0 0 17 18" fill="none" xmlns="http://www.w3.org/2000/svg">
<g id="Bullet point">
<path id="Vector (Stroke)" fill-rule="evenodd" clip-rule="evenodd" d="M9.73831 2.40747C8.92255 2.24959 8.08408 2.24959 7.26831 2.40747C6.72609 2.5124 6.20146 2.15791 6.09653 1.61568C5.99159 1.07346 6.34609 0.548832 6.88831 0.443898C7.95508 0.237451 9.05154 0.237451 10.1183 0.443898C10.6605 0.548832 11.015 1.07346 10.9101 1.61568C10.8052 2.15791 10.2805 2.5124 9.73831 2.40747Z" fill="#ECF0F3"/>
<path id="Vector (Stroke)_2" fill-rule="evenodd" clip-rule="evenodd" d="M6.09653 15.9664C6.20146 15.4242 6.72609 15.0697 7.26831 15.1747C8.08408 15.3325 8.92255 15.3325 9.73831 15.1747C10.2805 15.0697 10.8052 15.4242 10.9101 15.9664C11.015 16.5087 10.6605 17.0333 10.1183 17.1382C9.05154 17.3447 7.95508 17.3447 6.88831 17.1382C6.34609 17.0333 5.99159 16.5087 6.09653 15.9664Z" fill="#ECF0F3"/>
<path id="Vector (Stroke)_3" fill-rule="evenodd" clip-rule="evenodd" d="M11.8754 2.01729C12.1852 1.56007 12.8069 1.44057 13.2642 1.75036C14.1664 2.3617 14.9427 3.14085 15.5507 4.04536C15.8588 4.50373 15.7369 5.12506 15.2786 5.43316C14.8202 5.74126 14.1989 5.61944 13.8908 5.16108C13.4259 4.4694 12.8322 3.87358 12.1423 3.40608C11.6851 3.09629 11.5656 2.4745 11.8754 2.01729Z" fill="#ECF0F3"/>
<path id="Vector (Stroke)_4" fill-rule="evenodd" clip-rule="evenodd" d="M1.32662 6.38559C1.86884 6.49052 2.22334 7.01515 2.1184 7.55737C1.96053 8.37314 1.96053 9.21161 2.1184 10.0274C2.22334 10.5696 1.86884 11.0942 1.32662 11.1992C0.784395 11.3041 0.259769 10.9496 0.154835 10.4074C-0.0516118 9.3406 -0.0516118 8.24414 0.154835 7.17737C0.259769 6.63515 0.784395 6.28066 1.32662 6.38559Z" fill="#ECF0F3"/>
<path id="Vector (Stroke)_5" fill-rule="evenodd" clip-rule="evenodd" d="M15.2735 12.1644C15.7308 12.4742 15.8503 13.096 15.5405 13.5532C14.9291 14.4555 14.15 15.2317 13.2455 15.8397C12.7871 16.1478 12.1658 16.026 11.8577 15.5676C11.5496 15.1093 11.6714 14.4879 12.1297 14.1799C12.8214 13.7149 13.4172 13.1213 13.8847 12.4314C14.1945 11.9741 14.8163 11.8546 15.2735 12.1644Z" fill="#ECF0F3"/>
<path id="Vector (Stroke)_6" fill-rule="evenodd" clip-rule="evenodd" d="M15.6696 6.38559C16.2118 6.28066 16.7364 6.63515 16.8413 7.17737C17.0478 8.24414 17.0478 9.3406 16.8413 10.4074C16.7364 10.9496 16.2118 11.3041 15.6696 11.1992C15.1273 11.0942 14.7728 10.5696 14.8778 10.0274C15.0356 9.21161 15.0356 8.37314 14.8778 7.55737C14.7728 7.01515 15.1273 6.49052 15.6696 6.38559Z" fill="#ECF0F3"/>
<path id="Vector (Stroke)_7" fill-rule="evenodd" clip-rule="evenodd" d="M5.1441 2.00474C5.45219 2.4631 5.33038 3.08444 4.87202 3.39254C4.18034 3.85747 3.58452 4.45108 3.11702 5.14104C2.80723 5.59825 2.18544 5.71776 1.72823 5.40796C1.27101 5.09817 1.15151 4.47638 1.4613 4.01917C2.07264 3.11692 2.85179 2.34066 3.7563 1.73267C4.21466 1.42457 4.836 1.54638 5.1441 2.00474Z" fill="#ECF0F3"/>
<path id="Vector (Stroke)_8" fill-rule="evenodd" clip-rule="evenodd" d="M1.72349 12.1467C2.18185 11.8386 2.80319 11.9604 3.11129 12.4188C3.57622 13.1105 4.16983 13.7063 4.85979 14.1738C5.317 14.4836 5.43651 15.1054 5.12671 15.5626C4.81692 16.0198 4.19513 16.1393 3.73792 15.8295C2.83567 15.2182 2.05941 14.439 1.45142 13.5345C1.14332 13.0762 1.26513 12.4548 1.72349 12.1467Z" fill="#ECF0F3"/>
</g>
</svg>
