<svg width="21" height="15" viewBox="0 0 21 15" fill="none" xmlns="http://www.w3.org/2000/svg">
<path fill-rule="evenodd" clip-rule="evenodd" d="M0 7.35103C0 6.77113 0.470101 6.30103 1.05 6.30103H1.0605C1.6404 6.30103 2.1105 6.77113 2.1105 7.35103C2.1105 7.93092 1.6404 8.40103 1.0605 8.40103H1.05C0.470101 8.40103 0 7.93092 0 7.35103Z" fill="#F2F2F2"/>
<path fill-rule="evenodd" clip-rule="evenodd" d="M0 13.6499C0 13.07 0.470101 12.5999 1.05 12.5999H1.0605C1.6404 12.5999 2.1105 13.07 2.1105 13.6499C2.1105 14.2298 1.6404 14.6999 1.0605 14.6999H1.05C0.470101 14.6999 0 14.2298 0 13.6499Z" fill="#F2F2F2"/>
<path fill-rule="evenodd" clip-rule="evenodd" d="M0 1.05024C0 0.470345 0.470101 0.000244141 1.05 0.000244141H1.0605C1.6404 0.000244141 2.1105 0.470345 2.1105 1.05024C2.1105 1.63014 1.6404 2.10024 1.0605 2.10024H1.05C0.470101 2.10024 0 1.63014 0 1.05024Z" fill="#F2F2F2"/>
<path fill-rule="evenodd" clip-rule="evenodd" d="M5.25 7.35103C5.25 6.77113 5.7201 6.30103 6.3 6.30103H19.95C20.5299 6.30103 21 6.77113 21 7.35103C21 7.93092 20.5299 8.40103 19.95 8.40103H6.3C5.7201 8.40103 5.25 7.93092 5.25 7.35103Z" fill="#F2F2F2"/>
<path fill-rule="evenodd" clip-rule="evenodd" d="M5.25 13.6499C5.25 13.07 5.7201 12.5999 6.3 12.5999H19.95C20.5299 12.5999 21 13.07 21 13.6499C21 14.2298 20.5299 14.6999 19.95 14.6999H6.3C5.7201 14.6999 5.25 14.2298 5.25 13.6499Z" fill="#F2F2F2"/>
<path fill-rule="evenodd" clip-rule="evenodd" d="M5.25 1.05024C5.25 0.470345 5.7201 0.000244141 6.3 0.000244141H19.95C20.5299 0.000244141 21 0.470345 21 1.05024C21 1.63014 20.5299 2.10024 19.95 2.10024H6.3C5.7201 2.10024 5.25 1.63014 5.25 1.05024Z" fill="#F2F2F2"/>
</svg>
