<svg width="17" height="19" viewBox="0 0 17 19" fill="none" xmlns="http://www.w3.org/2000/svg">
<path fill-rule="evenodd" clip-rule="evenodd" d="M5.54474 0.5C5.99661 0.5 6.36293 0.866312 6.36293 1.31818V4.59091C6.36293 5.04278 5.99661 5.40909 5.54474 5.40909C5.09287 5.40909 4.72656 5.04278 4.72656 4.59091V1.31818C4.72656 0.866312 5.09287 0.5 5.54474 0.5Z" fill="#F2F2F2"/>
<path fill-rule="evenodd" clip-rule="evenodd" d="M12.0916 0.5C12.5435 0.5 12.9098 0.866312 12.9098 1.31818V4.59091C12.9098 5.04278 12.5435 5.40909 12.0916 5.40909C11.6397 5.40909 11.2734 5.04278 11.2734 4.59091V1.31818C11.2734 0.866312 11.6397 0.5 12.0916 0.5Z" fill="#F2F2F2"/>
<path fill-rule="evenodd" clip-rule="evenodd" d="M3.08794 3.77699C2.63596 3.77699 2.26956 4.1433 2.26956 4.59517V16.0497C2.26956 16.5016 2.63596 16.8679 3.08794 16.8679H14.5452C14.9972 16.8679 15.3636 16.5016 15.3636 16.0497V4.59517C15.3636 4.1433 14.9972 3.77699 14.5452 3.77699H3.08794ZM0.632812 4.59517C0.632812 3.23956 1.73201 2.14062 3.08794 2.14062H14.5452C15.9011 2.14062 17.0003 3.23956 17.0003 4.59517V16.0497C17.0003 17.4053 15.9011 18.5043 14.5452 18.5043H3.08794C1.73201 18.5043 0.632812 17.4053 0.632812 16.0497V4.59517Z" fill="#F2F2F2"/>
<path fill-rule="evenodd" clip-rule="evenodd" d="M0.632812 7.86506C0.632812 7.41319 0.999212 7.04688 1.45119 7.04688H16.1819C16.6339 7.04688 17.0003 7.41319 17.0003 7.86506C17.0003 8.31693 16.6339 8.68324 16.1819 8.68324H1.45119C0.999212 8.68324 0.632812 8.31693 0.632812 7.86506Z" fill="#F2F2F2"/>
<path fill-rule="evenodd" clip-rule="evenodd" d="M4.72656 11.1307C4.72656 10.6788 5.09287 10.3125 5.54474 10.3125H5.55293C6.0048 10.3125 6.37111 10.6788 6.37111 11.1307C6.37111 11.5826 6.0048 11.9489 5.55293 11.9489H5.54474C5.09287 11.9489 4.72656 11.5826 4.72656 11.1307Z" fill="#F2F2F2"/>
<path fill-rule="evenodd" clip-rule="evenodd" d="M7.99219 11.1307C7.99219 10.6788 8.3585 10.3125 8.81037 10.3125H8.81855C9.27042 10.3125 9.63673 10.6788 9.63673 11.1307C9.63673 11.5826 9.27042 11.9489 8.81855 11.9489H8.81037C8.3585 11.9489 7.99219 11.5826 7.99219 11.1307Z" fill="#F2F2F2"/>
<path fill-rule="evenodd" clip-rule="evenodd" d="M11.2734 11.1307C11.2734 10.6788 11.6397 10.3125 12.0916 10.3125H12.0998C12.5517 10.3125 12.918 10.6788 12.918 11.1307C12.918 11.5826 12.5517 11.9489 12.0998 11.9489H12.0916C11.6397 11.9489 11.2734 11.5826 11.2734 11.1307Z" fill="#F2F2F2"/>
<path fill-rule="evenodd" clip-rule="evenodd" d="M4.72656 14.4119C4.72656 13.9601 5.09287 13.5938 5.54474 13.5938H5.55293C6.0048 13.5938 6.37111 13.9601 6.37111 14.4119C6.37111 14.8638 6.0048 15.2301 5.55293 15.2301H5.54474C5.09287 15.2301 4.72656 14.8638 4.72656 14.4119Z" fill="#F2F2F2"/>
<path fill-rule="evenodd" clip-rule="evenodd" d="M7.99219 14.4119C7.99219 13.9601 8.3585 13.5938 8.81037 13.5938H8.81855C9.27042 13.5938 9.63673 13.9601 9.63673 14.4119C9.63673 14.8638 9.27042 15.2301 8.81855 15.2301H8.81037C8.3585 15.2301 7.99219 14.8638 7.99219 14.4119Z" fill="#F2F2F2"/>
<path fill-rule="evenodd" clip-rule="evenodd" d="M11.2734 14.4119C11.2734 13.9601 11.6397 13.5938 12.0916 13.5938H12.0998C12.5517 13.5938 12.918 13.9601 12.918 14.4119C12.918 14.8638 12.5517 15.2301 12.0998 15.2301H12.0916C11.6397 15.2301 11.2734 14.8638 11.2734 14.4119Z" fill="#F2F2F2"/>
</svg>
