<svg xmlns="http://www.w3.org/2000/svg" width="100" height="100" viewBox="0 0 100 100" fill="none">
  <path fill-rule="evenodd" clip-rule="evenodd" d="M8.65366 9.51903C14.1945 3.4241 21.7095 0 29.5455 0C34.0008 0 38.0599 0.70092 42.031 2.60342C44.8168 3.93809 47.4186 5.79687 50 8.19673C52.5814 5.79687 55.1832 3.93809 57.969 2.60342C61.9401 0.70092 65.9992 0 70.4545 0C78.2905 0 85.8055 3.4241 91.3463 9.51903C96.8872 15.614 100 23.8805 100 32.5C100 46.2091 91.7756 56.2657 85.0159 63.5535L53.2141 98.5355C51.439 100.488 48.561 100.488 46.7859 98.5355L14.9948 63.5653C8.15645 56.2902 0 46.247 0 32.5C0 23.8805 3.11282 15.614 8.65366 9.51903ZM29.5455 10C24.1206 10 18.9179 12.3705 15.0819 16.5901C11.2459 20.8097 9.09091 26.5326 9.09091 32.5C9.09091 41.7343 14.5486 49.1825 21.341 56.4051L21.3959 56.4645L50 87.9289L78.6367 56.4285C85.4195 49.1177 90.9091 41.6797 90.9091 32.5C90.9091 26.5326 88.7541 20.8097 84.9181 16.5901C81.0821 12.3705 75.8794 10 70.4545 10C66.9099 10 64.1508 10.5491 61.5991 11.7716C59.0181 13.0082 56.3641 15.0705 53.2141 18.5355C51.439 20.4882 48.561 20.4882 46.7859 18.5355C43.6359 15.0705 40.9819 13.0082 38.4009 11.7716C35.8492 10.5491 33.0901 10 29.5455 10Z" fill="#F2F2F2"/>
  <path fill-rule="evenodd" clip-rule="evenodd" d="M13.8691 15.1069C18.7326 9.85269 25.3288 6.90088 32.2068 6.90088C36.1174 6.90088 39.6803 7.50512 43.1658 9.14521C45.6111 10.2958 47.8948 11.8982 50.1606 13.967C52.4264 11.8982 54.7101 10.2958 57.1554 9.14521C60.6409 7.50512 64.2037 6.90088 68.1144 6.90088C74.9924 6.90088 81.5886 9.85269 86.4521 15.1069C91.3155 20.3612 94.0477 27.4875 94.0477 34.9181C94.0477 46.7363 86.8288 55.4058 80.8956 61.6884L52.9818 91.8453C51.4237 93.5286 48.8975 93.5286 47.3394 91.8453L19.435 61.6985C13.4327 55.4269 6.27344 46.769 6.27344 34.9181C6.27344 27.4875 9.00569 20.3612 13.8691 15.1069ZM32.2068 15.5216C27.4451 15.5216 22.8785 17.5651 19.5115 21.2027C16.1445 24.8402 14.2529 29.7738 14.2529 34.9181C14.2529 42.8787 19.0434 49.2996 25.0054 55.5259L25.0536 55.5771L50.1606 82.7017L75.2963 55.5461C81.2498 49.2438 86.0683 42.8317 86.0683 34.9181C86.0683 29.7738 84.1767 24.8402 80.8097 21.2027C77.4427 17.5651 72.8761 15.5216 68.1144 15.5216C65.0032 15.5216 62.5814 15.9949 60.3416 17.0488C58.0761 18.1148 55.7467 19.8927 52.9818 22.8798C51.4237 24.5631 48.8975 24.5631 47.3394 22.8798C44.5745 19.8927 42.245 18.1148 39.9795 17.0488C37.7398 15.9949 35.318 15.5216 32.2068 15.5216Z" fill="#F2F2F2"/>
  <path fill-rule="evenodd" clip-rule="evenodd" d="M19.0536 20.6953C23.2222 16.2818 28.8761 13.8022 34.7715 13.8022C38.1235 13.8022 41.1774 14.3098 44.165 15.6875C46.2609 16.654 48.2184 18 50.1605 19.7378C52.1026 18 54.0601 16.654 56.156 15.6875C59.1437 14.3098 62.1975 13.8022 65.5495 13.8022C71.4449 13.8022 77.0988 16.2818 81.2675 20.6953C85.4362 25.1089 87.7781 31.095 87.7781 37.3367C87.7781 47.264 81.5904 54.5464 76.5048 59.8238L52.5787 85.1556C51.2432 86.5695 49.0779 86.5695 47.7424 85.1556L23.8243 59.8323C18.6795 54.5641 12.543 47.2915 12.543 37.3367C12.543 31.095 14.8849 25.1089 19.0536 20.6953ZM34.7715 21.0436C30.6901 21.0436 26.7759 22.7602 23.8899 25.8158C21.0039 28.8713 19.3825 33.0155 19.3825 37.3367C19.3825 44.0236 23.4887 49.4172 28.5989 54.6473L28.6402 54.6903L50.1605 77.4749L71.7054 54.6643C76.8084 49.3703 80.9385 43.9841 80.9385 37.3367C80.9385 33.0155 79.3172 28.8713 76.4312 25.8158C73.5452 22.7602 69.6309 21.0436 65.5495 21.0436C62.8827 21.0436 60.8069 21.4412 58.8872 22.3265C56.9453 23.2219 54.9486 24.7154 52.5787 27.2245C51.2432 28.6385 49.0779 28.6385 47.7424 27.2245C45.3725 24.7154 43.3758 23.2219 41.4339 22.3265C39.5141 21.4412 37.4383 21.0436 34.7715 21.0436Z" fill="#F2F2F2"/>
  <path fill-rule="evenodd" clip-rule="evenodd" d="M21.636 23.4676C25.4573 19.4743 30.64 17.231 36.0441 17.231C39.1168 17.231 41.9162 17.6902 44.6548 18.9366C46.5761 19.8111 48.3705 21.0289 50.1507 22.6012C51.931 21.0289 53.7254 19.8111 55.6466 18.9366C58.3853 17.6902 61.1846 17.231 64.2573 17.231C69.6614 17.231 74.8442 19.4743 78.6655 23.4676C82.4867 27.4608 84.6335 32.8768 84.6335 38.5241C84.6335 47.5059 78.9615 54.0947 74.2996 58.8695L52.3674 81.7887C51.1432 83.068 49.1583 83.068 47.9341 81.7887L26.0092 58.8772C21.2931 54.1108 15.668 47.5307 15.668 38.5241C15.668 32.8768 17.8147 27.4608 21.636 23.4676ZM36.0441 23.7827C32.3028 23.7827 28.7148 25.3358 26.0693 28.1003C23.4238 30.8649 21.9376 34.6144 21.9376 38.5241C21.9376 44.5741 25.7015 49.454 30.3859 54.186L30.4238 54.2249L50.1507 74.8396L69.9002 54.2014C74.578 49.4115 78.3639 44.5384 78.3639 38.5241C78.3639 34.6144 76.8777 30.8649 74.2322 28.1003C71.5867 25.3358 67.9986 23.7827 64.2573 23.7827C61.8127 23.7827 59.9099 24.1424 58.1501 24.9434C56.3701 25.7535 54.5398 27.1047 52.3674 29.3749C51.1432 30.6542 49.1583 30.6542 47.9341 29.3749C45.7617 27.1047 43.9314 25.7535 42.1513 24.9434C40.3915 24.1424 38.4887 23.7827 36.0441 23.7827Z" fill="#F2F2F2"/>
  <path fill-rule="evenodd" clip-rule="evenodd" d="M24.2185 26.2832C27.6923 22.7104 32.4039 20.7031 37.3168 20.7031C40.1101 20.7031 42.655 21.114 45.1447 22.2293C46.8913 23.0117 48.5225 24.1013 50.1409 25.5081C51.7593 24.1013 53.3906 23.0117 55.1372 22.2293C57.6269 21.114 60.1718 20.7031 62.9651 20.7031C67.8779 20.7031 72.5895 22.7104 76.0634 26.2832C79.5373 29.8561 81.4889 34.702 81.4889 39.7548C81.4889 47.7912 76.3325 53.6865 72.0945 57.9587L52.1561 78.4653C51.0431 79.61 49.2387 79.61 48.1258 78.4653L28.1941 57.9655C23.9067 53.7008 18.793 47.8134 18.793 39.7548C18.793 34.702 20.7446 29.8561 24.2185 26.2832ZM37.3168 26.5652C33.9156 26.5652 30.6537 27.9548 28.2487 30.4284C25.8437 32.9019 24.4926 36.2567 24.4926 39.7548C24.4926 45.1681 27.9144 49.5342 32.1729 53.7682L32.2074 53.803L50.1409 72.2477L68.095 53.7819C72.3475 49.4963 75.7893 45.1361 75.7893 39.7548C75.7893 36.2567 74.4381 32.9019 72.0331 30.4284C69.6282 27.9548 66.3663 26.5652 62.9651 26.5652C60.7428 26.5652 59.0129 26.8871 57.4131 27.6037C55.7949 28.3286 54.131 29.5376 52.1561 31.5688C51.0431 32.7134 49.2387 32.7134 48.1258 31.5688C46.1509 29.5376 44.487 28.3286 42.8687 27.6037C41.2689 26.8871 39.5391 26.5652 37.3168 26.5652Z" fill="#F2F2F2"/>
  <path fill-rule="evenodd" clip-rule="evenodd" d="M26.8244 29.0555C29.9508 25.9029 34.1913 24.1318 38.6128 24.1318C41.1268 24.1318 43.4172 24.4944 45.6579 25.4784C47.2299 26.1688 48.698 27.1302 50.1546 28.3715C51.6111 27.1302 53.0793 26.1688 54.6512 25.4784C56.8919 24.4944 59.1823 24.1318 61.6963 24.1318C66.1179 24.1318 70.3583 25.9029 73.4848 29.0555C76.6113 32.208 78.3677 36.4838 78.3677 40.9422C78.3677 48.0331 73.727 53.2348 69.9128 57.0044L51.9682 75.0985C50.9666 76.1085 49.3426 76.1085 48.341 75.0985L30.4024 57.0104C26.5438 53.2475 21.9414 48.0527 21.9414 40.9422C21.9414 36.4838 23.6979 32.208 26.8244 29.0555ZM38.6128 29.3042C35.5518 29.3042 32.6161 30.5304 30.4516 32.7129C28.2871 34.8955 27.0711 37.8556 27.0711 40.9422C27.0711 45.7185 30.1507 49.5711 33.9834 53.3069L34.0143 53.3376L50.1546 69.6123L66.3132 53.319C70.1405 49.5376 73.2381 45.6903 73.2381 40.9422C73.2381 37.8556 72.0221 34.8955 69.8576 32.7129C67.6931 30.5304 64.7574 29.3042 61.6963 29.3042C59.6962 29.3042 58.1394 29.5883 56.6995 30.2206C55.2431 30.8602 53.7456 31.9269 51.9682 33.7192C50.9666 34.7292 49.3426 34.7292 48.341 33.7192C46.5635 31.9269 45.066 30.8602 43.6096 30.2206C42.1698 29.5883 40.6129 29.3042 38.6128 29.3042Z" fill="#F2F2F2"/>
  <ellipse cx="50.1643" cy="48.2893" rx="25.0784" ry="27.5862" fill="#F2F2F2"/>
</svg>