<svg xmlns="http://www.w3.org/2000/svg" width="100" height="100" viewBox="0 0 100 100" fill="none">
  <path fill-rule="evenodd" clip-rule="evenodd" d="M45.0033 10.0007C25.6719 10.0007 10.0007 25.6719 10.0007 45.0033C10.0007 64.3348 25.6719 80.006 45.0033 80.006C64.3348 80.006 80.006 64.3348 80.006 45.0033C80.006 25.6719 64.3348 10.0007 45.0033 10.0007ZM0 45.0033C0 20.1487 20.1487 0 45.0033 0C69.858 0 90.0067 20.1487 90.0067 45.0033C90.0067 69.858 69.858 90.0067 45.0033 90.0067C20.1487 90.0067 0 69.858 0 45.0033Z" fill="#F2F2F2"/>
  <path fill-rule="evenodd" clip-rule="evenodd" d="M69.9607 69.9621C71.9134 68.0094 75.0795 68.0094 77.0323 69.9621L98.5339 91.4637C100.487 93.4165 100.487 96.5826 98.5339 98.5353C96.5811 100.488 93.415 100.488 91.4623 98.5353L69.9607 77.0337C68.0079 75.081 68.0079 71.9149 69.9607 69.9621Z" fill="#F2F2F2"/>
</svg>