<svg xmlns="http://www.w3.org/2000/svg" width="102" height="102" viewBox="0 0 102 102" fill="none">
  <path d="M48.6297 2.54621C48.8488 2.08197 49.1873 1.6912 49.6069 1.41799C50.0265 1.14478 50.5106 1 51.0045 1C51.4984 1 51.9825 1.14478 52.4021 1.41799C52.8217 1.6912 53.1602 2.08197 53.3793 2.54621L64.9282 27.0795C65.689 28.6942 66.8121 30.0912 68.2011 31.1506C69.59 32.21 71.2033 32.9001 72.9025 33.1617L98.7302 37.1256C99.2196 37.1999 99.6793 37.4164 100.058 37.7506C100.436 38.0847 100.717 38.5232 100.87 39.0163C101.023 39.5095 101.041 40.0377 100.923 40.5412C100.805 41.0447 100.554 41.5035 100.2 41.8655L81.5217 60.9405C80.2899 62.1994 79.3683 63.7534 78.8362 65.4687C78.304 67.1841 78.1773 69.0093 78.467 70.7874L82.8766 97.7378C82.963 98.2508 82.9102 98.7789 82.7241 99.2619C82.5381 99.7449 82.2263 100.163 81.8244 100.47C81.4225 100.776 80.9467 100.957 80.4512 100.993C79.9556 101.029 79.4604 100.919 79.022 100.674L55.934 87.9433C54.4128 87.1056 52.7202 86.6679 51.002 86.6679C49.2837 86.6679 47.5912 87.1056 46.0699 87.9433L22.987 100.674C22.5487 100.917 22.0541 101.027 21.5594 100.99C21.0647 100.953 20.5898 100.771 20.1887 100.465C19.7877 100.16 19.4765 99.7417 19.2906 99.2595C19.1048 98.7773 19.0517 98.2501 19.1374 97.7378L23.542 70.7926C23.8329 69.0137 23.7069 67.1873 23.1747 65.4709C22.6425 63.7545 21.7202 62.1997 20.4872 60.9405L1.80893 41.8707C1.45193 41.5091 1.19895 41.0496 1.0788 40.5446C0.958661 40.0395 0.976185 39.5093 1.12938 39.0141C1.28258 38.519 1.56528 38.079 1.9453 37.7442C2.32531 37.4094 2.78735 37.1932 3.27879 37.1203L29.1015 33.1617C30.8026 32.9021 32.4181 32.2129 33.809 31.1534C35.1998 30.0939 36.3243 28.6958 37.0857 27.0795L48.6297 2.54621Z" fill="#F2F2F2" stroke="#F2F2F2" stroke-width="2" stroke-linecap="round" stroke-linejoin="round"/>
</svg>