<svg width="16" height="16" viewBox="0 0 16 16" fill="none" xmlns="http://www.w3.org/2000/svg">
<g id="Group 7">
<path id="Vector (Stroke)" fill-rule="evenodd" clip-rule="evenodd" d="M1.33334 8.88867C2.06973 8.88867 2.66669 9.48563 2.66669 10.222V13.185C2.66669 13.2243 2.6823 13.262 2.71008 13.2898C2.73786 13.3175 2.77555 13.3332 2.81484 13.3332H13.1853C13.2246 13.3332 13.2623 13.3175 13.29 13.2898C13.3178 13.262 13.3334 13.2243 13.3334 13.185V10.222C13.3334 9.48563 13.9304 8.88867 14.6668 8.88867C15.4032 8.88867 16.0001 9.48563 16.0001 10.222V13.185C16.0001 13.9315 15.7036 14.6475 15.1757 15.1754C14.6478 15.7033 13.9318 15.9998 13.1853 15.9998H2.81484C2.0683 15.9998 1.35233 15.7033 0.824447 15.1754C0.296562 14.6475 0 13.9315 0 13.185V10.222C0 9.48563 0.596958 8.88867 1.33334 8.88867Z" fill="#001125"/>
<path id="Vector (Stroke)_2" fill-rule="evenodd" clip-rule="evenodd" d="M7.05715 0.390528C7.57785 -0.130175 8.42208 -0.130175 8.94279 0.390528L12.6465 4.09426C13.1672 4.61497 13.1672 5.45919 12.6465 5.9799C12.1258 6.5006 11.2816 6.5006 10.7609 5.9799L7.99997 3.21898L5.23905 5.97989C4.71835 6.5006 3.87412 6.5006 3.35342 5.97989C2.83271 5.45919 2.83271 4.61496 3.35342 4.09426L7.05715 0.390528Z" fill="#001125"/>
<path id="Vector (Stroke)_3" fill-rule="evenodd" clip-rule="evenodd" d="M8.00034 2.33129e-07C8.73672 3.61883e-07 9.33368 0.596959 9.33368 1.33334L9.33368 10.2223C9.33368 10.9587 8.73672 11.5556 8.00033 11.5556C7.26395 11.5556 6.66699 10.9587 6.66699 10.2223L6.66699 1.33334C6.66699 0.596958 7.26395 1.04376e-07 8.00034 2.33129e-07Z" fill="#001125"/>
</g>
</svg>
